<svg width="42" height="42" viewBox="0 0 42 42" fill="none" xmlns="http://www.w3.org/2000/svg">
<path d="M41.9981 31.2607C41.9981 26.0417 40.0776 23.342 37.4375 21.9706C37.3783 6.57601 32.4531 0 20.999 0C9.69965 0 4.62361 6.77895 4.56061 21.9706C1.92046 23.342 0 26.0417 0 31.2607C0 40.6922 6.26726 41.8996 11.7289 41.8996C12.1413 41.8996 12.5059 41.6146 12.6357 41.1964C14.6115 34.7885 14.6115 27.7328 12.6357 21.3249C12.5059 20.9067 12.1413 20.6218 11.7289 20.6218C9.98409 20.6218 8.15718 20.7448 6.47916 21.2224C6.74642 4.40109 13.6017 2.04988 21.001 2.04988C28.4003 2.04988 35.2555 4.40109 35.5228 21.2224C33.8447 20.7468 32.0178 20.6218 30.273 20.6218C29.8606 20.6218 29.496 20.9067 29.3662 21.3249C27.5221 27.3024 27.4018 33.8497 28.9978 39.905C26.3443 39.9993 23.8148 39.946 21.4629 39.7431C20.9265 39.7041 20.4779 40.1182 20.434 40.6819C20.392 41.2456 20.7833 41.7417 21.3083 41.7848C22.9615 41.9283 24.6949 42 26.497 42C27.7283 42 28.9901 41.9672 30.2768 41.8975C35.7346 41.8975 42 40.686 42 31.2586L41.9981 31.2607ZM11.0321 39.8415C4.48043 39.6836 1.909 37.234 1.909 31.2586C1.909 25.2832 4.48043 22.8377 11.0321 22.6778C12.5994 28.2392 12.5994 34.2802 11.0321 39.8415ZM30.9679 39.8415C29.4006 34.2781 29.4006 28.2412 30.9679 22.6799C37.5196 22.8377 40.091 25.2853 40.091 31.2607C40.091 37.2361 37.5196 39.6836 30.9698 39.8435L30.9679 39.8415Z" fill="#A9997A"/>
</svg>
