<svg width="42" height="42" viewBox="0 0 42 42" fill="none" xmlns="http://www.w3.org/2000/svg">
<g clip-path="url(#clip0_2145_1369)">
<path d="M21.0002 41.9999C18.307 41.9999 15.7677 40.8169 14.0317 38.7554C13.8655 38.5577 13.6485 38.4667 13.3737 38.4842C10.6997 38.7064 8.05545 37.7544 6.15145 35.8504C4.24745 33.9464 3.2867 31.3144 3.5177 28.6282C3.54045 28.3709 3.44245 28.1364 3.24645 27.9719C1.1832 26.2342 0.00195312 23.6932 0.00195312 21.0017C0.00195312 18.3102 1.18495 15.7692 3.24645 14.0332C3.4442 13.8669 3.5422 13.6324 3.51945 13.3752C3.28845 10.6889 4.2492 8.05692 6.1532 6.15292C8.05545 4.25067 10.6752 3.28642 13.3755 3.51917C13.6292 3.54017 13.8672 3.44567 14.0335 3.24792C15.7695 1.18467 18.3087 0.00341797 21.002 0.00341797C23.6952 0.00341797 26.2345 1.18642 27.9705 3.24792C28.1385 3.44567 28.3555 3.53667 28.6285 3.51917C31.2902 3.28467 33.9467 4.24892 35.8507 6.15292C37.7547 8.05692 38.7155 10.6889 38.4845 13.3752C38.4617 13.6324 38.5597 13.8669 38.7557 14.0314C40.819 15.7692 42.0002 18.3102 42.0002 21.0017C42.0002 23.6932 40.8172 26.2342 38.7557 27.9702C38.558 28.1364 38.46 28.3709 38.4827 28.6282C38.7137 31.3144 37.753 33.9464 35.849 35.8504C33.9467 37.7527 31.3305 38.7204 28.6267 38.4842C28.3747 38.4702 28.135 38.5594 27.9687 38.7554C26.2327 40.8187 23.6935 41.9999 21.0002 41.9999ZM13.4507 36.7289C14.1945 36.7289 14.884 37.0492 15.3722 37.6284C16.774 39.2944 18.8267 40.2499 21.002 40.2499C23.1772 40.2499 25.23 39.2944 26.6317 37.6284C27.1672 36.9914 27.9565 36.6589 28.7807 36.7394C30.9525 36.9232 33.077 36.1497 34.6152 34.6114C36.1535 33.0732 36.9287 30.9469 36.7432 28.7752C36.6732 27.9457 36.997 27.1652 37.634 26.6297C39.2982 25.2262 40.2537 23.1734 40.2537 20.9999C40.2537 18.8264 39.2982 16.7719 37.6322 15.3684C36.997 14.8347 36.6732 14.0524 36.7432 13.2229C36.9287 11.0512 36.1535 8.92492 34.6152 7.38667C33.0752 5.84842 30.935 5.07142 28.7807 5.25867C27.9407 5.32867 27.169 5.00667 26.6317 4.36967C25.23 2.70367 23.1772 1.74817 21.002 1.74817C18.8267 1.74817 16.774 2.70367 15.3722 4.36967C14.835 5.00667 14.0387 5.32692 13.2232 5.25867C11.048 5.07142 8.92695 5.84842 7.3887 7.38667C5.85045 8.92492 5.0752 11.0512 5.2607 13.2229C5.3307 14.0524 5.00695 14.8329 4.36995 15.3684C2.7057 16.7719 1.7502 18.8247 1.7502 20.9982C1.7502 23.1717 2.7057 25.2262 4.3717 26.6297C5.00695 27.1634 5.3307 27.9457 5.2607 28.7752C5.0752 30.9469 5.85045 33.0732 7.3887 34.6114C8.92695 36.1497 11.062 36.9179 13.2232 36.7394C13.3002 36.7324 13.3755 36.7289 13.4507 36.7289ZM15.7502 13.9999C14.7842 13.9999 14.0002 14.7839 14.0002 15.7499C14.0002 16.7159 14.7842 17.4999 15.7502 17.4999C16.7162 17.4999 17.5002 16.7159 17.5002 15.7499C17.5002 14.7839 16.7162 13.9999 15.7502 13.9999ZM26.2502 24.4999C25.2842 24.4999 24.5002 25.2839 24.5002 26.2499C24.5002 27.2159 25.2842 27.9999 26.2502 27.9999C27.2162 27.9999 28.0002 27.2159 28.0002 26.2499C28.0002 25.2839 27.2162 24.4999 26.2502 24.4999ZM17.3532 28.4847L26.1032 15.3597C26.371 14.9572 26.2625 14.4147 25.86 14.1469C25.461 13.8809 24.9167 13.9877 24.6472 14.3902L15.8972 27.5152C15.6295 27.9177 15.738 28.4602 16.1405 28.7279C16.2892 28.8277 16.459 28.8749 16.6252 28.8749C16.907 28.8749 17.1835 28.7384 17.3532 28.4847Z" fill="#A9997A"/>
</g>
<defs>
<clipPath id="clip0_2145_1369">
<rect width="42" height="42" fill="white"/>
</clipPath>
</defs>
</svg>
