<svg width="42" height="42" viewBox="0 0 42 42" fill="none" xmlns="http://www.w3.org/2000/svg">
<path d="M42 18.375C42 14.0332 38.4668 10.5 34.125 10.5H29.75V6.125C29.75 3.7135 27.7882 1.75 25.375 1.75H4.375C1.96175 1.75 0 3.7135 0 6.125V33.25H3.815C3.612 33.81 3.5 34.3963 3.5 35C3.5 37.8945 5.8555 40.25 8.75 40.25C11.6445 40.25 14 37.8945 14 35C14 34.3963 13.888 33.81 13.685 33.25H28.3133C28.1103 33.81 27.9982 34.3963 27.9982 35C27.9982 37.8945 30.3538 40.25 33.2483 40.25C36.1427 40.25 38.4983 37.8945 38.4983 35C38.4983 34.3963 38.3862 33.81 38.1833 33.25H41.9983L42 18.375ZM34.125 12.25C37.5025 12.25 40.25 14.9975 40.25 18.375V21H29.75V12.25H34.125ZM12.25 35C12.25 36.9302 10.6803 38.5 8.75 38.5C6.81975 38.5 5.25 36.9302 5.25 35C5.25 34.3787 5.45825 33.7907 5.782 33.25H11.718C12.0417 33.7907 12.25 34.3787 12.25 35ZM28 31.5H1.75V6.125C1.75 4.67775 2.92775 3.5 4.375 3.5H25.375C26.8223 3.5 28 4.67775 28 6.125V31.5ZM36.75 35C36.75 36.9302 35.1802 38.5 33.25 38.5C31.3197 38.5 29.75 36.9302 29.75 35C29.75 34.3787 29.9583 33.7907 30.282 33.25H36.218C36.5417 33.7907 36.75 34.3787 36.75 35ZM29.75 31.5V22.75H40.25V31.5H29.75ZM23.0125 11.6392L24.2498 12.8765L15.1462 21.9818C14.6335 22.4928 13.9615 22.75 13.2878 22.75C12.614 22.75 11.9438 22.4945 11.431 21.9818L5.495 16.4185L6.692 15.1427L12.6473 20.7253C13.006 21.084 13.5608 21.0875 13.9073 20.7445L23.0125 11.6392Z" fill="#A9997A"/>
</svg>
