<svg width="42" height="42" viewBox="0 0 42 42" fill="none" xmlns="http://www.w3.org/2000/svg">
<g clip-path="url(#clip0_2145_1401)">
<path d="M33.2501 21C33.2501 21.966 32.4661 22.75 31.5001 22.75C30.5341 22.75 29.7501 21.966 29.7501 21C29.7501 20.034 30.5341 19.25 31.5001 19.25C32.4661 19.25 33.2501 20.034 33.2501 21ZM42.0001 21.875V27.125C42.0001 28.5723 40.8224 29.75 39.3751 29.75H39.0024C37.5096 32.9805 34.8216 35.4865 31.5001 36.7448V37.625C31.5001 40.0382 29.5366 42 27.1251 42C25.0111 42 23.2454 40.495 22.8376 38.5H17.4109C17.0049 40.495 15.2374 42 13.1234 42C10.7119 42 8.74836 40.0382 8.74836 37.625V36.7465C2.95411 34.559 -0.587889 28.8208 0.080611 22.5697C0.315111 20.3857 1.11136 18.3558 2.31886 16.6058C0.885611 15.6415 0.000111028 14.0175 0.000111028 12.25C0.000111028 9.3555 2.35561 7 5.25011 7C5.73311 7 6.12511 7.392 6.12511 7.875C6.12511 8.358 5.73311 8.75 5.25011 8.75C3.31986 8.75 1.75011 10.3197 1.75011 12.25C1.75011 13.475 2.38711 14.5967 3.40911 15.2285C6.00961 12.3375 9.84736 10.5 14.0229 10.5H26.4794C27.0796 8.25125 28.7999 6.46975 31.3986 5.43725C32.2124 5.11525 33.1311 5.215 33.8521 5.705C34.5714 6.19325 35.0019 7.00525 35.0019 7.87675V13.3438C36.9636 14.8715 38.4914 16.9382 39.3716 19.2482H39.3769C40.4321 19.2482 42.0019 19.9465 42.0019 21.8732L42.0001 21.875ZM40.2501 21.875C40.2501 21.1733 39.7724 21.0105 39.3681 21H38.7504C38.3724 21 38.0364 20.755 37.9174 20.3962C37.1526 18.0477 35.6214 15.9512 33.6106 14.49C33.3831 14.3255 33.2484 14.063 33.2484 13.783V7.8785C33.2484 7.58275 33.1084 7.32025 32.8651 7.154C32.6184 6.986 32.3156 6.958 32.0409 7.06475C30.4256 7.70525 28.4219 9.002 28.0474 11.529C27.9809 11.9682 27.6134 12.2762 27.1549 12.2762L14.0211 12.25C7.81036 12.25 2.45011 16.8647 1.81836 22.7553C1.21636 28.3903 4.53611 33.5457 9.89461 35.294C10.2551 35.4112 10.4984 35.7472 10.4984 36.127V37.625C10.4984 39.0723 11.6761 40.25 13.1234 40.25C14.5706 40.25 15.7484 39.0723 15.7484 37.625C15.7484 37.142 16.1404 36.75 16.6234 36.75H23.6234C24.1064 36.75 24.4984 37.142 24.4984 37.625C24.4984 39.0723 25.6761 40.25 27.1234 40.25C28.5706 40.25 29.7484 39.0723 29.7484 37.625V36.127C29.7484 35.7472 29.9916 35.413 30.3521 35.294C33.6509 34.2195 36.2986 31.7573 37.6181 28.5443C37.7529 28.2153 38.0731 28 38.4266 28H39.3734C39.8564 28 40.2484 27.6063 40.2484 27.125L40.2501 21.875ZM11.3751 7.875C11.8581 7.875 12.2501 7.483 12.2501 7C12.2501 4.1055 14.6056 1.75 17.5001 1.75C20.3946 1.75 22.7501 4.1055 22.7501 7C22.7501 7.483 23.1421 7.875 23.6251 7.875C24.1081 7.875 24.5001 7.483 24.5001 7C24.5001 3.1395 21.3606 0 17.5001 0C13.6396 0 10.5001 3.1395 10.5001 7C10.5001 7.483 10.8921 7.875 11.3751 7.875Z" fill="#A9997A"/>
</g>
<defs>
<clipPath id="clip0_2145_1401">
<rect width="42" height="42" fill="white"/>
</clipPath>
</defs>
</svg>
