<svg width="110" height="100" viewBox="0 0 110 100" fill="none" xmlns="http://www.w3.org/2000/svg">
<path d="M12.6299 17.6812V81.9731H8.79883V17.6812H12.6299Z" stroke="black"/>
<path d="M20.7197 22.2273L18.0117 24.9363L10.7139 17.6384L10.3604 17.9919L3.41504 24.9363L0.707031 22.2273L9.35938 13.5759L10.7139 12.2214L20.7197 22.2273Z" stroke="black"/>
<path d="M20.7197 77.4265L12.0684 86.0789L10.7139 87.4333L0.707031 77.4265L3.41602 74.7185L10.7139 82.0164L18.0117 74.7185L20.7197 77.4265Z" stroke="black"/>
<path d="M70.7549 50.4182V96.1057H66.9238V50.4182H70.7549Z" stroke="black"/>
<path d="M104.403 48.0027V51.8337H83.7432V48.0027H104.403ZM74.8623 48.0027V51.8337H62.2598V48.0027H74.8623ZM52.1709 48.0027V51.8337H33.2734V48.0027H52.1709Z" stroke="black"/>
<path d="M87.8311 0.5V4.33105H34.1494V95.6084H105.404V4.33105H98.4932V0.5H109.235V99.4404H30.3184V0.5H87.8311Z" stroke="black"/>
</svg>
