<svg width="102" height="100" viewBox="0 0 102 100" fill="none" xmlns="http://www.w3.org/2000/svg">
<path d="M46.7178 0.5C58.5463 0.500026 70.3739 5.01251 79.3984 14.0371C79.6919 14.3306 80.1023 14.7626 80.6318 15.335C80.9514 15.6804 81.2388 16.0001 81.4961 16.292L78.96 18.4619C78.6774 18.1373 78.4207 17.8477 78.1875 17.5957C77.9308 17.3183 77.5433 16.9203 77.0293 16.4062C68.6594 8.03644 57.6876 3.85063 46.7178 3.85059C35.7479 3.85059 24.7761 8.03639 16.4062 16.4062C8.0364 24.7762 3.85061 35.7478 3.85059 46.7178C3.85059 57.5329 7.92143 68.3471 16.0566 76.6709L13.6855 79.042C4.8956 70.0635 0.500007 58.3916 0.5 46.7178C0.5 34.8891 5.01244 23.0618 14.0371 14.0371C23.0618 5.01248 34.8892 0.5 46.7178 0.5Z" stroke="black"/>
<path d="M24.4102 74.7793V88.3672H10.8223V74.7793H24.4102ZM14.1729 85.0156H21.0586V78.1299H14.1729V85.0156Z" stroke="black"/>
<path d="M83.7988 16.4893V30.0771H70.2109V16.4893H83.7988ZM73.5615 26.7256H80.4473V19.8398H73.5615V26.7256Z" stroke="black"/>
<path d="M64.8135 65.5203L49.1016 98.3416L29.7109 25.741L64.8135 65.5203Z" stroke="black"/>
<path d="M100.556 51.957L65.6152 64.9199L30.3799 24.9893L100.556 51.957Z" stroke="black"/>
</svg>
