<svg width="24" height="24" viewBox="0 0 24 24" fill="none" xmlns="http://www.w3.org/2000/svg">
<path d="M23.9249 23.236L18.9289 15.186C19.7729 14.713 20.5799 14.15 21.3309 13.491C21.5379 13.308 21.5589 12.992 21.3769 12.785C21.1939 12.577 20.8779 12.557 20.6709 12.739C19.9619 13.362 19.1999 13.892 18.4019 14.336L14.9259 8.736L14.9179 8.728C15.5869 8.013 16.0009 7.055 16.0009 6C16.0009 3.964 14.4709 2.282 12.5009 2.035V0.5C12.5009 0.224 12.2769 0 12.0009 0C11.7249 0 11.5009 0.224 11.5009 0.5V2.035C9.53089 2.282 8.00089 3.964 8.00089 6C8.00089 7.055 8.41389 8.013 9.08389 8.728L9.07589 8.736L5.59989 14.336C4.80189 13.892 4.03989 13.362 3.33089 12.739C3.12489 12.557 2.80789 12.577 2.62489 12.785C2.44289 12.993 2.46389 13.308 2.67089 13.491C3.42189 14.15 4.22889 14.713 5.07289 15.186L0.0748924 23.236C-0.0711076 23.47 0.0018924 23.779 0.235892 23.924C0.317892 23.975 0.408892 23.999 0.499892 23.999C0.666892 23.999 0.829893 23.915 0.924893 23.763L5.96189 15.648C7.86789 16.544 9.93389 16.993 11.9999 16.993C14.0659 16.993 16.1319 16.544 18.0379 15.648L23.0749 23.764C23.1699 23.916 23.3329 24 23.4999 24C23.5909 24 23.6819 23.976 23.7639 23.925C23.9979 23.779 24.0709 23.47 23.9249 23.236ZM11.9999 3C13.6539 3 14.9999 4.346 14.9999 6C14.9999 7.654 13.6539 9 11.9999 9C10.3459 9 8.99989 7.654 8.99989 6C8.99989 4.346 10.3459 3 11.9999 3ZM6.49389 14.791L9.85689 9.372C10.4769 9.767 11.2109 10 11.9999 10C12.7889 10 13.5219 9.768 14.1429 9.372L17.5059 14.791C14.0229 16.392 9.97689 16.392 6.49389 14.791Z" fill="#FB471E"/>
</svg>
