<svg width="88" height="124" viewBox="0 0 88 124" fill="none" xmlns="http://www.w3.org/2000/svg">
<path d="M74.5856 30.2149L62.0982 46.9735L61.1538 46.2698L73.6412 29.5112L74.5856 30.2149Z" stroke="black"/>
<path d="M86.5277 18.6525L77.3224 31.0063L72.1001 27.115L81.3053 14.7612L86.5277 18.6525Z" stroke="black"/>
<path d="M57.4532 43.0001L4.85354 92.2389L8.60408 83.343L56.8663 38.9838L57.4532 43.0001Z" stroke="black"/>
<path d="M41.6012 107.929L34.1491 114.068L66.2885 49.5834L70.3027 48.9969L41.6012 107.929Z" stroke="black"/>
<path d="M58.1542 31.8123C61.9925 26.6612 69.2803 25.5971 74.4315 29.4354C79.5823 33.2737 80.6466 40.5607 76.8086 45.7117L76.8084 45.7127C72.9701 50.8635 65.6822 51.9278 60.5311 48.0896C55.3799 44.2513 54.3159 36.9635 58.1542 31.8123ZM72.2292 32.3909C68.7104 29.7689 63.7319 30.4958 61.1097 34.0146C58.4877 37.5335 59.2145 42.512 62.7334 45.1341C66.2524 47.756 71.2311 47.0283 73.8531 43.5094C76.4747 39.9907 75.7477 35.0129 72.2292 32.3909Z" stroke="black"/>
<path d="M59.6963 88.6547L59.537 88.8685L21.7417 60.7062L21.901 60.4924L59.6963 88.6547Z" stroke="black"/>
<path d="M59.2134 44.5835C60.2532 43.1881 62.2274 42.9004 63.623 43.9401C65.0184 44.9799 65.3072 46.9535 64.2675 48.349C63.2277 49.7445 61.2532 50.0331 59.8577 48.9933C58.4623 47.9534 58.1737 45.979 59.2134 44.5835Z" stroke="black"/>
<path d="M60.8722 45.8175C61.23 45.3377 61.9093 45.2387 62.3894 45.5962C62.8695 45.954 62.9692 46.6334 62.6117 47.1137C62.2538 47.5939 61.5736 47.6936 61.0933 47.3357C60.6134 46.9779 60.5145 46.2986 60.872 45.8185L60.8722 45.8175Z" stroke="black"/>
<path d="M48.6897 75.452L43.737 82.0987L42.0557 80.8459L47.0084 74.1992L48.6897 75.452Z" stroke="black"/>
</svg>
