<svg width="42" height="42" viewBox="0 0 42 42" fill="none" xmlns="http://www.w3.org/2000/svg">
<path d="M41.8682 40.663L33.1254 26.5755C34.6024 25.7477 36.0146 24.7625 37.3288 23.6093C37.6911 23.289 37.7278 22.736 37.4093 22.3737C37.0891 22.0098 36.5361 21.9748 36.1739 22.2933C34.9331 23.3835 33.5997 24.311 32.2032 25.088L26.1204 15.288L26.1064 15.274C27.2771 14.0227 28.0016 12.3462 28.0016 10.5C28.0016 6.937 25.3241 3.9935 21.8767 3.56125V0.875C21.8767 0.392 21.4847 0 21.0018 0C20.5188 0 20.1268 0.392 20.1268 0.875V3.56125C16.6794 3.9935 14.0019 6.937 14.0019 10.5C14.0019 12.3462 14.7247 14.0227 15.8971 15.274L15.8831 15.288L9.80028 25.088C8.40382 24.311 7.07035 23.3835 5.82964 22.2933C5.46914 21.9748 4.91441 22.0098 4.59417 22.3737C4.27567 22.7377 4.31242 23.289 4.67466 23.6093C5.98888 24.7625 7.40109 25.7477 8.87806 26.5755L0.131779 40.663C-0.123714 41.0725 0.00403258 41.6133 0.413522 41.867C0.557019 41.9562 0.716265 41.9983 0.875511 41.9983C1.16775 41.9983 1.453 41.8512 1.61924 41.5853L10.4338 27.384C13.7692 28.952 17.3846 29.7378 21 29.7378C24.6154 29.7378 28.2308 28.952 31.5662 27.384L40.3808 41.587C40.547 41.853 40.8322 42 41.1245 42C41.2837 42 41.443 41.958 41.5865 41.8687C41.996 41.6132 42.1237 41.0725 41.8682 40.663ZM21 5.25C23.8944 5.25 26.2499 7.6055 26.2499 10.5C26.2499 13.3945 23.8944 15.75 21 15.75C18.1056 15.75 15.7501 13.3945 15.7501 10.5C15.7501 7.6055 18.1056 5.25 21 5.25ZM11.3647 25.8843L17.2498 16.401C18.3348 17.0922 19.6193 17.5 21 17.5C22.3807 17.5 23.6634 17.094 24.7502 16.401L30.6353 25.8843C24.5402 28.686 17.4598 28.686 11.3647 25.8843Z" fill="#6D9912"/>
</svg>
