<svg width="42" height="42" viewBox="0 0 42 42" fill="none" xmlns="http://www.w3.org/2000/svg">
<path d="M40.3288 14.0254L36.75 11.2095V3.45061H35V9.83053L23.7038 0.939641C22.1112 -0.313214 19.8853 -0.313214 18.2962 0.939641L1.67125 14.0254C0.609 14.8612 0 16.1158 0 17.4686V42H14V25.3537C14 23.9046 15.1777 22.7253 16.625 22.7253H25.375C26.8223 22.7253 28 23.9046 28 25.3537V42H42V17.4686C42 16.1158 41.391 14.8595 40.3288 14.0254ZM40.25 40.2478H29.75V25.3537C29.75 22.9391 27.7882 20.9731 25.375 20.9731H16.625C14.2118 20.9731 12.25 22.9391 12.25 25.3537V40.2478H1.75V17.4686C1.75 16.6573 2.11575 15.9038 2.751 15.4027L19.376 2.31691C20.3333 1.56519 21.6667 1.56519 22.6222 2.31691L39.2472 15.4027C39.8825 15.9038 40.2483 16.6573 40.2483 17.4686L40.25 40.2478Z" fill="#6D9912"/>
</svg>
