<svg width="24" height="24" viewBox="0 0 24 24" fill="none" xmlns="http://www.w3.org/2000/svg">
<path d="M23.045 8.01452L21 6.40546V1.97178H20V5.61745L13.545 0.536938C12.635 -0.178979 11.363 -0.178979 10.455 0.536938L0.955 8.01452C0.348 8.49213 0 9.20905 0 9.98204V24H8V14.4878C8 13.6598 8.673 12.9859 9.5 12.9859H14.5C15.327 12.9859 16 13.6598 16 14.4878V24H24V9.98204C24 9.20905 23.652 8.49113 23.045 8.01452ZM23 22.9987H17V14.4878C17 13.108 15.879 11.9846 14.5 11.9846H9.5C8.121 11.9846 7 13.108 7 14.4878V22.9987H1V9.98204C1 9.51845 1.209 9.08789 1.572 8.80153L11.072 1.32395C11.619 0.894396 12.381 0.894396 12.927 1.32395L22.427 8.80153C22.79 9.08789 22.999 9.51845 22.999 9.98204L23 22.9987Z" fill="#FB471E"/>
</svg>
