<svg width="42" height="42" viewBox="0 0 42 42" fill="none" xmlns="http://www.w3.org/2000/svg">
<g clip-path="url(#clip0_2108_4917)">
<path d="M41.8526 29.505L40.3441 23.807C39.6336 21.1243 37.1976 19.25 34.4221 19.25H7.57712C4.80162 19.25 2.36562 21.1243 1.65687 23.807L0.148375 29.505C-0.201625 30.828 0.0748748 32.2088 0.911375 33.292C1.74612 34.377 3.00962 35 4.37812 35H20.1264V40.25H11.3764C10.8934 40.25 10.5014 40.642 10.5014 41.125C10.5014 41.608 10.8934 42 11.3764 42H30.6264C31.1094 42 31.5014 41.608 31.5014 41.125C31.5014 40.642 31.1094 40.25 30.6264 40.25H21.8764V35H37.6246C38.9931 35 40.2566 34.3787 41.0914 33.292C41.9261 32.2088 42.2026 30.828 41.8526 29.505ZM38.6519 24.255L39.1804 26.25H28.7731L28.1169 21H34.4239C36.4066 21 38.1444 22.3387 38.6519 24.255ZM14.1151 33.25L14.7714 28H27.2261L27.8824 33.25H14.1151ZM14.9901 26.25L15.6464 21H26.3511L27.0074 26.25H14.9901ZM3.34737 24.255C3.85487 22.337 5.59263 21 7.57712 21H13.8841L13.2279 26.25H2.81887L3.34737 24.255ZM2.29562 32.2262C1.79512 31.5753 1.62887 30.7457 1.83887 29.953L2.35512 28H13.0074L12.3511 33.25H4.37637C3.55562 33.25 2.79612 32.8773 2.29562 32.2262ZM39.7019 32.2262C39.2014 32.8773 38.4436 33.25 37.6229 33.25H29.6464L28.9901 28H39.6424L40.1604 29.953C40.3704 30.7457 40.2024 31.5753 39.7019 32.2262ZM6.99962 14.875C6.99962 14.392 7.39162 14 7.87463 14H12.2496C12.2496 11.9035 13.0214 10.003 14.2551 8.4945L10.7551 4.9945C10.4139 4.65325 10.4139 4.0985 10.7551 3.75725C11.0964 3.416 11.6511 3.416 11.9924 3.75725L15.4924 7.25725C16.7856 6.1985 18.3729 5.516 20.1246 5.33925V0.875C20.1246 0.392 20.5166 0 20.9996 0C21.4826 0 21.8746 0.392 21.8746 0.875V5.33925C23.6264 5.516 25.2136 6.1985 26.5051 7.25725L30.0051 3.75725C30.3464 3.416 30.9011 3.416 31.2424 3.75725C31.5836 4.0985 31.5836 4.65325 31.2424 4.9945L27.7424 8.4945C28.9761 10.003 29.7479 11.9035 29.7479 14H34.1229C34.6059 14 34.9979 14.392 34.9979 14.875C34.9979 15.358 34.6059 15.75 34.1229 15.75H29.7479C28.6121 15.75 27.9979 14.847 27.9979 14C27.9979 10.1395 24.8584 7 20.9979 7C17.1374 7 13.9979 10.1395 13.9979 14C13.9979 14.847 13.3836 15.75 12.2479 15.75H7.87288C7.38987 15.75 6.99962 15.358 6.99962 14.875Z" fill="#6D9912"/>
</g>
<defs>
<clipPath id="clip0_2108_4917">
<rect width="42" height="42" fill="white"/>
</clipPath>
</defs>
</svg>
