<svg width="50" height="42" viewBox="0 0 50 42" fill="none" xmlns="http://www.w3.org/2000/svg">
<path d="M45.9887 2.64159C45.2569 2.66533 44.0479 2.71497 43.1479 3.43795C42.5639 3.90843 42.1957 4.55372 42.0321 5.39325H31.7599C31.594 3.5955 30.9781 2.27039 29.885 1.36828C28.7714 0.448898 27.2306 0.012949 25.042 0C22.9081 0.0410051 21.315 0.405734 20.1832 1.31432C19.0605 2.21859 18.4219 3.56097 18.2424 5.39325H7.97246C7.62702 3.57823 6.31345 2.65454 4.05902 2.64159C3.20679 2.6308 2.11367 2.71497 1.21599 3.43795C0.406937 4.08756 0.00922965 5.07384 0.000139205 6.45075C-0.0157691 8.99306 1.33189 10.2901 4.00675 10.3052H4.07039C4.85898 10.3052 5.97483 10.2146 6.84979 9.50886C7.43385 9.03838 7.80201 8.39309 7.96564 7.55141H16.922C12.6472 10.0462 9.83146 14.3842 9.43375 19.2508C9.21558 21.9485 9.05195 26.2238 9.02922 29.7201C6.90206 29.8517 5.25214 30.2855 5.17033 30.3071C4.79535 30.4063 4.50218 30.6804 4.39082 31.0344C4.36355 31.1207 3.72722 33.1494 3.72722 35.8406C3.72722 38.5513 4.36355 40.5627 4.39082 40.649C4.50218 41.0008 4.79535 41.2727 5.16806 41.372C5.26351 41.3979 7.53157 41.9978 10.2019 41.9978C12.8722 41.9978 15.1403 41.3979 15.2357 41.372C15.6084 41.2727 15.9016 40.9986 16.0152 40.6447C16.0425 40.5583 16.6788 38.5297 16.6788 35.8406C16.6788 33.13 16.0425 31.1164 16.0152 31.0322C15.9039 30.6804 15.6084 30.4085 15.238 30.3092C15.1562 30.2876 13.4699 29.8431 11.3018 29.7179C11.3246 26.2713 11.4859 22.0694 11.6995 19.4191C12.0518 15.0856 14.6403 11.2419 18.5378 9.15277C19.5514 12.4699 22.574 12.9339 24.9557 12.9468H25.0511C27.1851 12.9468 28.6987 12.5281 29.8123 11.6325C30.5827 11.0131 31.1213 10.1887 31.444 9.14413C35.3529 11.2332 37.9459 15.0748 38.2982 19.4213C38.5118 22.0564 38.6709 26.2584 38.6936 29.7179C36.5278 29.8431 34.8393 30.2876 34.7575 30.3092C34.3848 30.4085 34.0893 30.6826 33.978 31.0365C33.9507 31.1229 33.3144 33.1515 33.3144 35.8428C33.3144 38.5534 33.9507 40.5648 33.978 40.6511C34.0916 41.0029 34.3848 41.2749 34.7575 41.3741C34.8529 41.4 37.1187 42 39.7913 42C42.4639 42 44.7319 41.4 44.8274 41.3741C45.2001 41.2749 45.4955 41.0008 45.6069 40.6468C45.6342 40.5605 46.2705 38.5318 46.2705 35.8428C46.2705 33.1321 45.6342 31.1185 45.6069 31.0344C45.4933 30.6826 45.2001 30.4107 44.8274 30.3114C44.7456 30.2898 43.0979 29.856 40.9685 29.7244C40.9458 26.213 40.7844 21.9399 40.5663 19.2551C40.1708 14.382 37.3596 10.0484 33.0825 7.55357H42.0298C42.1866 8.37583 42.5411 9.01033 43.1093 9.47865C43.9956 10.2103 45.1501 10.3009 45.9432 10.3052H45.991C48.6317 10.3052 49.9817 9.02544 49.9999 6.49823C50.0158 3.95591 48.6636 2.65886 45.9887 2.64159ZM14.4085 35.8406C14.4085 37.3966 14.1631 38.7174 13.9949 39.4361C13.2063 39.598 11.7677 39.8397 10.2042 39.8397C8.64061 39.8397 7.1975 39.598 6.41345 39.4361C6.24528 38.7196 6.00211 37.4074 6.00211 35.8406C6.00211 34.2846 6.24755 32.9638 6.41572 32.2429C7.20432 32.0811 8.64288 31.8415 10.2064 31.8415C11.77 31.8415 13.2131 32.0811 13.9994 32.2429C14.1676 32.9595 14.4085 34.2716 14.4085 35.8406ZM44.0002 35.8406C44.0002 37.3966 43.7547 38.7174 43.5866 39.4361C42.798 39.598 41.3594 39.8397 39.7936 39.8397C38.2277 39.8397 36.7892 39.598 36.0028 39.4361C35.8347 38.7196 35.5892 37.4096 35.5892 35.8406C35.5892 34.2846 35.8347 32.9638 36.0028 32.2429C36.7914 32.0811 38.2277 31.8415 39.7936 31.8415C41.3594 31.8415 42.8002 32.0811 43.5866 32.2429C43.7547 32.9595 44.0002 34.2716 44.0002 35.8406ZM5.37941 7.86219C5.14079 8.05426 4.6749 8.14275 4.02039 8.14706C2.7 8.13843 2.26366 7.89456 2.27048 6.4637C2.27502 5.76445 2.41365 5.30045 2.68182 5.08463C2.9159 4.89687 3.35906 4.79975 3.99994 4.79975H4.04084C5.36123 4.80839 5.79757 5.05226 5.79075 6.48312C5.78621 7.18236 5.64758 7.64637 5.37941 7.86219ZM29.535 6.50039C29.5236 8.20965 29.135 9.34916 28.3464 9.98582C27.651 10.5426 26.5124 10.7498 24.9716 10.7887C22.099 10.7714 20.44 10.057 20.4627 6.44643C20.4741 4.73717 20.8627 3.59766 21.6536 2.961C22.3331 2.41498 23.3762 2.15816 24.9375 2.15816H25.0284C26.6442 2.1668 27.7146 2.43441 28.3941 2.99553C29.1737 3.63866 29.5464 4.7868 29.535 6.50039ZM46.0114 8.14706H45.9546C45.2887 8.14275 44.8319 8.04347 44.5979 7.84924C44.2683 7.57947 44.2024 6.94712 44.207 6.4637C44.2115 5.76445 44.3479 5.30045 44.6183 5.08463C44.8547 4.89687 45.2956 4.79975 45.9364 4.79975H45.9773C47.2977 4.80839 47.7341 5.05226 47.7272 6.48312C47.7159 7.88161 47.2659 8.14706 46.0114 8.14706Z" fill="#6D9912"/>
</svg>
