<svg width="24" height="20" viewBox="0 0 24 20" fill="none" xmlns="http://www.w3.org/2000/svg">
<path d="M19.5 0H4.5C2.019 0 0 2.019 0 4.5V19.5C0 19.776 0.224 20 0.5 20C0.776 20 1 19.776 1 19.5V17H23V19.5C23 19.776 23.224 20 23.5 20C23.776 20 24 19.776 24 19.5V4.5C24 2.019 21.981 0 19.5 0ZM4.5 1H19.5C21.43 1 23 2.57 23 4.5V12H21V10.5C21 8.57 19.43 7 17.5 7H15C13.728 7 12.613 7.682 12 8.699C11.387 7.682 10.272 7 9 7H6.5C4.57 7 3 8.57 3 10.5V12H1V4.5C1 2.57 2.57 1 4.5 1ZM12.5 12V10.5C12.5 9.122 13.621 8 15 8H17.5C18.879 8 20 9.122 20 10.5V12H12.5ZM4 12V10.5C4 9.122 5.122 8 6.5 8H9C10.378 8 11.5 9.122 11.5 10.5V12H4ZM1 16V13H23V16H1Z" fill="#FB471E"/>
</svg>
