<svg width="89" height="124" viewBox="0 0 89 124" fill="none" xmlns="http://www.w3.org/2000/svg">
<path d="M76.0981 30.853L74.3521 29.552L61.2672 47.1124L63.0133 48.4134L76.0981 30.853Z" fill="#D5BC8A"/>
<path d="M88.0401 19.291L82.0156 14.802L72.2128 27.9578L78.2373 32.4468L88.0401 19.291Z" fill="#938364"/>
<path fill-rule="evenodd" clip-rule="evenodd" d="M58.7989 43.9269L58.0379 38.7174L8.99949 83.7887L4.29321 94.9503L58.7989 43.9269Z" fill="#938364"/>
<path fill-rule="evenodd" clip-rule="evenodd" d="M66.7714 49.8674L71.9809 49.1067L42.8165 108.987L33.467 116.688L66.7714 49.8674Z" fill="#938364"/>
<path fill-rule="evenodd" clip-rule="evenodd" d="M75.5434 29.7746C80.9161 33.7779 82.0262 41.3788 78.0229 46.7514C74.0196 52.124 66.4186 53.2341 61.046 49.2308C55.6733 45.2275 54.5631 37.6265 58.5665 32.254C62.5698 26.8813 70.1708 25.7712 75.5434 29.7746ZM72.7435 33.5322C76.041 35.9892 76.7223 40.6541 74.2653 43.9515C71.8083 47.249 67.1433 47.9303 63.8458 45.4733C60.5483 43.0162 59.867 38.3513 62.3241 35.0538C64.7812 31.7564 69.4461 31.0752 72.7435 33.5322Z" fill="#A9997A"/>
<path d="M61.2081 89.2927L22.6113 60.5332L21.8545 61.5489L60.4513 90.3085L61.2081 89.2927Z" fill="#D5BC8A"/>
<path fill-rule="evenodd" clip-rule="evenodd" d="M64.7357 44.2793C66.3526 45.4841 66.6867 47.7716 65.4818 49.3885C64.277 51.0054 61.9896 51.3395 60.3726 50.1347C58.7556 48.9298 58.4216 46.6424 59.6264 45.0254C60.8312 43.4085 63.1187 43.0744 64.7357 44.2793Z" fill="#D5BC8A"/>
<path fill-rule="evenodd" clip-rule="evenodd" d="M63.501 45.9359C64.2027 46.4588 64.3477 47.4515 63.8249 48.1533C63.302 48.8549 62.3093 48.9999 61.6075 48.477C60.9059 47.9542 60.7609 46.9614 61.2838 46.2598C61.8066 45.558 62.7994 45.4131 63.501 45.9359Z" fill="#AAAAAA"/>
<path d="M50.2022 76.0901L47.7192 74.24L42.169 81.6886L44.6519 83.5387L50.2022 76.0901Z" fill="#D5BC8A"/>
</svg>
