<svg width="111" height="101" viewBox="0 0 111 101" fill="none" xmlns="http://www.w3.org/2000/svg">
<path d="M107.941 0.4104H32.855V100.35H107.941V0.4104Z" fill="#E9E9EA"/>
<path d="M13.7506 17.5916V82.8838H8.91943V17.5916H13.7506Z" fill="#938364"/>
<path d="M0.621094 22.6383L9.6269 13.6325L11.3348 11.9248L13.0427 13.6325L22.0485 22.6383L18.6327 26.0539L11.3348 18.7562L4.03668 26.0539L0.621094 22.6383Z" fill="#A9997A"/>
<path d="M4.03668 74.4219L11.3348 81.7198L18.6327 74.4219L22.0485 77.8377L13.0427 86.8433L11.3348 88.5509L9.6269 86.8433L0.621094 77.8377L4.03668 74.4219Z" fill="#A9997A"/>
<path d="M67.0449 97.0162V50.3286H71.8761V97.0162H67.0449Z" fill="#938364"/>
<path d="M33.3955 47.9131H53.2933V52.7442H33.3955V47.9131ZM62.3815 47.9131H75.9846V52.7442H62.3815V47.9131ZM83.8656 47.9131H105.525V52.7442H83.8656V47.9131Z" fill="#A9997A"/>
<path d="M32.8548 0.4104H88.9517V5.24154H35.2704V95.5193H105.525V5.24154H98.6138V0.4104H107.941H110.356V2.82597V97.9348V100.35H107.941H32.8548H30.4395V97.9348V2.82597V0.4104H32.8548Z" fill="#D5BC8A"/>
</svg>
