<svg width="24" height="20" viewBox="0 0 24 20" fill="none" xmlns="http://www.w3.org/2000/svg">
<path d="M22.0746 1.2579C21.7233 1.2692 21.143 1.29284 20.711 1.63712C20.4307 1.86116 20.2539 2.16844 20.1754 2.56821H15.2447C15.1651 1.71214 14.8695 1.08114 14.3448 0.65156C13.8103 0.213761 13.0707 0.00616618 12.0202 0C10.9959 0.0195262 10.2312 0.193207 9.68794 0.625867C9.14905 1.05647 8.84253 1.6957 8.75635 2.56821H3.82678C3.66097 1.70392 3.03046 1.26407 1.94833 1.2579C1.53926 1.25276 1.01456 1.29284 0.583673 1.63712C0.19533 1.94646 0.00443023 2.41611 6.68182e-05 3.07178C-0.00756916 4.28241 0.639307 4.90006 1.92324 4.90725H1.95379C2.33231 4.90725 2.86792 4.86409 3.2879 4.52803C3.56825 4.30399 3.74497 3.99671 3.82351 3.59591H8.12256C6.07067 4.78393 4.7191 6.8496 4.5282 9.16705C4.42348 10.4517 4.34494 12.4875 4.33403 14.1524C3.31299 14.2151 2.52103 14.4217 2.48176 14.4319C2.30177 14.4792 2.16105 14.6097 2.1076 14.7783C2.09451 14.8194 1.78907 15.7854 1.78907 17.067C1.78907 18.3577 2.09451 19.3156 2.1076 19.3567C2.16105 19.5242 2.30177 19.6537 2.48067 19.7009C2.52648 19.7133 3.61515 19.999 4.89691 19.999C6.17866 19.999 7.26733 19.7133 7.31315 19.7009C7.49205 19.6537 7.63277 19.5231 7.68731 19.3546C7.7004 19.3135 8.00584 18.3475 8.00584 17.067C8.00584 15.7762 7.7004 14.8173 7.68731 14.7772C7.63386 14.6097 7.49205 14.4802 7.31424 14.433C7.27497 14.4227 6.46556 14.211 5.42488 14.1514C5.43579 12.5101 5.51324 10.5092 5.61578 9.24721C5.78486 7.1836 7.02734 5.35327 8.89816 4.35846C9.38468 5.93803 10.8355 6.15898 11.9787 6.16515H12.0245C13.0489 6.16515 13.7754 5.96578 14.3099 5.53928C14.6797 5.24433 14.9382 4.85175 15.0931 4.35435C16.9694 5.34916 18.214 7.17846 18.3831 9.24824C18.4857 10.5031 18.562 12.504 18.5729 14.1514C17.5334 14.211 16.7229 14.4227 16.6836 14.433C16.5047 14.4802 16.3629 14.6108 16.3094 14.7793C16.2963 14.8204 15.9909 15.7864 15.9909 17.068C15.9909 18.3588 16.2963 19.3166 16.3094 19.3577C16.364 19.5252 16.5047 19.6547 16.6836 19.702C16.7294 19.7143 17.817 20 19.0998 20C20.3827 20 21.4713 19.7143 21.5172 19.702C21.6961 19.6547 21.8379 19.5242 21.8913 19.3556C21.9044 19.3145 22.2098 18.3485 22.2098 17.068C22.2098 15.7772 21.9044 14.8184 21.8913 14.7783C21.8368 14.6108 21.6961 14.4813 21.5172 14.434C21.4779 14.4237 20.687 14.2172 19.6649 14.1545C19.654 12.4824 19.5765 10.4476 19.4718 9.16911C19.282 6.84857 17.9326 4.78495 15.8796 3.59694H20.1743C20.2496 3.98849 20.4198 4.29063 20.6925 4.51364C21.1179 4.86203 21.6721 4.90519 22.0528 4.90725H22.0757C23.3432 4.90725 23.9912 4.29783 23.9999 3.09439C24.0076 1.88377 23.3585 1.26612 22.0746 1.2579ZM6.91608 17.067C6.91608 17.8079 6.79827 18.4369 6.71754 18.7791C6.33902 18.8562 5.64851 18.9713 4.898 18.9713C4.14749 18.9713 3.4548 18.8562 3.07846 18.7791C2.99773 18.4379 2.88101 17.8131 2.88101 17.067C2.88101 16.326 2.99882 15.697 3.07955 15.3538C3.45807 15.2767 4.14858 15.1626 4.89909 15.1626C5.6496 15.1626 6.34229 15.2767 6.71972 15.3538C6.80045 15.695 6.91608 16.3198 6.91608 17.067ZM21.1201 17.067C21.1201 17.8079 21.0023 18.4369 20.9215 18.7791C20.543 18.8562 19.8525 18.9713 19.1009 18.9713C18.3493 18.9713 17.6588 18.8562 17.2814 18.7791C17.2006 18.4379 17.0828 17.8141 17.0828 17.067C17.0828 16.326 17.2006 15.697 17.2814 15.3538C17.6599 15.2767 18.3493 15.1626 19.1009 15.1626C19.8525 15.1626 20.5441 15.2767 20.9215 15.3538C21.0023 15.695 21.1201 16.3198 21.1201 17.067ZM2.58212 3.7439C2.46758 3.83536 2.24395 3.8775 1.92979 3.87955C1.296 3.87544 1.08656 3.75931 1.08983 3.07795C1.09201 2.74498 1.15855 2.52402 1.28727 2.42125C1.39963 2.33184 1.61235 2.2856 1.91997 2.2856H1.9396C2.57339 2.28971 2.78283 2.40584 2.77956 3.0872C2.77738 3.42017 2.71084 3.64113 2.58212 3.7439ZM14.1768 3.09542C14.1713 3.90936 13.9848 4.45198 13.6063 4.75515C13.2725 5.0203 12.726 5.11896 11.9864 5.13745C10.6075 5.12923 9.8112 4.78907 9.82211 3.06973C9.82757 2.25579 10.0141 1.71317 10.3937 1.41C10.7199 1.14999 11.2206 1.0277 11.97 1.0277H12.0136C12.7892 1.03181 13.303 1.15924 13.6292 1.42644C14.0034 1.7327 14.1823 2.27943 14.1768 3.09542ZM22.0855 3.87955H22.0582C21.7386 3.8775 21.5193 3.83022 21.407 3.73773C21.2488 3.60927 21.2172 3.30815 21.2193 3.07795C21.2215 2.74498 21.287 2.52402 21.4168 2.42125C21.5302 2.33184 21.7419 2.2856 22.0495 2.2856H22.0691C22.7029 2.28971 22.9124 2.40584 22.9091 3.0872C22.9036 3.75315 22.6876 3.87955 22.0855 3.87955Z" fill="#FB471E"/>
</svg>
