<svg width="103" height="101" viewBox="0 0 103 101" fill="none" xmlns="http://www.w3.org/2000/svg">
<path d="M14.6249 80.408C5.50268 71.2857 0.941406 59.3296 0.941406 47.3738C0.941406 35.4179 5.50268 23.4617 14.6249 14.3395C23.7471 5.21736 35.7033 0.656006 47.6591 0.656006C59.6149 0.656006 71.5708 5.2173 80.693 14.3394C80.9934 14.6398 81.4092 15.0771 81.9404 15.6511C82.4071 16.1555 82.8099 16.6056 83.1474 17L79.8502 19.8212C79.4395 19.3414 79.0769 18.9315 78.7622 18.5914C78.5122 18.3213 78.1299 17.9289 77.6168 17.4158C69.3445 9.14345 58.5017 5.00701 47.659 5.00701C36.8163 5.00701 25.9735 9.14337 17.7012 17.4157C9.42884 25.6881 5.29241 36.531 5.29241 47.3739C5.29241 58.2167 9.42875 69.0594 17.7011 77.3319L14.6249 80.408Z" fill="#D5BC8A"/>
<path d="M13.4382 74.9353H23.6747H25.8502V77.1108V87.3474V89.5228H23.6747H13.4382H11.2627V87.3474V77.1108V74.9353H13.4382ZM21.4992 79.2863H15.6137V85.1719H21.4992V79.2863Z" fill="#D5BC8A"/>
<path d="M72.8278 16.6453H83.0644H85.2398V18.8208V29.0573V31.2328H83.0644H72.8278H70.6523V29.0573V18.8208V16.6453H72.8278ZM80.8889 20.9963H75.0033V26.8818H80.8889V20.9963Z" fill="#D5BC8A"/>
<path d="M66.4104 66.1636L66.295 66.2062L49.9086 100.436L29.6206 24.4722L66.4104 66.1636Z" fill="#A9997A"/>
<path d="M102.913 52.6221L66.4203 66.1605L66.4107 66.1642L29.6209 24.4728L29.6162 24.4548L29.7133 24.4922L102.913 52.6221Z" fill="#938364"/>
</svg>
