<svg width="24" height="22" viewBox="0 0 24 22" fill="none" xmlns="http://www.w3.org/2000/svg">
<path d="M23.5 16H23V11.691C23 6.87702 19.7 2.63302 14.967 1.33902C14.234 0.523023 13.182 -0.000976562 12 -0.000976562C10.818 -0.000976562 9.766 0.523023 9.033 1.33902C4.3 2.63302 1 6.87802 1 11.691V16H0.5C0.224 16 0 16.224 0 16.5C0 16.776 0.224 17 0.5 17H1.251C2.012 17.973 5.55 22 12 22C18.45 22 21.987 17.973 22.748 17H23.5C23.776 17 24 16.776 24 16.5C24 16.224 23.776 16 23.5 16ZM22 11.691V16H16V3.99202C16 3.52302 15.904 3.07802 15.754 2.66002C19.481 4.13402 22 7.69302 22 11.692V11.691ZM12 1.00002C13.654 1.00002 15 2.34302 15 3.99202V16H9V3.99202C9 2.34302 10.346 1.00002 12 1.00002ZM2 11.691C2 7.69302 4.519 4.13402 8.246 2.66002C8.096 3.07902 8 3.52302 8 3.99202V16H2V11.691ZM12 21C7.041 21 3.882 18.358 2.585 17H21.415C20.118 18.358 16.959 21 12 21Z" fill="#FB471E"/>
</svg>
