<svg width="52" height="52" viewBox="0 0 52 52" fill="none" xmlns="http://www.w3.org/2000/svg">
<g clip-path="url(#clip0_2153_199)">
<path d="M2.55664 18.7542H5.96648" stroke="#A9997A" stroke-miterlimit="10" stroke-linecap="round"/>
<path d="M2.55664 12.3606H5.96648" stroke="#A9997A" stroke-miterlimit="10" stroke-linecap="round"/>
<path d="M2.55664 26H5.96648" stroke="#A9997A" stroke-miterlimit="10" stroke-linecap="round"/>
<path d="M2.55664 39.6394H5.96648" stroke="#A9997A" stroke-miterlimit="10" stroke-linecap="round"/>
<path d="M2.55664 32.8198H5.96648" stroke="#A9997A" stroke-miterlimit="10" stroke-linecap="round"/>
<path d="M33.2451 46.0327V49.4426" stroke="#A9997A" stroke-miterlimit="10" stroke-linecap="round"/>
<path d="M39.6387 46.0327V49.4426" stroke="#A9997A" stroke-miterlimit="10" stroke-linecap="round"/>
<path d="M26 46.0327V49.4426" stroke="#A9997A" stroke-miterlimit="10" stroke-linecap="round"/>
<path d="M12.3604 46.0327V49.4426" stroke="#A9997A" stroke-miterlimit="10" stroke-linecap="round"/>
<path d="M19.1797 46.0327V49.4426" stroke="#A9997A" stroke-miterlimit="10" stroke-linecap="round"/>
<path d="M4.26172 51.5738V5.54102" stroke="#A9997A" stroke-linecap="round" stroke-linejoin="round"/>
<path d="M0.425781 47.7378H46.4586" stroke="#A9997A" stroke-linecap="round" stroke-linejoin="round"/>
<path d="M0.425781 4.68856L4.26185 0.42627L8.09791 4.68856" stroke="#A9997A" stroke-linecap="round" stroke-linejoin="round"/>
<path d="M47.3105 43.9016L51.5728 47.7377L47.3105 51.5737" stroke="#A9997A" stroke-linecap="round" stroke-linejoin="round"/>
<path d="M43.0487 18.328C43.5195 18.328 43.9012 17.9463 43.9012 17.4755C43.9012 17.0047 43.5195 16.623 43.0487 16.623C42.5779 16.623 42.1963 17.0047 42.1963 17.4755C42.1963 17.9463 42.5779 18.328 43.0487 18.328Z" fill="#A9997A"/>
<path d="M43.0489 20.1011V27.6581C43.0477 28.1224 42.8628 28.5673 42.5345 28.8956C42.2062 29.2239 41.7613 29.4088 41.2971 29.4099H24.3416C23.8774 29.4088 23.4325 29.2239 23.1042 28.8956C22.7759 28.5673 22.591 28.1224 22.5898 27.6581V10.7027C22.591 10.2385 22.7759 9.79355 23.1042 9.46526C23.4325 9.13698 23.8774 8.95205 24.3416 8.95093H41.2971C41.7613 8.95205 42.2062 9.13698 42.5345 9.46526C42.8628 9.79355 43.0477 10.2385 43.0489 10.7027V14.2063" stroke="#A9997A" stroke-linecap="round" stroke-linejoin="round"/>
</g>
<defs>
<clipPath id="clip0_2153_199">
<rect width="52" height="52" fill="white"/>
</clipPath>
</defs>
</svg>
