<svg width="62" height="54" viewBox="0 0 62 54" fill="none" xmlns="http://www.w3.org/2000/svg">
<path d="M51.1536 37.7679V2.48398C51.1536 1.89982 50.6799 1.42603 50.0957 1.42603H22.1744C22.0586 1.42603 21.9482 1.47179 21.8675 1.55524L11.9717 11.6852C11.8937 11.766 11.8506 11.8736 11.8506 11.9867V37.7679" stroke="#A9997A" stroke-miterlimit="10" stroke-linecap="round"/>
<path d="M19.8833 11.6557H11.8747C11.8154 11.6557 11.7858 11.5831 11.8262 11.54L21.9669 1.39926C22.01 1.35618 22.0827 1.3858 22.0827 1.44771V9.45638C22.08 10.6732 21.0974 11.6557 19.8833 11.6557Z" stroke="#A9997A" stroke-miterlimit="10" stroke-linecap="round"/>
<path d="M60.36 42.3445H2.37452C1.8092 42.3445 1.35156 42.8021 1.35156 43.3674V52.356C1.35156 52.9213 1.8092 53.379 2.37452 53.379H60.36C60.9253 53.379 61.383 52.9213 61.383 52.356V43.3674C61.383 42.8048 60.9253 42.3445 60.36 42.3445Z" stroke="#A9997A" stroke-miterlimit="10" stroke-linecap="round"/>
<path d="M7.8125 47.9975V42.6135" stroke="#A9997A" stroke-miterlimit="10" stroke-linecap="round"/>
<path d="M15.6191 45.8439V42.6135" stroke="#A9997A" stroke-miterlimit="10" stroke-linecap="round"/>
<path d="M23.4258 47.9975V42.6135" stroke="#A9997A" stroke-miterlimit="10" stroke-linecap="round"/>
<path d="M31.502 45.8439V42.6135" stroke="#A9997A" stroke-miterlimit="10" stroke-linecap="round"/>
<path d="M39.3086 47.9975V42.6135" stroke="#A9997A" stroke-miterlimit="10" stroke-linecap="round"/>
<path d="M47.1152 45.8439V42.6135" stroke="#A9997A" stroke-miterlimit="10" stroke-linecap="round"/>
<path d="M55.1914 47.9975V42.6135" stroke="#A9997A" stroke-miterlimit="10" stroke-linecap="round"/>
<path d="M18.5801 18.9241H44.9616" stroke="#A9997A" stroke-miterlimit="10" stroke-linecap="round"/>
<path d="M18.5801 28.8845H44.9616" stroke="#A9997A" stroke-miterlimit="10" stroke-linecap="round"/>
<path d="M26.6562 36.9604V10.5789" stroke="#A9997A" stroke-miterlimit="10" stroke-linecap="round"/>
<path d="M36.6162 36.9604V10.5789" stroke="#A9997A" stroke-miterlimit="10" stroke-linecap="round"/>
</svg>
