<svg width="102" height="102" viewBox="0 0 102 102" fill="none" xmlns="http://www.w3.org/2000/svg">
<g opacity="0.2">
<path d="M51.0916 3.16676V50.9082M51.0916 3.16676C38.4173 3.15939 26.2584 8.18339 17.2859 17.1351C8.31346 26.0867 3.26129 38.234 3.23927 50.9082M51.0916 3.16676H98.833C98.8037 15.8196 93.7644 27.9458 84.8175 36.8927C75.8706 45.8397 63.7444 50.8789 51.0916 50.9082M51.0916 50.9082H3.23927M51.0916 50.9082V98.7605C44.8065 98.7642 38.5823 97.5289 32.775 95.1254C26.9676 92.7219 21.691 89.1972 17.2468 84.753C12.8025 80.3088 9.2779 75.0322 6.87439 69.2248C4.47087 63.4175 3.23562 57.1933 3.23927 50.9082M98.8884 50.9082V98.7605H51.0638C51.0638 86.0837 56.094 73.9248 65.0501 64.9532C74.0061 55.9815 86.1562 50.9302 98.833 50.9082H98.8884Z" stroke="white" stroke-width="5" stroke-linecap="round" stroke-linejoin="round"/>
<mask id="mask0_2171_15658" style="mask-type:alpha" maskUnits="userSpaceOnUse" x="0" y="0" width="102" height="102">
<path d="M51.0916 3.16676V50.9082M51.0916 3.16676C38.4173 3.15939 26.2584 8.18339 17.2859 17.1351C8.31346 26.0867 3.26129 38.234 3.23927 50.9082M51.0916 3.16676H98.833C98.8037 15.8196 93.7644 27.9458 84.8175 36.8927C75.8706 45.8397 63.7444 50.8789 51.0916 50.9082M51.0916 50.9082H3.23927M51.0916 50.9082V98.7605C44.8065 98.7642 38.5823 97.5289 32.775 95.1254C26.9676 92.7219 21.691 89.1972 17.2468 84.753C12.8025 80.3088 9.2779 75.0322 6.87439 69.2248C4.47087 63.4175 3.23562 57.1933 3.23927 50.9082M98.8884 50.9082V98.7605H51.0638C51.0638 86.0837 56.094 73.9248 65.0501 64.9532C74.0061 55.9815 86.1562 50.9302 98.833 50.9082H98.8884Z" stroke="white" stroke-width="5" stroke-linecap="round" stroke-linejoin="round"/>
</mask>
<g mask="url(#mask0_2171_15658)">
<rect x="51.333" y="86.292" width="5.54167" height="15.0417" fill="#6D9912"/>
</g>
</g>
</svg>
