<svg width="111" height="101" viewBox="0 0 111 101" fill="none" xmlns="http://www.w3.org/2000/svg">
<g opacity="0.2">
<path d="M13.7736 18.0767V83.119H8.96094V18.0767H13.7736Z" fill="white"/>
<path d="M0.695312 23.1039L9.66665 14.1325L11.368 12.4314L13.0694 14.1325L22.0407 23.1039L18.638 26.5064L11.368 19.2367L4.09783 26.5064L0.695312 23.1039Z" fill="white"/>
<path d="M4.09783 74.6895L11.368 81.9594L18.638 74.6895L22.0407 78.0922L13.0694 87.0633L11.368 88.7645L9.66665 87.0633L0.695312 78.0922L4.09783 74.6895Z" fill="white"/>
<path d="M66.8643 97.1973V50.6885H71.6769V97.1973H66.8643Z" fill="white"/>
<path d="M33.3438 48.2822H53.1654V53.0949H33.3438V48.2822ZM62.2188 48.2822H75.7699V53.0949H62.2188V48.2822ZM83.6207 48.2822H105.197V53.0949H83.6207V48.2822Z" fill="white"/>
<path d="M32.8055 0.961304H88.6877V5.77396H35.2118V95.7061H105.198V5.77396H98.3128V0.961304H107.604H110.01V3.36763V98.1125V100.519H107.604H32.8055H30.3994V98.1125V3.36763V0.961304H32.8055Z" fill="white"/>
</g>
</svg>
