<svg width="86" height="100" viewBox="0 0 86 100" fill="none" xmlns="http://www.w3.org/2000/svg">
<path d="M50.9168 7.50195V11.6583H46.8965V7.50195H50.9168ZM46.8965 88.3418H53.0354V92.4982H46.8965V88.3418ZM57.1895 92.4982V88.3418H65.4976V92.4982H57.1895ZM69.6517 92.4982V88.3418H77.9598V92.4982H69.6517ZM83.1196 91.9012C84.4276 91.1192 85.2087 89.7476 85.2179 88.2233V82.1904H81.0638V88.2233C81.0641 88.2123 81.0643 88.2153 81.0638 88.2233L81.0618 88.2456L81.0553 88.2654C81.0553 88.264 81.0577 88.2597 81.0553 88.2654L81.0437 88.2857L81.03 88.3025L81.0153 88.3161L80.9982 88.3278L83.1196 91.9012ZM85.2179 78.0341H81.0638V69.7216H85.2179V78.0341ZM85.2179 65.5653H81.0638V57.2527H85.2179V65.5653ZM85.2179 53.0965H81.0638V44.7839H85.2179V53.0965ZM85.2179 40.6276H81.0638V32.3151H85.2179V40.6276ZM85.2179 28.1588H81.0638V19.8462H85.2179V28.1588ZM85.2179 15.6899H81.0638V11.7769C81.0635 11.7708 81.0638 11.769 81.0638 11.7769L81.0618 11.7546L81.0553 11.7348L81.0437 11.7145L81.03 11.6977L81.0123 11.6818L80.9942 11.6703C80.9867 11.6671 80.9939 11.6703 80.9942 11.6703L80.9743 11.6621C80.9633 11.6618 80.9663 11.6616 80.9743 11.6621L80.9523 11.6585L79.9952 11.6584V7.50203H80.9454C83.3163 7.51637 85.2036 9.40471 85.2179 11.7769L85.2179 15.6899ZM75.8411 7.50202V11.6584H67.533V7.50202H75.8411ZM63.3789 7.50202V11.6584H55.0708V7.50202H63.3789Z" fill="white" fill-opacity="0.2"/>
<path d="M44.8202 0.125V99.8751H40.666V0.125H44.8202Z" fill="white" fill-opacity="0.2"/>
<path d="M38.589 11.6584H4.27259C4.24215 11.6584 4.21287 11.6724 4.19048 11.6948C4.1681 11.7172 4.15415 11.7465 4.15415 11.7769V88.2233C4.15415 88.2537 4.1681 88.2831 4.19048 88.3054C4.21287 88.3278 4.24215 88.3418 4.27259 88.3418H38.589V92.4982H4.27259C3.0956 92.4982 2.02685 92.0178 1.25342 91.2441C0.480134 90.4702 0 89.4009 0 88.2233V11.7769C0 10.5993 0.480134 9.53001 1.25342 8.75616C2.02686 7.98246 3.0956 7.50208 4.27259 7.50208H38.589V11.6584Z" fill="white" fill-opacity="0.2"/>
</svg>
