<svg width="185" height="75" viewBox="0 0 185 75" fill="none" xmlns="http://www.w3.org/2000/svg">
<g opacity="0.5">
<path d="M89.38 32.75V18.75H92.6L96.88 27.49L101.12 18.75H104.34V32.75H101.64V23.35L97.94 30.79H95.8L92.08 23.35V32.75H89.38ZM113.555 32.99C112.195 32.99 110.995 32.6833 109.955 32.07C108.915 31.4567 108.102 30.61 107.515 29.53C106.928 28.4367 106.635 27.1767 106.635 25.75C106.635 24.3233 106.928 23.07 107.515 21.99C108.102 20.8967 108.915 20.0433 109.955 19.43C110.995 18.8167 112.195 18.51 113.555 18.51C114.928 18.51 116.135 18.8167 117.175 19.43C118.215 20.0433 119.022 20.8967 119.595 21.99C120.182 23.07 120.475 24.3233 120.475 25.75C120.475 27.1767 120.182 28.4367 119.595 29.53C119.022 30.61 118.215 31.4567 117.175 32.07C116.135 32.6833 114.928 32.99 113.555 32.99ZM113.555 30.57C114.408 30.57 115.142 30.3767 115.755 29.99C116.382 29.59 116.868 29.03 117.215 28.31C117.562 27.59 117.735 26.7367 117.735 25.75C117.735 24.75 117.562 23.8967 117.215 23.19C116.868 22.47 116.382 21.9167 115.755 21.53C115.142 21.1433 114.408 20.95 113.555 20.95C112.715 20.95 111.982 21.1433 111.355 21.53C110.728 21.9167 110.242 22.47 109.895 23.19C109.548 23.8967 109.375 24.75 109.375 25.75C109.375 26.7367 109.548 27.59 109.895 28.31C110.242 29.03 110.728 29.59 111.355 29.99C111.982 30.3767 112.715 30.57 113.555 30.57ZM122.778 32.75V18.75H127.458C129.085 18.75 130.425 19.0433 131.478 19.63C132.545 20.2033 133.332 21.0167 133.838 22.07C134.358 23.11 134.618 24.3367 134.618 25.75C134.618 27.1633 134.358 28.3967 133.838 29.45C133.332 30.49 132.552 31.3033 131.498 31.89C130.445 32.4633 129.098 32.75 127.458 32.75H122.778ZM125.478 30.43H127.318C128.465 30.43 129.365 30.2433 130.018 29.87C130.685 29.4967 131.158 28.9633 131.438 28.27C131.718 27.5633 131.858 26.7233 131.858 25.75C131.858 24.7633 131.718 23.9233 131.438 23.23C131.158 22.5233 130.685 21.9833 130.018 21.61C129.365 21.2367 128.465 21.05 127.318 21.05H125.478V30.43ZM136.919 32.75V18.75H146.119V20.93H139.619V24.59H145.519V26.69H139.619V30.57H146.119V32.75H136.919ZM148.579 32.75V18.75H153.799C154.933 18.75 155.866 18.9433 156.599 19.33C157.333 19.7167 157.879 20.2367 158.239 20.89C158.599 21.53 158.779 22.2433 158.779 23.03C158.779 23.7767 158.606 24.4767 158.259 25.13C157.913 25.77 157.366 26.29 156.619 26.69C155.886 27.0767 154.939 27.27 153.779 27.27H151.279V32.75H148.579ZM155.839 32.75L152.959 26.59H155.879L158.919 32.75H155.839ZM151.279 25.31H153.639C154.453 25.31 155.053 25.11 155.439 24.71C155.826 24.31 156.019 23.7833 156.019 23.13C156.019 22.4767 155.826 21.9633 155.439 21.59C155.066 21.2033 154.466 21.01 153.639 21.01H151.279V25.31ZM161.196 32.75V18.75H163.896L170.336 28.41V18.75H173.036V32.75H170.336L163.896 23.11V32.75H161.196Z" fill="black"/>
<path d="M88.224 54.75L90.28 49.15H91.152L93.208 54.75H92.352L90.712 50.11L89.064 54.75H88.224ZM89.152 53.366L89.376 52.726H92.008L92.232 53.366H89.152ZM97.5259 54.75V49.15H99.4219C99.8645 49.15 100.227 49.2247 100.51 49.374C100.793 49.5233 101.001 49.7233 101.134 49.974C101.273 50.2193 101.342 50.4993 101.342 50.814C101.342 51.1127 101.273 51.39 101.134 51.646C101.001 51.8967 100.79 52.0993 100.502 52.254C100.214 52.4033 99.8459 52.478 99.3979 52.478H98.3259V54.75H97.5259ZM100.47 54.75L99.2619 52.262H100.142L101.398 54.75H100.47ZM98.3259 51.87H99.3659C99.7605 51.87 100.051 51.774 100.238 51.582C100.425 51.3847 100.518 51.134 100.518 50.83C100.518 50.5207 100.427 50.2753 100.246 50.094C100.065 49.9127 99.7712 49.822 99.3659 49.822H98.3259V51.87ZM108.353 54.846C107.804 54.846 107.329 54.726 106.929 54.486C106.535 54.2407 106.228 53.902 106.009 53.47C105.796 53.0327 105.689 52.526 105.689 51.95C105.689 51.3793 105.796 50.8753 106.009 50.438C106.228 50.0007 106.535 49.662 106.929 49.422C107.329 49.1767 107.804 49.054 108.353 49.054C109.009 49.054 109.54 49.2113 109.945 49.526C110.356 49.8407 110.617 50.2833 110.729 50.854H109.849C109.769 50.5233 109.604 50.2593 109.353 50.062C109.108 49.8647 108.775 49.766 108.353 49.766C107.975 49.766 107.647 49.854 107.369 50.03C107.092 50.206 106.879 50.4567 106.729 50.782C106.58 51.1073 106.505 51.4967 106.505 51.95C106.505 52.4033 106.58 52.7953 106.729 53.126C106.879 53.4513 107.092 53.702 107.369 53.878C107.647 54.0487 107.975 54.134 108.353 54.134C108.775 54.134 109.108 54.0407 109.353 53.854C109.604 53.662 109.769 53.4033 109.849 53.078H110.729C110.617 53.6327 110.356 54.0673 109.945 54.382C109.54 54.6913 109.009 54.846 108.353 54.846ZM118.766 54.75V49.15H119.566V54.75H118.766ZM115.206 54.75V49.15H116.006V54.75H115.206ZM115.87 52.222V51.566H118.942V52.222H115.87ZM124.258 54.75V49.15H125.058V54.75H124.258ZM131.05 54.75V49.806H129.394V49.15H133.514V49.806H131.85V54.75H131.05ZM137.845 54.75V49.15H141.381V49.806H138.645V51.598H141.141V52.238H138.645V54.094H141.381V54.75H137.845ZM148.391 54.846C147.842 54.846 147.367 54.726 146.967 54.486C146.572 54.2407 146.266 53.902 146.047 53.47C145.834 53.0327 145.727 52.526 145.727 51.95C145.727 51.3793 145.834 50.8753 146.047 50.438C146.266 50.0007 146.572 49.662 146.967 49.422C147.367 49.1767 147.842 49.054 148.391 49.054C149.047 49.054 149.578 49.2113 149.983 49.526C150.394 49.8407 150.655 50.2833 150.767 50.854H149.887C149.807 50.5233 149.642 50.2593 149.391 50.062C149.146 49.8647 148.812 49.766 148.391 49.766C148.012 49.766 147.684 49.854 147.407 50.03C147.13 50.206 146.916 50.4567 146.767 50.782C146.618 51.1073 146.543 51.4967 146.543 51.95C146.543 52.4033 146.618 52.7953 146.767 53.126C146.916 53.4513 147.13 53.702 147.407 53.878C147.684 54.0487 148.012 54.134 148.391 54.134C148.812 54.134 149.146 54.0407 149.391 53.854C149.642 53.662 149.807 53.4033 149.887 53.078H150.767C150.655 53.6327 150.394 54.0673 149.983 54.382C149.578 54.6913 149.047 54.846 148.391 54.846ZM156.439 54.75V49.806H154.783V49.15H158.903V49.806H157.239V54.75H156.439ZM165.297 54.846C164.902 54.846 164.545 54.7687 164.225 54.614C163.905 54.454 163.649 54.214 163.457 53.894C163.27 53.5687 163.177 53.1553 163.177 52.654V49.15H163.977V52.662C163.977 52.998 164.033 53.2753 164.145 53.494C164.257 53.7073 164.411 53.8673 164.609 53.974C164.811 54.0753 165.046 54.126 165.313 54.126C165.585 54.126 165.819 54.0753 166.017 53.974C166.214 53.8673 166.366 53.7073 166.473 53.494C166.585 53.2753 166.641 52.998 166.641 52.662V49.15H167.441V52.654C167.441 53.1553 167.345 53.5687 167.153 53.894C166.961 54.214 166.702 54.454 166.377 54.614C166.051 54.7687 165.691 54.846 165.297 54.846ZM172.073 54.75V49.15H173.969C174.412 49.15 174.774 49.2247 175.057 49.374C175.34 49.5233 175.548 49.7233 175.681 49.974C175.82 50.2193 175.889 50.4993 175.889 50.814C175.889 51.1127 175.82 51.39 175.681 51.646C175.548 51.8967 175.337 52.0993 175.049 52.254C174.761 52.4033 174.393 52.478 173.945 52.478H172.873V54.75H172.073ZM175.017 54.75L173.809 52.262H174.689L175.945 54.75H175.017ZM172.873 51.87H173.913C174.308 51.87 174.598 51.774 174.785 51.582C174.972 51.3847 175.065 51.134 175.065 50.83C175.065 50.5207 174.974 50.2753 174.793 50.094C174.612 49.9127 174.318 49.822 173.913 49.822H172.873V51.87ZM180.445 54.75V49.15H183.981V49.806H181.245V51.598H183.741V52.238H181.245V54.094H183.981V54.75H180.445Z" fill="black"/>
<path d="M1 73.25V26.0461H48.2039V73.25H1ZM1 73.25L21.1311 53.1189M21.1311 53.1189V20.4927L44.0388 1.75L66.9466 20.4927V53.1189H21.1311Z" stroke="black" stroke-width="2"/>
</g>
</svg>
