<svg width="150" height="75" viewBox="0 0 150 75" fill="none" xmlns="http://www.w3.org/2000/svg">
<g opacity="0.5">
<path d="M31.8447 73L62.2066 54.3158M31.8447 73L16.6638 63.6579M31.8447 73V20.6842M1.48291 54.3158V19.2829L31.8447 2M1.48291 54.3158L16.6638 63.6579M1.48291 54.3158L16.6638 45.9079M31.8447 2V20.6842M31.8447 2L47.0257 10.6414M62.2066 54.3158V36.7993M62.2066 54.3158L46.7921 45.4623M16.6638 63.6579V45.9079M16.6638 45.9079V28.1579L46.7921 45.4623M31.8447 20.6842L62.2066 36.7993M62.2066 36.7993V19.2829L47.0257 10.6414M46.7921 45.4623L47.0257 10.6414" stroke="white" stroke-opacity="0.4" stroke-width="2"/>
<path d="M78.3508 15.0789V4.03658H74.5205V2H84.666V4.03658H80.8545V15.0789H78.3508Z" fill="white" fill-opacity="0.4"/>
<path d="M94.6935 15.0789V2H97.2158V15.0789H94.6935ZM86.4537 15.0789V2H88.9761V15.0789H86.4537ZM88.6211 9.41763V7.38105H95.1232V9.41763H88.6211Z" fill="white" fill-opacity="0.4"/>
<path d="M99.7918 15.0789V2H108.387V4.03658H102.314V7.45579H107.826V9.41763H102.314V13.0424H108.387V15.0789H99.7918Z" fill="white" fill-opacity="0.4"/>
<path d="M79.8081 43.3295C78.8615 43.3295 78.0145 43.1675 77.2671 42.8437C76.5322 42.5198 75.9467 42.0465 75.5108 41.4237C75.0873 40.8009 74.8693 40.0473 74.8568 39.1629H77.5287C77.5411 39.549 77.6408 39.8978 77.8276 40.2092C78.0145 40.5206 78.2698 40.7697 78.5937 40.9566C78.93 41.131 79.3286 41.2182 79.7895 41.2182C80.188 41.2182 80.5306 41.1559 80.8171 41.0313C81.116 40.8943 81.3465 40.7075 81.5084 40.4708C81.6703 40.2341 81.7513 39.9539 81.7513 39.63C81.7513 39.2563 81.6579 38.9449 81.471 38.6958C81.2966 38.4467 81.0475 38.2349 80.7237 38.0605C80.4123 37.8861 80.0448 37.7304 79.6213 37.5934C79.2102 37.4439 78.7743 37.2882 78.3134 37.1263C77.2795 36.79 76.4886 36.3416 75.9405 35.781C75.4049 35.2205 75.1371 34.4794 75.1371 33.5576C75.1371 32.7729 75.3239 32.1003 75.6976 31.5397C76.0838 30.9792 76.6131 30.5495 77.2858 30.2505C77.9584 29.9516 78.7245 29.8021 79.5839 29.8021C80.4683 29.8021 81.2406 29.9578 81.9008 30.2692C82.5734 30.5682 83.1028 31.0041 83.4889 31.5771C83.8875 32.1501 84.093 32.8227 84.1055 33.595H81.415C81.4025 33.3085 81.3153 33.0407 81.1534 32.7916C81.0039 32.53 80.7922 32.3245 80.5181 32.175C80.2441 32.0131 79.9202 31.9321 79.5466 31.9321C79.2227 31.9196 78.9238 31.9695 78.6497 32.0816C78.3881 32.1937 78.1764 32.3618 78.0145 32.586C77.865 32.7978 77.7902 33.0656 77.7902 33.3895C77.7902 33.7009 77.865 33.9625 78.0145 34.1742C78.1764 34.386 78.3944 34.5728 78.6684 34.7347C78.9424 34.8842 79.2663 35.0275 79.64 35.1645C80.0137 35.289 80.4185 35.4198 80.8545 35.5568C81.5022 35.781 82.1001 36.0489 82.6481 36.3603C83.1962 36.6592 83.6322 37.0516 83.956 37.5374C84.2799 38.0232 84.4418 38.6646 84.4418 39.4618C84.4418 40.1469 84.2612 40.7822 83.9 41.3676C83.5387 41.9531 83.0156 42.4264 82.3305 42.7876C81.6579 43.1489 80.8171 43.3295 79.8081 43.3295Z" fill="white" fill-opacity="0.4"/>
<path d="M86.5815 43.1053V30.0263H91.4767C92.5355 30.0263 93.4136 30.2069 94.1112 30.5682C94.8087 30.9294 95.3257 31.4152 95.662 32.0255C95.9983 32.6359 96.1664 33.3334 96.1664 34.1182C96.1664 34.8406 96.0045 35.507 95.6807 36.1174C95.3568 36.7277 94.8461 37.226 94.1486 37.6121C93.451 37.9858 92.5604 38.1726 91.4767 38.1726H89.1038V43.1053H86.5815ZM89.1038 36.136H91.3272C92.1369 36.136 92.7161 35.9554 93.0649 35.5942C93.4261 35.2205 93.6067 34.7285 93.6067 34.1182C93.6067 33.4704 93.4261 32.9722 93.0649 32.6234C92.7161 32.2622 92.1369 32.0816 91.3272 32.0816H89.1038V36.136Z" fill="white" fill-opacity="0.4"/>
<path d="M95.8117 43.1053L100.595 30.0263H103.454L108.218 43.1053H105.546L102.015 32.9037L98.4649 43.1053H95.8117ZM97.9231 40.1345L98.5957 38.1726H105.247L105.901 40.1345H97.9231Z" fill="white" fill-opacity="0.4"/>
<path d="M115.055 43.3295C113.748 43.3295 112.62 43.0492 111.674 42.4887C110.739 41.9157 110.017 41.1247 109.506 40.1158C109.008 39.0944 108.759 37.9173 108.759 36.5845C108.759 35.2517 109.008 34.0746 109.506 33.0532C110.017 32.0318 110.739 31.2346 111.674 30.6616C112.62 30.0886 113.748 29.8021 115.055 29.8021C116.637 29.8021 117.933 30.1945 118.942 30.9792C119.951 31.7639 120.58 32.8725 120.829 34.305H118.082C117.92 33.6075 117.578 33.0656 117.055 32.6795C116.544 32.2809 115.871 32.0816 115.037 32.0816C114.264 32.0816 113.598 32.2684 113.038 32.6421C112.489 33.0033 112.066 33.5203 111.767 34.1929C111.468 34.8531 111.319 35.6503 111.319 36.5845C111.319 37.5062 111.468 38.3034 111.767 38.976C112.066 39.6487 112.489 40.1656 113.038 40.5268C113.598 40.8881 114.264 41.0687 115.037 41.0687C115.871 41.0687 116.544 40.8881 117.055 40.5268C117.565 40.1532 117.902 39.6362 118.064 38.976H120.829C120.58 40.3338 119.951 41.3988 118.942 42.171C117.933 42.9433 116.637 43.3295 115.055 43.3295Z" fill="white" fill-opacity="0.4"/>
<path d="M122.983 43.1053V30.0263H131.578V32.0629H125.505V35.4821H131.017V37.4439H125.505V41.0687H131.578V43.1053H122.983Z" fill="white" fill-opacity="0.4"/>
<path d="M81.0413 71.3558C79.7957 71.3558 78.712 71.0817 77.7902 70.5337C76.8685 69.9731 76.1523 69.1946 75.6416 68.1981C75.1309 67.1892 74.8755 66.0183 74.8755 64.6855C74.8755 63.3403 75.1371 62.1569 75.6602 61.1355C76.1834 60.1017 76.937 59.292 77.921 58.7066C78.9051 58.1211 80.0822 57.8284 81.4523 57.8284C82.9845 57.8284 84.255 58.1959 85.2639 58.9308C86.2853 59.6657 86.9455 60.6871 87.2444 61.995H84.4231C84.2363 61.422 83.8875 60.9736 83.3768 60.6497C82.8786 60.3134 82.2309 60.1453 81.4337 60.1453C80.5866 60.1453 79.8642 60.3321 79.2663 60.7058C78.6684 61.0795 78.2138 61.6026 77.9023 62.2752C77.5909 62.9479 77.4352 63.7513 77.4352 64.6855C77.4352 65.6322 77.5909 66.4356 77.9023 67.0958C78.2138 67.756 78.6559 68.2604 79.2289 68.6092C79.8144 68.9455 80.4995 69.1137 81.2842 69.1137C82.4302 69.1137 83.2959 68.8085 83.8813 68.1981C84.4792 67.5753 84.8342 66.7719 84.9463 65.7879H81.7326V63.9008H87.4873V71.1316H85.1518L84.965 69.4687C84.6909 69.8797 84.3671 70.2285 83.9934 70.515C83.6322 70.789 83.2087 70.9946 82.7229 71.1316C82.2371 71.281 81.6766 71.3558 81.0413 71.3558Z" fill="white" fill-opacity="0.4"/>
<path d="M88.9694 71.1316L93.7525 58.0526H96.6112L101.376 71.1316H98.7039L95.1725 60.93L91.6225 71.1316H88.9694ZM91.0807 68.1608L91.7533 66.1989H98.4049L99.0589 68.1608H91.0807Z" fill="white" fill-opacity="0.4"/>
<path d="M108.213 71.3558C106.905 71.3558 105.778 71.0755 104.831 70.515C103.897 69.942 103.175 69.151 102.664 68.1421C102.166 67.1207 101.917 65.9436 101.917 64.6108C101.917 63.278 102.166 62.1009 102.664 61.0795C103.175 60.0581 103.897 59.2609 104.831 58.6879C105.778 58.1149 106.905 57.8284 108.213 57.8284C109.795 57.8284 111.09 58.2208 112.099 59.0055C113.108 59.7903 113.737 60.8988 113.987 62.3313H111.24C111.078 61.6338 110.735 61.0919 110.212 60.7058C109.702 60.3072 109.029 60.1079 108.194 60.1079C107.422 60.1079 106.756 60.2947 106.195 60.6684C105.647 61.0296 105.224 61.5466 104.925 62.2192C104.626 62.8794 104.476 63.6766 104.476 64.6108C104.476 65.5325 104.626 66.3297 104.925 67.0024C105.224 67.675 105.647 68.1919 106.195 68.5531C106.756 68.9144 107.422 69.095 108.194 69.095C109.029 69.095 109.702 68.9144 110.212 68.5531C110.723 68.1795 111.059 67.6625 111.221 67.0024H113.987C113.737 68.3601 113.108 69.4251 112.099 70.1974C111.09 70.9696 109.795 71.3558 108.213 71.3558Z" fill="white" fill-opacity="0.4"/>
<path d="M119.058 71.1316V60.0892H115.228V58.0526H125.374V60.0892H121.562V71.1316H119.058Z" fill="white" fill-opacity="0.4"/>
<path d="M132.225 71.3558C131.265 71.3558 130.394 71.1627 129.609 70.7766C128.824 70.3904 128.201 69.8112 127.74 69.0389C127.28 68.2667 127.049 67.2826 127.049 66.0868V58.0526H129.571V66.1055C129.571 66.7532 129.677 67.3013 129.889 67.7497C130.101 68.1857 130.406 68.5095 130.805 68.7213C131.216 68.9331 131.701 69.0389 132.262 69.0389C132.835 69.0389 133.321 68.9331 133.719 68.7213C134.13 68.5095 134.442 68.1857 134.654 67.7497C134.865 67.3013 134.971 66.7532 134.971 66.1055V58.0526H137.494V66.0868C137.494 67.2826 137.257 68.2667 136.784 69.0389C136.31 69.8112 135.669 70.3904 134.859 70.7766C134.062 71.1627 133.184 71.3558 132.225 71.3558Z" fill="white" fill-opacity="0.4"/>
<path d="M139.952 71.1316V58.0526H144.828C145.887 58.0526 146.759 58.2332 147.444 58.5945C148.129 58.9557 148.64 59.4415 148.976 60.0518C149.313 60.6497 149.481 61.3161 149.481 62.051C149.481 62.7486 149.319 63.4025 148.995 64.0129C148.671 64.6108 148.16 65.0966 147.463 65.4703C146.778 65.8315 145.893 66.0121 144.81 66.0121H142.474V71.1316H139.952ZM146.734 71.1316L144.044 65.3768H146.772L149.612 71.1316H146.734ZM142.474 64.181H144.679C145.439 64.181 145.999 63.9942 146.361 63.6205C146.722 63.2468 146.902 62.7548 146.902 62.1445C146.902 61.5341 146.722 61.0546 146.361 60.7058C146.012 60.3446 145.451 60.1639 144.679 60.1639H142.474V64.181Z" fill="white" fill-opacity="0.4"/>
</g>
</svg>
