<svg width="116" height="20" viewBox="0 0 116 20" fill="none" xmlns="http://www.w3.org/2000/svg">
<path d="M114.806 5.89649C114.806 5.45286 114.493 5.15711 113.979 5.15711L112.969 5.1756L112.987 7.43069H113.538V6.65434H113.869L114.347 7.43069H114.989L114.42 6.56192C114.538 6.49613 114.636 6.39961 114.704 6.28251C114.772 6.16541 114.807 6.03205 114.806 5.89649ZM113.869 6.19224H113.52V5.61922H113.924C113.997 5.6112 114.07 5.63169 114.128 5.67644C114.186 5.72119 114.225 5.78675 114.236 5.85952V5.87801C114.235 5.9237 114.224 5.96858 114.204 6.00977C114.185 6.05096 114.157 6.08754 114.122 6.11714C114.087 6.14675 114.047 6.16873 114.003 6.18166C113.96 6.1946 113.914 6.1982 113.869 6.19224ZM32.3844 16.3216C31.4476 16.3216 30.8047 15.5823 30.8047 14.4917V9.51941H34.6622V6.00739H30.8139L30.7771 1.97782H26.5155L26.5523 15.3974C26.5523 18.1146 28.3524 19.963 30.9975 19.963C32.3936 19.963 33.7161 19.7597 34.7632 19.2791V15.8595C34.0197 16.2067 33.2029 16.3654 32.3844 16.3216ZM42.5608 5.78559C38.5931 5.78559 35.5439 8.89094 35.5439 13.0129C35.5439 17.098 38.5931 19.9445 42.7996 19.9445C45.1692 19.9445 47.3918 19.0943 48.7511 17.3383L45.4814 15.841C44.8202 16.451 43.8099 16.6913 42.9098 16.6913C41.4403 16.6913 39.9708 15.9335 39.7687 14.3808H49.5226C49.6692 13.826 49.7433 13.2543 49.743 12.6802C49.743 8.44732 46.6754 5.78559 42.57 5.78559H42.5608ZM39.7687 11.6636C39.8973 9.81516 41.2198 8.96488 42.671 8.96488C44.3058 8.96488 45.5365 9.88909 45.5365 11.4787V11.6636H39.7687ZM22.4652 16.3216C21.5284 16.3216 20.8855 15.5823 20.8855 14.4917V9.51941H24.7429V6.00739H20.8946L20.8579 1.97782H16.5963L16.6331 15.3974C16.6331 18.1146 18.4332 19.963 21.0783 19.963C22.4744 19.963 23.7969 19.7597 24.844 19.2791V15.8595C24.101 16.2084 23.2838 16.3671 22.4652 16.3216ZM7.49452 5.78559C3.8391 5.78559 0 8.20703 0 13.0869C0 17.1534 2.7186 20 6.15359 20C8.11906 20 9.60695 19.2052 10.5805 17.8004L10.7091 19.7597H14.8329V13.2532C14.8329 8.29945 11.205 5.78559 7.49452 5.78559ZM7.49452 16.2477C5.63926 16.2477 4.29833 14.8614 4.29833 12.902C4.29833 10.9427 5.62089 9.55638 7.49452 9.55638C9.2212 9.55638 10.654 11.0721 10.654 12.902C10.654 14.732 9.2212 16.2477 7.49452 16.2477ZM113.777 4.14048C112.436 4.15896 111.573 5.02773 111.591 6.32163C111.61 7.61553 112.491 8.46581 113.832 8.44732C115.136 8.42884 116.018 7.56008 116 6.24769C115.981 4.93531 115.1 4.12199 113.777 4.14048ZM113.832 8.07764C112.785 8.09612 112.069 7.39372 112.069 6.32163C112.069 5.24954 112.748 4.52865 113.795 4.51016C114.842 4.49168 115.54 5.19408 115.559 6.28466C115.559 7.33826 114.861 8.05915 113.841 8.07764H113.832ZM92.9467 6.02588L89.971 14.7135L86.9585 6.02588H82.3295L87.8769 19.7412H92.0283L97.5757 6.02588H92.9467ZM103.986 5.78559C100.019 5.78559 96.9695 8.89094 96.9695 13.0129C96.9695 17.098 100.019 19.9445 104.225 19.9445C106.595 19.9445 108.817 19.0943 110.177 17.3383L106.907 15.841C106.246 16.451 105.236 16.6913 104.335 16.6913C102.866 16.6913 101.396 15.9335 101.194 14.3808H110.948C111.095 13.826 111.169 13.2543 111.169 12.6802C111.169 8.44732 108.101 5.78559 103.986 5.78559ZM106.962 11.6636H101.194C101.323 9.81516 102.646 8.96488 104.097 8.96488C105.731 8.96488 106.962 9.88909 106.962 11.4787V11.6636ZM79.0415 0C77.5352 0 76.3963 1.01664 76.3963 2.43993C76.3963 3.86322 77.5352 4.91682 79.0415 4.91682C80.5477 4.91682 81.6866 3.8817 81.6866 2.43993C81.6866 0.998154 80.5661 0 79.0415 0ZM59.699 5.7671C58.8377 5.7531 57.9875 5.96364 57.2311 6.37824C56.4747 6.79284 55.8377 7.39739 55.3823 8.13309L55.2353 6.02588H51.1207V19.7412H55.3823V12.5508C55.4741 10.8318 56.8518 9.51941 58.3581 9.51941C60.048 9.51941 60.8195 10.7948 60.8195 12.403V19.7227H65.0627V11.7375C65.0627 8.26248 62.9595 5.7671 59.699 5.7671ZM72.7042 16.3216C71.7674 16.3216 71.1245 15.5823 71.1245 14.4917V9.51941H74.9819V6.00739H71.1245L71.0877 1.97782H66.8261L66.8629 15.3974C66.8629 18.1146 68.663 19.963 71.3081 19.963C72.7042 19.963 74.0267 19.7597 75.0738 19.2791V15.8595C74.3336 16.2069 73.5198 16.3656 72.7042 16.3216ZM76.8923 6.02588V19.7412H81.1906V6.02588C80.5534 6.45081 79.8059 6.67743 79.0415 6.67743C78.277 6.67743 77.5295 6.45081 76.8923 6.02588Z" fill="#A56758" fill-opacity="0.3"/>
</svg>
