<svg width="93" height="20" viewBox="0 0 93 20" fill="none" xmlns="http://www.w3.org/2000/svg">
<path d="M0 0.283655H6.72463C11.0169 0.283655 13.7354 3.68793 13.7354 8.36883C13.7354 10.922 12.8769 13.1915 11.1599 14.6099C10.0154 15.6028 8.44149 16.1702 6.43845 16.1702H0V0.283655ZM6.22383 13.4043C9.29999 13.4043 10.4446 11.5603 10.4446 8.43972C10.4446 5.31917 9.08538 3.12055 6.29537 3.12055H3.21923V13.4752H6.22383V13.4043ZM14.2361 10.4965C14.2361 7.09221 16.6684 4.46807 20.2453 4.46807C23.8223 4.46807 26.2545 7.09221 26.2545 10.4965C26.2545 13.9007 23.8223 16.5248 20.2453 16.5248C16.6684 16.5248 14.2361 13.8298 14.2361 10.4965ZM23.1069 10.4965C23.1069 8.29786 22.0338 6.73759 20.1738 6.73759C18.3138 6.73759 17.2407 8.22697 17.2407 10.4965C17.2407 12.7659 18.2423 14.1844 20.1738 14.1844C22.1053 14.1844 23.1069 12.695 23.1069 10.4965ZM26.8269 10.4965C26.8269 7.09221 29.0446 4.46807 32.55 4.46807C35.5545 4.46807 37.343 6.17021 37.7723 8.65248H34.7676C34.553 7.65959 33.7661 6.87945 32.693 6.87945C30.833 6.87945 29.903 8.29786 29.903 10.4965C29.903 12.6241 30.7614 14.1134 32.6215 14.1134C33.8376 14.1134 34.6961 13.4752 34.9107 12.1986H37.9153C37.7007 14.6099 35.8407 16.5248 32.7646 16.5248C29.1161 16.4539 26.8269 13.8298 26.8269 10.4965ZM45.9276 16.1702V14.8227H45.856C45.0691 15.8866 44.2107 16.4539 42.5653 16.4539C39.9899 16.4539 38.5592 14.8227 38.5592 12.3404V4.75179H41.5638V11.844C41.5638 13.1915 42.1361 13.9007 43.4953 13.9007C44.926 13.9007 45.7845 12.8369 45.7845 11.3475V4.75179H48.8607V16.0993H45.9276V16.1702ZM63.6691 0.354621H66.7453V3.19152H63.6691V0.354621ZM63.6691 4.75179H66.7453V16.0993H63.6691V4.75179ZM67.9614 16.4539H70.966C71.1803 17.1631 71.8961 17.7305 73.2554 17.7305C74.9723 17.7305 75.8307 16.8794 75.8307 15.3901V14.1134H75.7591C75.1156 14.8936 74.1855 15.461 72.7545 15.461C70.1793 15.461 67.6753 13.4752 67.6753 10C67.6753 6.59572 69.75 4.46807 72.6112 4.46807C74.0422 4.46807 75.1156 5.03545 75.7591 5.95745H75.8307V4.75179H78.7636V15.2482C78.7636 16.8794 78.2627 17.9432 77.4043 18.7234C76.4742 19.6454 74.9723 20 73.2554 20C70.2509 20 68.3191 18.7234 67.9614 16.4539ZM76.045 9.9291C76.045 8.29786 75.1149 6.87945 73.3271 6.87945C71.7528 6.87945 70.7511 8.0851 70.7511 10C70.7511 11.9149 71.7528 13.0497 73.3271 13.0497C75.2582 13.0497 76.045 11.6312 76.045 9.9291ZM83.1274 6.31207C83.9858 5.10641 85.0592 4.46807 86.5611 4.46807C88.9221 4.46807 90.4957 6.2411 90.4957 8.72338V16.1702H87.4195V9.21986C87.4195 8.01421 86.7044 7.1631 85.4167 7.1631C84.0574 7.1631 83.0557 8.22697 83.0557 9.78724V16.2411H80.1229V4.89359H83.1274V6.31207ZM56.7299 6.59572C54.3691 6.09931 53.2961 5.67372 53.2961 4.39717C53.2961 3.26241 54.4406 2.55317 56.1576 2.55317C57.7314 2.55317 58.9476 3.26241 59.2337 4.75179H62.3814C62.0238 1.70214 59.7345 0 56.1576 0C52.5807 0 50.0053 1.63117 50.0053 4.75179C50.0053 8.0851 52.6522 8.79434 55.5137 9.43262C57.946 10 59.4483 10.2837 59.4483 11.844C59.4483 13.3333 58.0176 13.9007 56.3722 13.9007C54.083 13.9007 53.0099 13.1206 52.7953 11.2057H49.6476C49.7907 14.539 52.223 16.4539 56.5868 16.4539C60.1637 16.4539 62.8107 14.6808 62.8107 11.4184C62.7391 8.0851 60.0206 7.30497 56.7299 6.59572ZM91.7833 6.87945C91.1398 6.87945 90.5673 6.31207 90.5673 5.67372C90.5673 5.03545 91.1398 4.46807 91.7833 4.46807C92.4275 4.46807 93 5.03545 93 5.67372C93 6.31207 92.4275 6.87945 91.7833 6.87945ZM91.7833 4.68083C91.2115 4.68083 90.7823 5.10641 90.7823 5.67372C90.7823 6.2411 91.2115 6.66669 91.7833 6.66669C92.3558 6.66669 92.785 6.2411 92.785 5.67372C92.785 5.10641 92.3558 4.68083 91.7833 4.68083Z" fill="#A56758" fill-opacity="0.3"/>
<path d="M91.3555 5.03572H91.7847C91.928 5.03572 92.0706 5.03572 92.1423 5.10662C92.2139 5.17752 92.2856 5.24848 92.2856 5.39028C92.2856 5.6031 92.1423 5.674 92.0706 5.7449L92.3572 6.24138H92.0706L91.8564 5.81586H91.5704V6.24138H91.3555V5.03572ZM91.5704 5.24848V5.6031H91.7847C91.8564 5.6031 91.9997 5.6031 91.9997 5.39028C91.9997 5.39028 91.9997 5.24848 91.928 5.24848H91.5704Z" fill="#A56758" fill-opacity="0.3"/>
</svg>
