<svg width="105" height="17" viewBox="0 0 105 17" fill="none" xmlns="http://www.w3.org/2000/svg">
<path d="M13.6585 0.435932H18.8066V3.8156C19.0756 2.65419 19.6257 1.76267 20.4553 1.13861C21.3061 0.491046 22.2506 0.168478 23.2816 0.168478C23.8203 0.168478 24.2693 0.213863 24.6271 0.302204V5.05399C24.1137 4.9924 23.597 4.95917 23.0795 4.9535C21.6663 4.9535 20.602 5.40979 19.8832 6.32481C19.1668 7.21714 18.8066 8.55523 18.8066 10.3407V16.5643H13.661V0.435932H13.6585ZM32.7539 16.9995C31.1842 16.9995 29.8151 16.6308 28.6489 15.8949C27.5047 15.1589 26.5952 14.1142 26.0247 12.8831C25.4192 11.5904 25.1144 10.1275 25.1144 8.50012C25.1144 6.89377 25.4306 5.44302 26.0582 4.15032C26.6466 2.90139 27.5805 1.84534 28.7499 1.10538C29.9373 0.369474 31.2951 0.000709822 32.8215 0.000709822C33.9649 0.000709822 34.9868 0.247092 35.8833 0.737427C36.7798 1.22938 37.4529 1.89883 37.902 2.74496V0.435932H43.0158V16.5643H37.902V14.2885C37.4529 15.0917 36.7578 15.749 35.8157 16.2628C34.8736 16.7596 33.8206 17.0125 32.7539 16.9995ZM34.2346 12.7494C35.4677 12.7494 36.4212 12.3482 37.0943 11.5451C37.7675 10.7419 38.1041 9.72636 38.1041 8.50012C38.1041 7.29576 37.7675 6.29158 37.0943 5.48841C36.4212 4.68523 35.4677 4.28405 34.2346 4.28405C33.0668 4.28405 32.1263 4.67389 31.4083 5.45518C30.7132 6.23647 30.3652 7.25037 30.3652 8.50012C30.3652 9.74986 30.7132 10.7751 31.4083 11.5783C32.1263 12.3596 33.0684 12.7494 34.2346 12.7494ZM46.6163 0.435932H51.7644V2.77819C52.1246 1.95151 52.7065 1.28206 53.5133 0.770657C54.3446 0.25925 55.3087 0.000709822 56.4072 0.000709822C58.9646 0.000709822 60.6589 0.992727 61.4877 2.97919C61.9441 2.07876 62.658 1.33394 63.5406 0.837927C64.4843 0.273029 65.5682 -0.0163101 66.6692 0.000709822C70.5052 0.000709822 72.4228 2.18574 72.4228 6.55904V16.5643H67.2413V7.49594C67.2413 6.40424 67.0392 5.60106 66.6358 5.08722C66.2316 4.57501 65.6261 4.31728 64.8184 4.31728C63.944 4.31728 63.2708 4.61877 62.7998 5.22095C62.3287 5.80125 62.0932 6.81515 62.0932 8.26589V16.5643H56.9117V7.46271C56.9117 6.3702 56.7104 5.57756 56.3062 5.08722C55.9264 4.57501 55.3307 4.31728 54.5247 4.31728C53.6266 4.31728 52.942 4.61877 52.471 5.22095C51.9999 5.80125 51.7644 6.81515 51.7644 8.26589V16.5643H46.6179V0.435932H46.6163ZM91.7618 7.66371C91.7618 8.35423 91.7162 9.1023 91.6249 9.90547H79.6491C79.6947 10.9542 80.0525 11.7558 80.7256 12.315C81.3988 12.8718 82.3091 13.1514 83.4508 13.1514C85.0441 13.1514 86.0538 12.6708 86.4792 11.712H91.5263C91.2785 13.2965 90.4041 14.5778 88.9013 15.5601C87.4213 16.5189 85.604 16.9995 83.4508 16.9995C80.6702 16.9995 78.4828 16.2515 76.8896 14.7569C75.32 13.2616 74.5344 11.1771 74.5344 8.50012C74.5344 6.76004 74.893 5.25418 75.6109 3.98255C76.3045 2.71254 77.3737 1.68487 78.6727 1.03811C79.997 0.34759 81.5333 0.000709822 83.2846 0.000709822C84.943 0.000709822 86.4116 0.324087 87.6903 0.971653C88.9909 1.61922 89.9901 2.52208 90.6844 3.68187C91.4032 4.84327 91.7618 6.17001 91.7618 7.66371ZM86.6789 6.72681C86.6569 5.65618 86.3545 4.84084 85.7702 4.28405C85.1883 3.72725 84.3457 3.44764 83.2471 3.44764C82.1485 3.44764 81.2741 3.74833 80.6229 4.35132C79.9954 4.93161 79.6702 5.72263 79.6466 6.72681H86.6789ZM94.0315 0.435932H99.1796V3.8156C99.4485 2.65419 99.9986 1.76267 100.828 1.13861C101.633 0.508066 102.629 0.166046 103.655 0.168478C104.192 0.168478 104.642 0.213863 105 0.302204V5.05399C104.487 4.9924 103.97 4.95917 103.452 4.9535C102.039 4.9535 100.975 5.40979 100.256 6.32481C99.5373 7.21714 99.1796 8.55523 99.1796 10.3407V16.5643H94.0315V0.435932Z" fill="#A56758" fill-opacity="0.3"/>
<path d="M0 0H11.0976V5.66667H5.54878L0 0ZM0 5.66667H5.54878L11.0976 11.3333H0V5.66667ZM0 11.3333H5.54878V17L0 11.3333Z" fill="#A56758" fill-opacity="0.3"/>
</svg>
