<svg width="226" height="74" viewBox="0 0 226 74" fill="none" xmlns="http://www.w3.org/2000/svg">
<g opacity="0.5">
<path d="M1 27.9727V71.5L7.25698 65.9V32.8091L36 10.9182L64.9385 32.8091V65.9L71 71.5V27.9727L36 1.5L1 27.9727Z" stroke="black" stroke-width="2"/>
<path d="M18.0112 40.7V59.0273L24.4637 56.9909V45.5364L36 36.8818L47.7318 45.5364V56.9909L53.7933 59.0273V40.7L36 27.9727L18.0112 40.7Z" stroke="black" stroke-width="2"/>
<path d="M90.7505 30.5698L95.8705 16.5698H98.9305L104.031 30.5698H101.171L97.3705 19.6498L93.5705 30.5698H90.7505ZM93.0105 27.3898L93.7305 25.2898H100.851L101.551 27.3898H93.0105ZM105.831 30.5698V16.5698H111.051C112.184 16.5698 113.117 16.7632 113.851 17.1498C114.584 17.5365 115.131 18.0565 115.491 18.7098C115.851 19.3498 116.031 20.0632 116.031 20.8498C116.031 21.5965 115.857 22.2965 115.511 22.9498C115.164 23.5898 114.617 24.1098 113.871 24.5098C113.137 24.8965 112.191 25.0898 111.031 25.0898H108.531V30.5698H105.831ZM113.091 30.5698L110.211 24.4098H113.131L116.171 30.5698H113.091ZM108.531 23.1298H110.891C111.704 23.1298 112.304 22.9298 112.691 22.5298C113.077 22.1298 113.271 21.6032 113.271 20.9498C113.271 20.2965 113.077 19.7832 112.691 19.4098C112.317 19.0232 111.717 18.8298 110.891 18.8298H108.531V23.1298ZM124.729 30.8098C123.329 30.8098 122.122 30.5098 121.109 29.9098C120.095 29.2965 119.315 28.4498 118.769 27.3698C118.222 26.2765 117.949 25.0165 117.949 23.5898C117.949 22.1632 118.222 20.9032 118.769 19.8098C119.315 18.7165 120.095 17.8632 121.109 17.2498C122.122 16.6365 123.329 16.3298 124.729 16.3298C126.435 16.3298 127.829 16.7498 128.909 17.5898C129.989 18.4298 130.662 19.6165 130.929 21.1498H127.969C127.795 20.4032 127.435 19.8232 126.889 19.4098C126.342 18.9832 125.615 18.7698 124.709 18.7698C123.869 18.7698 123.149 18.9698 122.549 19.3698C121.949 19.7565 121.489 20.3098 121.169 21.0298C120.862 21.7365 120.709 22.5898 120.709 23.5898C120.709 24.5765 120.862 25.4298 121.169 26.1498C121.489 26.8698 121.949 27.4232 122.549 27.8098C123.149 28.1965 123.869 28.3898 124.709 28.3898C125.615 28.3898 126.342 28.1965 126.889 27.8098C127.435 27.4098 127.795 26.8565 127.969 26.1498H130.929C130.662 27.6032 129.989 28.7432 128.909 29.5698C127.829 30.3965 126.435 30.8098 124.729 30.8098ZM142.014 30.5698V16.5698H144.714V30.5698H142.014ZM133.194 30.5698V16.5698H135.894V30.5698H133.194ZM135.514 24.5098V22.3298H142.474V24.5098H135.514ZM147.413 30.5698V16.5698H150.113V30.5698H147.413ZM156.063 30.5698V18.7498H151.963V16.5698H162.843V18.7498H158.743V30.5698H156.063ZM164.717 30.5698V16.5698H173.917V18.7498H167.417V22.4098H173.317V24.5098H167.417V28.3898H173.917V30.5698H164.717ZM182.659 30.8098C181.259 30.8098 180.052 30.5098 179.039 29.9098C178.025 29.2965 177.245 28.4498 176.699 27.3698C176.152 26.2765 175.879 25.0165 175.879 23.5898C175.879 22.1632 176.152 20.9032 176.699 19.8098C177.245 18.7165 178.025 17.8632 179.039 17.2498C180.052 16.6365 181.259 16.3298 182.659 16.3298C184.365 16.3298 185.759 16.7498 186.839 17.5898C187.919 18.4298 188.592 19.6165 188.859 21.1498H185.899C185.725 20.4032 185.365 19.8232 184.819 19.4098C184.272 18.9832 183.545 18.7698 182.639 18.7698C181.799 18.7698 181.079 18.9698 180.479 19.3698C179.879 19.7565 179.419 20.3098 179.099 21.0298C178.792 21.7365 178.639 22.5898 178.639 23.5898C178.639 24.5765 178.792 25.4298 179.099 26.1498C179.419 26.8698 179.879 27.4232 180.479 27.8098C181.079 28.1965 181.799 28.3898 182.639 28.3898C183.545 28.3898 184.272 28.1965 184.819 27.8098C185.365 27.4098 185.725 26.8565 185.899 26.1498H188.859C188.592 27.6032 187.919 28.7432 186.839 29.5698C185.759 30.3965 184.365 30.8098 182.659 30.8098ZM194.247 30.5698V18.7498H190.147V16.5698H201.027V18.7498H196.927V30.5698H194.247ZM90.9185 50.5698V44.9698H92.4305C93.0812 44.9698 93.6172 45.0845 94.0385 45.3138C94.4652 45.5432 94.7799 45.8685 94.9825 46.2898C95.1905 46.7058 95.2945 47.2018 95.2945 47.7778C95.2945 48.3538 95.1905 48.8498 94.9825 49.2658C94.7799 49.6818 94.4652 50.0045 94.0385 50.2338C93.6172 50.4578 93.0812 50.5698 92.4305 50.5698H90.9185ZM91.7185 49.8978H92.3985C92.9105 49.8978 93.3185 49.8125 93.6225 49.6418C93.9265 49.4712 94.1425 49.2285 94.2705 48.9138C94.4039 48.5938 94.4705 48.2152 94.4705 47.7778C94.4705 47.3352 94.4039 46.9538 94.2705 46.6338C94.1425 46.3138 93.9265 46.0685 93.6225 45.8978C93.3185 45.7272 92.9105 45.6418 92.3985 45.6418H91.7185V49.8978ZM101.486 50.5698V44.9698H105.022V45.6258H102.286V47.4178H104.782V48.0578H102.286V49.9138H105.022V50.5698H101.486ZM113.127 50.6658C112.722 50.6658 112.364 50.5938 112.055 50.4498C111.746 50.3005 111.506 50.0925 111.335 49.8258C111.164 49.5592 111.079 49.2472 111.079 48.8898H111.919C111.919 49.0925 111.967 49.2792 112.063 49.4498C112.159 49.6152 112.295 49.7485 112.471 49.8498C112.652 49.9458 112.871 49.9938 113.127 49.9938C113.351 49.9938 113.543 49.9565 113.703 49.8818C113.868 49.8072 113.994 49.7058 114.079 49.5778C114.164 49.4445 114.207 49.2925 114.207 49.1218C114.207 48.9405 114.164 48.7885 114.079 48.6658C113.999 48.5378 113.887 48.4312 113.743 48.3458C113.599 48.2605 113.428 48.1832 113.231 48.1138C113.039 48.0445 112.831 47.9752 112.607 47.9058C112.138 47.7565 111.794 47.5672 111.575 47.3378C111.356 47.1032 111.247 46.8018 111.247 46.4338C111.247 46.1192 111.319 45.8472 111.463 45.6178C111.612 45.3832 111.823 45.2018 112.095 45.0738C112.367 44.9405 112.684 44.8738 113.047 44.8738C113.415 44.8738 113.732 44.9405 113.999 45.0738C114.271 45.2072 114.484 45.3912 114.639 45.6258C114.794 45.8605 114.874 46.1352 114.879 46.4498H114.031C114.031 46.3058 113.994 46.1645 113.919 46.0258C113.844 45.8872 113.732 45.7752 113.583 45.6898C113.434 45.5992 113.25 45.5538 113.031 45.5538C112.85 45.5485 112.687 45.5778 112.543 45.6418C112.399 45.7058 112.284 45.7992 112.199 45.9218C112.119 46.0445 112.079 46.1912 112.079 46.3618C112.079 46.5325 112.116 46.6712 112.191 46.7778C112.266 46.8792 112.37 46.9672 112.503 47.0418C112.642 47.1165 112.804 47.1858 112.991 47.2498C113.178 47.3085 113.383 47.3752 113.607 47.4498C113.879 47.5405 114.124 47.6525 114.343 47.7858C114.562 47.9138 114.732 48.0818 114.855 48.2898C114.983 48.4925 115.047 48.7538 115.047 49.0738C115.047 49.3512 114.975 49.6098 114.831 49.8498C114.687 50.0898 114.474 50.2872 114.191 50.4418C113.908 50.5912 113.554 50.6658 113.127 50.6658ZM121.253 50.5698V44.9698H122.053V50.5698H121.253ZM130.885 50.6658C130.357 50.6658 129.895 50.5458 129.501 50.3058C129.106 50.0658 128.799 49.7298 128.581 49.2978C128.362 48.8658 128.253 48.3618 128.253 47.7858C128.253 47.2152 128.362 46.7112 128.581 46.2738C128.805 45.8365 129.122 45.4952 129.533 45.2498C129.949 44.9992 130.439 44.8738 131.005 44.8738C131.645 44.8738 132.175 45.0285 132.597 45.3378C133.023 45.6418 133.298 46.0658 133.421 46.6098H132.509C132.429 46.3005 132.261 46.0578 132.005 45.8818C131.749 45.7005 131.413 45.6098 130.997 45.6098C130.602 45.6098 130.258 45.6978 129.965 45.8738C129.677 46.0498 129.455 46.3005 129.301 46.6258C129.146 46.9512 129.069 47.3378 129.069 47.7858C129.069 48.2392 129.146 48.6285 129.301 48.9538C129.455 49.2792 129.674 49.5272 129.957 49.6978C130.239 49.8685 130.565 49.9538 130.933 49.9538C131.498 49.9538 131.925 49.7912 132.213 49.4658C132.501 49.1405 132.666 48.7058 132.709 48.1618H131.165V47.5458H133.525V50.5698H132.789L132.725 49.7138C132.591 49.9218 132.439 50.0978 132.269 50.2418C132.103 50.3805 131.909 50.4872 131.685 50.5618C131.461 50.6312 131.194 50.6658 130.885 50.6658ZM139.817 50.5698V44.9698H140.617L143.473 49.2738V44.9698H144.273V50.5698H143.473L140.617 46.2738V50.5698H139.817ZM157.967 50.5698V44.9698H160.039C160.434 44.9698 160.762 45.0338 161.023 45.1618C161.284 45.2845 161.479 45.4552 161.607 45.6738C161.74 45.8872 161.807 46.1298 161.807 46.4018C161.807 46.6845 161.743 46.9218 161.615 47.1138C161.492 47.3058 161.33 47.4552 161.127 47.5618C160.93 47.6632 160.716 47.7218 160.487 47.7378L160.607 47.6578C160.852 47.6632 161.074 47.7298 161.271 47.8578C161.474 47.9805 161.634 48.1458 161.751 48.3538C161.874 48.5618 161.935 48.7912 161.935 49.0418C161.935 49.3298 161.863 49.5912 161.719 49.8258C161.58 50.0552 161.375 50.2365 161.103 50.3698C160.836 50.5032 160.506 50.5698 160.111 50.5698H157.967ZM158.767 49.9058H160.007C160.354 49.9058 160.626 49.8258 160.823 49.6658C161.02 49.5005 161.119 49.2685 161.119 48.9698C161.119 48.6765 161.018 48.4418 160.815 48.2658C160.612 48.0898 160.338 48.0018 159.991 48.0018H158.767V49.9058ZM158.767 47.3858H159.951C160.287 47.3858 160.543 47.3085 160.719 47.1538C160.895 46.9938 160.983 46.7752 160.983 46.4978C160.983 46.2312 160.895 46.0205 160.719 45.8658C160.543 45.7058 160.282 45.6258 159.935 45.6258H158.767V47.3858ZM170.144 50.6658C169.755 50.6658 169.4 50.5885 169.08 50.4338C168.76 50.2738 168.504 50.0338 168.312 49.7138C168.126 49.3885 168.032 48.9752 168.032 48.4738V44.9698H168.832V48.4818C168.832 48.8178 168.886 49.0952 168.992 49.3138C169.104 49.5272 169.262 49.6872 169.464 49.7938C169.667 49.8952 169.899 49.9458 170.16 49.9458C170.432 49.9458 170.667 49.8952 170.864 49.7938C171.062 49.6872 171.214 49.5272 171.32 49.3138C171.432 49.0952 171.488 48.8178 171.488 48.4818V44.9698H172.288V48.4738C172.288 48.9752 172.192 49.3885 172 49.7138C171.808 50.0338 171.55 50.2738 171.224 50.4338C170.904 50.5885 170.544 50.6658 170.144 50.6658ZM178.617 50.5698V44.9698H179.417V50.5698H178.617ZM185.833 50.5698V44.9698H186.633V49.9378H189.193V50.5698H185.833ZM195.369 50.5698V44.9698H196.881C197.531 44.9698 198.067 45.0845 198.489 45.3138C198.915 45.5432 199.23 45.8685 199.433 46.2898C199.641 46.7058 199.745 47.2018 199.745 47.7778C199.745 48.3538 199.641 48.8498 199.433 49.2658C199.23 49.6818 198.915 50.0045 198.489 50.2338C198.067 50.4578 197.531 50.5698 196.881 50.5698H195.369ZM196.169 49.8978H196.849C197.361 49.8978 197.769 49.8125 198.073 49.6418C198.377 49.4712 198.593 49.2285 198.721 48.9138C198.854 48.5938 198.921 48.2152 198.921 47.7778C198.921 47.3352 198.854 46.9538 198.721 46.6338C198.593 46.3138 198.377 46.0685 198.073 45.8978C197.769 45.7272 197.361 45.6418 196.849 45.6418H196.169V49.8978Z" fill="black"/>
</g>
</svg>
