<svg width="185" height="75" viewBox="0 0 185 75" fill="none" xmlns="http://www.w3.org/2000/svg">
<g opacity="0.5">
<path d="M89.36 32.75V18.75H92.58L96.9 27.47L101.18 18.75H104.4V32.75H101.7V23.33L97.96 30.77H95.82L92.06 23.33V32.75H89.36ZM113.634 32.99C112.261 32.99 111.047 32.6833 109.994 32.07C108.954 31.4567 108.134 30.61 107.534 29.53C106.947 28.4367 106.654 27.1767 106.654 25.75C106.654 24.3233 106.947 23.07 107.534 21.99C108.134 20.8967 108.954 20.0433 109.994 19.43C111.047 18.8167 112.261 18.51 113.634 18.51C115.021 18.51 116.241 18.8167 117.294 19.43C118.347 20.0433 119.167 20.8967 119.754 21.99C120.341 23.07 120.634 24.3233 120.634 25.75C120.634 27.1767 120.341 28.4367 119.754 29.53C119.167 30.61 118.347 31.4567 117.294 32.07C116.241 32.6833 115.021 32.99 113.634 32.99ZM113.634 30.57C114.501 30.57 115.247 30.3767 115.874 29.99C116.514 29.59 117.007 29.03 117.354 28.31C117.701 27.59 117.874 26.7367 117.874 25.75C117.874 24.75 117.701 23.8967 117.354 23.19C117.007 22.47 116.514 21.9167 115.874 21.53C115.247 21.1433 114.501 20.95 113.634 20.95C112.781 20.95 112.034 21.1433 111.394 21.53C110.767 21.9167 110.281 22.47 109.934 23.19C109.587 23.8967 109.414 24.75 109.414 25.75C109.414 26.7367 109.587 27.59 109.934 28.31C110.281 29.03 110.767 29.59 111.394 29.99C112.034 30.3767 112.781 30.57 113.634 30.57ZM122.895 32.75V18.75H127.695C129.322 18.75 130.662 19.0433 131.715 19.63C132.782 20.2033 133.568 21.0167 134.075 22.07C134.595 23.11 134.855 24.3367 134.855 25.75C134.855 27.1633 134.595 28.3967 134.075 29.45C133.568 30.49 132.782 31.3033 131.715 31.89C130.662 32.4633 129.315 32.75 127.675 32.75H122.895ZM125.595 30.43H127.535C128.682 30.43 129.588 30.2433 130.255 29.87C130.922 29.4967 131.395 28.9633 131.675 28.27C131.955 27.5633 132.095 26.7233 132.095 25.75C132.095 24.7633 131.955 23.9233 131.675 23.23C131.395 22.5233 130.922 21.9833 130.255 21.61C129.588 21.2367 128.682 21.05 127.535 21.05H125.595V30.43ZM137.114 32.75V18.75H146.314V20.93H139.814V24.59H145.714V26.69H139.814V30.57H146.314V32.75H137.114ZM148.735 32.75V18.75H153.955C155.088 18.75 156.022 18.9433 156.755 19.33C157.488 19.7167 158.035 20.2367 158.395 20.89C158.755 21.53 158.935 22.2433 158.935 23.03C158.935 23.7767 158.762 24.4767 158.415 25.13C158.068 25.77 157.522 26.29 156.775 26.69C156.042 27.0767 155.095 27.27 153.935 27.27H151.435V32.75H148.735ZM155.995 32.75L153.115 26.59H156.035L159.075 32.75H155.995ZM151.435 25.31H153.795C154.608 25.31 155.208 25.11 155.595 24.71C155.982 24.31 156.175 23.7833 156.175 23.13C156.175 22.4767 155.982 21.9633 155.595 21.59C155.222 21.2033 154.622 21.01 153.795 21.01H151.435V25.31ZM161.313 32.75V18.75H164.013L170.453 28.41V18.75H173.153V32.75H170.453L164.013 23.13V32.75H161.313Z" fill="black"/>
<path d="M88.232 54.75L90.288 49.15H91.16L93.216 54.75H92.36L90.72 50.11L89.072 54.75H88.232ZM89.16 53.366L89.384 52.726H92.016L92.24 53.366H89.16ZM97.5655 54.75V49.15H99.4615C99.9042 49.15 100.267 49.2247 100.55 49.374C100.832 49.5233 101.04 49.7233 101.174 49.974C101.312 50.2193 101.382 50.4993 101.382 50.814C101.382 51.1127 101.312 51.39 101.174 51.646C101.04 51.8967 100.83 52.0993 100.542 52.254C100.254 52.4033 99.8855 52.478 99.4375 52.478H98.3655V54.75H97.5655ZM100.51 54.75L99.3015 52.262H100.182L101.438 54.75H100.51ZM98.3655 51.87H99.4135C99.8082 51.87 100.096 51.774 100.278 51.582C100.464 51.3847 100.558 51.134 100.558 50.83C100.558 50.5207 100.467 50.2753 100.286 50.094C100.104 49.9127 99.8108 49.822 99.4055 49.822H98.3655V51.87ZM108.36 54.846C107.827 54.846 107.365 54.726 106.976 54.486C106.587 54.2407 106.285 53.902 106.072 53.47C105.864 53.0327 105.76 52.526 105.76 51.95C105.76 51.3793 105.864 50.8753 106.072 50.438C106.285 50.0007 106.587 49.662 106.976 49.422C107.365 49.1767 107.827 49.054 108.36 49.054C109.005 49.054 109.531 49.2113 109.936 49.526C110.341 49.8407 110.597 50.2833 110.704 50.854H109.84C109.755 50.5233 109.589 50.2593 109.344 50.062C109.099 49.8647 108.768 49.766 108.352 49.766C107.989 49.766 107.675 49.854 107.408 50.03C107.141 50.206 106.936 50.4567 106.792 50.782C106.648 51.1073 106.576 51.4967 106.576 51.95C106.576 52.4033 106.648 52.7953 106.792 53.126C106.936 53.4513 107.141 53.702 107.408 53.878C107.675 54.0487 107.989 54.134 108.352 54.134C108.768 54.134 109.099 54.0407 109.344 53.854C109.589 53.662 109.755 53.4033 109.84 53.078H110.704C110.597 53.6327 110.341 54.0673 109.936 54.382C109.531 54.6913 109.005 54.846 108.36 54.846ZM118.783 54.75V49.15H119.583V54.75H118.783ZM115.223 54.75V49.15H116.023V54.75H115.223ZM115.887 52.222V51.566H118.959V52.222H115.887ZM124.321 54.75V49.15H125.121V54.75H124.321ZM131.152 54.75V49.806H129.496V49.15H133.616V49.806H131.952V54.75H131.152ZM137.986 54.75V49.15H141.522V49.806H138.786V51.598H141.282V52.238H138.786V54.094H141.522V54.75H137.986ZM148.499 54.846C147.966 54.846 147.505 54.726 147.115 54.486C146.726 54.2407 146.425 53.902 146.211 53.47C146.003 53.0327 145.899 52.526 145.899 51.95C145.899 51.3793 146.003 50.8753 146.211 50.438C146.425 50.0007 146.726 49.662 147.115 49.422C147.505 49.1767 147.966 49.054 148.499 49.054C149.145 49.054 149.67 49.2113 150.075 49.526C150.481 49.8407 150.737 50.2833 150.843 50.854H149.979C149.894 50.5233 149.729 50.2593 149.483 50.062C149.238 49.8647 148.907 49.766 148.491 49.766C148.129 49.766 147.814 49.854 147.547 50.03C147.281 50.206 147.075 50.4567 146.931 50.782C146.787 51.1073 146.715 51.4967 146.715 51.95C146.715 52.4033 146.787 52.7953 146.931 53.126C147.075 53.4513 147.281 53.702 147.547 53.878C147.814 54.0487 148.129 54.134 148.491 54.134C148.907 54.134 149.238 54.0407 149.483 53.854C149.729 53.662 149.894 53.4033 149.979 53.078H150.843C150.737 53.6327 150.481 54.0673 150.075 54.382C149.67 54.6913 149.145 54.846 148.499 54.846ZM156.548 54.75V49.806H154.892V49.15H159.012V49.806H157.348V54.75H156.548ZM165.414 54.846C165.024 54.846 164.67 54.7687 164.35 54.614C164.03 54.454 163.774 54.214 163.582 53.894C163.395 53.5687 163.302 53.1553 163.302 52.654V49.15H164.102V52.662C164.102 52.998 164.155 53.2753 164.262 53.494C164.374 53.7073 164.531 53.8673 164.734 53.974C164.936 54.0753 165.168 54.126 165.43 54.126C165.702 54.126 165.936 54.0753 166.134 53.974C166.331 53.8673 166.483 53.7073 166.59 53.494C166.702 53.2753 166.758 52.998 166.758 52.662V49.15H167.558V52.654C167.558 53.1553 167.462 53.5687 167.27 53.894C167.078 54.214 166.819 54.454 166.494 54.614C166.174 54.7687 165.814 54.846 165.414 54.846ZM172.206 54.75V49.15H174.102C174.545 49.15 174.908 49.2247 175.19 49.374C175.473 49.5233 175.681 49.7233 175.814 49.974C175.953 50.2193 176.022 50.4993 176.022 50.814C176.022 51.1127 175.953 51.39 175.814 51.646C175.681 51.8967 175.47 52.0993 175.182 52.254C174.894 52.4033 174.526 52.478 174.078 52.478H173.006V54.75H172.206ZM175.15 54.75L173.942 52.262H174.822L176.078 54.75H175.15ZM173.006 51.87H174.054C174.449 51.87 174.737 51.774 174.918 51.582C175.105 51.3847 175.198 51.134 175.198 50.83C175.198 50.5207 175.108 50.2753 174.926 50.094C174.745 49.9127 174.452 49.822 174.046 49.822H173.006V51.87ZM180.617 54.75V49.15H184.153V49.806H181.417V51.598H183.913V52.238H181.417V54.094H184.153V54.75H180.617Z" fill="black"/>
<path d="M1 73.25V26.0461H48.2039V73.25H1ZM1 73.25L21.1311 53.1189M21.1311 53.1189V20.4927L44.0388 1.75L66.9466 20.4927V53.1189H21.1311Z" stroke="black" stroke-width="2"/>
</g>
</svg>
