<svg width="150" height="75" viewBox="0 0 150 75" fill="none" xmlns="http://www.w3.org/2000/svg">
<g opacity="0.5">
<path d="M31.8443 73L62.2061 54.3158M31.8443 73L16.6633 63.6579M31.8443 73V20.6842M1.48242 54.3158V19.2829L31.8443 2M1.48242 54.3158L16.6633 63.6579M1.48242 54.3158L16.6633 45.9079M31.8443 2V20.6842M31.8443 2L47.0252 10.6414M62.2061 54.3158V36.7993M62.2061 54.3158L46.7916 45.4623M16.6633 63.6579V45.9079M16.6633 45.9079V28.1579L46.7916 45.4623M31.8443 20.6842L62.2061 36.7993M62.2061 36.7993V19.2829L47.0252 10.6414M46.7916 45.4623L47.0252 10.6414" stroke="black" stroke-width="2"/>
<path d="M78.3498 15.0789V4.03658H74.5195V2H84.6651V4.03658H80.8535V15.0789H78.3498Z" fill="black"/>
<path d="M94.6925 15.0789V2H97.2149V15.0789H94.6925ZM86.4528 15.0789V2H88.9751V15.0789H86.4528ZM88.6201 9.41763V7.38105H95.1222V9.41763H88.6201Z" fill="black"/>
<path d="M99.7908 15.0789V2H108.386V4.03658H102.313V7.45579H107.825V9.41763H102.313V13.0424H108.386V15.0789H99.7908Z" fill="black"/>
<path d="M79.8072 43.3295C78.8605 43.3295 78.0135 43.1675 77.2661 42.8437C76.5312 42.5198 75.9458 42.0465 75.5098 41.4237C75.0863 40.8009 74.8683 40.0473 74.8558 39.1629H77.5277C77.5401 39.549 77.6398 39.8978 77.8266 40.2092C78.0135 40.5206 78.2688 40.7697 78.5927 40.9566C78.929 41.131 79.3276 41.2182 79.7885 41.2182C80.1871 41.2182 80.5296 41.1559 80.8161 41.0313C81.1151 40.8943 81.3455 40.7075 81.5074 40.4708C81.6694 40.2341 81.7503 39.9539 81.7503 39.63C81.7503 39.2563 81.6569 38.9449 81.4701 38.6958C81.2957 38.4467 81.0465 38.2349 80.7227 38.0605C80.4113 37.8861 80.0438 37.7304 79.6203 37.5934C79.2093 37.4439 78.7733 37.2882 78.3124 37.1263C77.2786 36.79 76.4876 36.3416 75.9395 35.781C75.4039 35.2205 75.1361 34.4794 75.1361 33.5576C75.1361 32.7729 75.323 32.1003 75.6966 31.5397C76.0828 30.9792 76.6122 30.5495 77.2848 30.2505C77.9574 29.9516 78.7235 29.8021 79.583 29.8021C80.4673 29.8021 81.2396 29.9578 81.8998 30.2692C82.5724 30.5682 83.1018 31.0041 83.4879 31.5771C83.8865 32.1501 84.0921 32.8227 84.1045 33.595H81.414C81.4015 33.3085 81.3144 33.0407 81.1524 32.7916C81.0029 32.53 80.7912 32.3245 80.5172 32.175C80.2431 32.0131 79.9193 31.9321 79.5456 31.9321C79.2217 31.9196 78.9228 31.9695 78.6487 32.0816C78.3872 32.1937 78.1754 32.3618 78.0135 32.586C77.864 32.7978 77.7893 33.0656 77.7893 33.3895C77.7893 33.7009 77.864 33.9625 78.0135 34.1742C78.1754 34.386 78.3934 34.5728 78.6674 34.7347C78.9415 34.8842 79.2653 35.0275 79.639 35.1645C80.0127 35.289 80.4175 35.4198 80.8535 35.5568C81.5012 35.781 82.0991 36.0489 82.6472 36.3603C83.1952 36.6592 83.6312 37.0516 83.9551 37.5374C84.2789 38.0232 84.4408 38.6646 84.4408 39.4618C84.4408 40.1469 84.2602 40.7822 83.899 41.3676C83.5378 41.9531 83.0146 42.4264 82.3295 42.7876C81.6569 43.1489 80.8161 43.3295 79.8072 43.3295Z" fill="black"/>
<path d="M86.5805 43.1053V30.0263H91.4757C92.5345 30.0263 93.4127 30.2069 94.1102 30.5682C94.8078 30.9294 95.3247 31.4152 95.661 32.0255C95.9973 32.6359 96.1655 33.3334 96.1655 34.1182C96.1655 34.8406 96.0035 35.507 95.6797 36.1174C95.3558 36.7277 94.8451 37.226 94.1476 37.6121C93.45 37.9858 92.5594 38.1726 91.4757 38.1726H89.1028V43.1053H86.5805ZM89.1028 36.136H91.3263C92.1359 36.136 92.7151 35.9554 93.0639 35.5942C93.4251 35.2205 93.6057 34.7285 93.6057 34.1182C93.6057 33.4704 93.4251 32.9722 93.0639 32.6234C92.7151 32.2622 92.1359 32.0816 91.3263 32.0816H89.1028V36.136Z" fill="black"/>
<path d="M95.8108 43.1053L100.594 30.0263H103.453L108.217 43.1053H105.545L102.014 32.9037L98.4639 43.1053H95.8108ZM97.9221 40.1345L98.5947 38.1726H105.246L105.9 40.1345H97.9221Z" fill="black"/>
<path d="M115.054 43.3295C113.747 43.3295 112.619 43.0492 111.673 42.4887C110.738 41.9157 110.016 41.1247 109.505 40.1158C109.007 39.0944 108.758 37.9173 108.758 36.5845C108.758 35.2517 109.007 34.0746 109.505 33.0532C110.016 32.0318 110.738 31.2346 111.673 30.6616C112.619 30.0886 113.747 29.8021 115.054 29.8021C116.636 29.8021 117.932 30.1945 118.941 30.9792C119.95 31.7639 120.579 32.8725 120.828 34.305H118.081C117.919 33.6075 117.577 33.0656 117.054 32.6795C116.543 32.2809 115.87 32.0816 115.036 32.0816C114.264 32.0816 113.597 32.2684 113.037 32.6421C112.489 33.0033 112.065 33.5203 111.766 34.1929C111.467 34.8531 111.318 35.6503 111.318 36.5845C111.318 37.5062 111.467 38.3034 111.766 38.976C112.065 39.6487 112.489 40.1656 113.037 40.5268C113.597 40.8881 114.264 41.0687 115.036 41.0687C115.87 41.0687 116.543 40.8881 117.054 40.5268C117.564 40.1532 117.901 39.6362 118.063 38.976H120.828C120.579 40.3338 119.95 41.3988 118.941 42.171C117.932 42.9433 116.636 43.3295 115.054 43.3295Z" fill="black"/>
<path d="M122.982 43.1053V30.0263H131.577V32.0629H125.504V35.4821H131.016V37.4439H125.504V41.0687H131.577V43.1053H122.982Z" fill="black"/>
<path d="M81.0403 71.3558C79.7947 71.3558 78.711 71.0817 77.7893 70.5337C76.8675 69.9731 76.1513 69.1946 75.6406 68.1981C75.1299 67.1892 74.8745 66.0183 74.8745 64.6855C74.8745 63.3403 75.1361 62.1569 75.6593 61.1355C76.1824 60.1017 76.936 59.292 77.9201 58.7066C78.9041 58.1211 80.0812 57.8284 81.4514 57.8284C82.9835 57.8284 84.254 58.1959 85.2629 58.9308C86.2844 59.6657 86.9445 60.6871 87.2435 61.995H84.4222C84.2353 61.422 83.8865 60.9736 83.3758 60.6497C82.8776 60.3134 82.2299 60.1453 81.4327 60.1453C80.5857 60.1453 79.8632 60.3321 79.2653 60.7058C78.6674 61.0795 78.2128 61.6026 77.9014 62.2752C77.59 62.9479 77.4343 63.7513 77.4343 64.6855C77.4343 65.6322 77.59 66.4356 77.9014 67.0958C78.2128 67.756 78.655 68.2604 79.228 68.6092C79.8134 68.9455 80.4985 69.1137 81.2832 69.1137C82.4292 69.1137 83.2949 68.8085 83.8803 68.1981C84.4782 67.5753 84.8332 66.7719 84.9453 65.7879H81.7316V63.9008H87.4864V71.1316H85.1508L84.964 69.4687C84.69 69.8797 84.3661 70.2285 83.9924 70.515C83.6312 70.789 83.2077 70.9946 82.7219 71.1316C82.2361 71.281 81.6756 71.3558 81.0403 71.3558Z" fill="black"/>
<path d="M88.9684 71.1316L93.7516 58.0526H96.6102L101.375 71.1316H98.7029L95.1716 60.93L91.6216 71.1316H88.9684ZM91.0797 68.1608L91.7523 66.1989H98.4039L99.0579 68.1608H91.0797Z" fill="black"/>
<path d="M108.212 71.3558C106.904 71.3558 105.777 71.0755 104.83 70.515C103.896 69.942 103.174 69.151 102.663 68.1421C102.165 67.1207 101.916 65.9436 101.916 64.6108C101.916 63.278 102.165 62.1009 102.663 61.0795C103.174 60.0581 103.896 59.2609 104.83 58.6879C105.777 58.1149 106.904 57.8284 108.212 57.8284C109.794 57.8284 111.089 58.2208 112.098 59.0055C113.107 59.7903 113.736 60.8988 113.986 62.3313H111.239C111.077 61.6338 110.734 61.0919 110.211 60.7058C109.701 60.3072 109.028 60.1079 108.193 60.1079C107.421 60.1079 106.755 60.2947 106.194 60.6684C105.646 61.0296 105.223 61.5466 104.924 62.2192C104.625 62.8794 104.475 63.6766 104.475 64.6108C104.475 65.5325 104.625 66.3297 104.924 67.0024C105.223 67.675 105.646 68.1919 106.194 68.5531C106.755 68.9144 107.421 69.095 108.193 69.095C109.028 69.095 109.701 68.9144 110.211 68.5531C110.722 68.1795 111.058 67.6625 111.22 67.0024H113.986C113.736 68.3601 113.107 69.4251 112.098 70.1974C111.089 70.9696 109.794 71.3558 108.212 71.3558Z" fill="black"/>
<path d="M119.057 71.1316V60.0892H115.227V58.0526H125.373V60.0892H121.561V71.1316H119.057Z" fill="black"/>
<path d="M132.224 71.3558C131.265 71.3558 130.393 71.1627 129.608 70.7766C128.823 70.3904 128.2 69.8112 127.739 69.0389C127.279 68.2667 127.048 67.2826 127.048 66.0868V58.0526H129.57V66.1055C129.57 66.7532 129.676 67.3013 129.888 67.7497C130.1 68.1857 130.405 68.5095 130.804 68.7213C131.215 68.9331 131.7 69.0389 132.261 69.0389C132.834 69.0389 133.32 68.9331 133.718 68.7213C134.129 68.5095 134.441 68.1857 134.653 67.7497C134.864 67.3013 134.97 66.7532 134.97 66.1055V58.0526H137.493V66.0868C137.493 67.2826 137.256 68.2667 136.783 69.0389C136.309 69.8112 135.668 70.3904 134.858 70.7766C134.061 71.1627 133.183 71.3558 132.224 71.3558Z" fill="black"/>
<path d="M139.951 71.1316V58.0526H144.827C145.886 58.0526 146.758 58.2332 147.443 58.5945C148.128 58.9557 148.639 59.4415 148.975 60.0518C149.312 60.6497 149.48 61.3161 149.48 62.051C149.48 62.7486 149.318 63.4025 148.994 64.0129C148.67 64.6108 148.159 65.0966 147.462 65.4703C146.777 65.8315 145.892 66.0121 144.809 66.0121H142.473V71.1316H139.951ZM146.733 71.1316L144.043 65.3768H146.771L149.611 71.1316H146.733ZM142.473 64.181H144.678C145.438 64.181 145.998 63.9942 146.36 63.6205C146.721 63.2468 146.901 62.7548 146.901 62.1445C146.901 61.5341 146.721 61.0546 146.36 60.7058C146.011 60.3446 145.45 60.1639 144.678 60.1639H142.473V64.181Z" fill="black"/>
</g>
</svg>
