<svg width="226" height="74" viewBox="0 0 226 74" fill="none" xmlns="http://www.w3.org/2000/svg">
<g opacity="0.5">
<path d="M1 27.9727V71.5L7.25698 65.9V32.8091L36 10.9182L64.9385 32.8091V65.9L71 71.5V27.9727L36 1.5L1 27.9727Z" stroke="white" stroke-width="2"/>
<path d="M18.0112 40.7V59.0273L24.4637 56.9909V45.5364L36 36.8818L47.7318 45.5364V56.9909L53.7933 59.0273V40.7L36 27.9727L18.0112 40.7Z" stroke="white" stroke-width="2"/>
<path d="M90.7505 30.5699L95.8705 16.5699H98.9305L104.031 30.5699H101.171L97.3905 19.6499L93.5905 30.5699H90.7505ZM93.0105 27.3899L93.7305 25.2899H100.851L101.551 27.3899H93.0105ZM105.87 30.5699V16.5699H111.09C112.224 16.5699 113.157 16.7633 113.89 17.1499C114.624 17.5366 115.17 18.0566 115.53 18.7099C115.89 19.3499 116.07 20.0633 116.07 20.8499C116.07 21.5966 115.897 22.2966 115.55 22.9499C115.204 23.5899 114.657 24.1099 113.91 24.5099C113.177 24.8966 112.23 25.0899 111.07 25.0899H108.57V30.5699H105.87ZM113.13 30.5699L110.25 24.4099H113.17L116.21 30.5699H113.13ZM108.57 23.1299H110.93C111.744 23.1299 112.344 22.9299 112.73 22.5299C113.117 22.1299 113.31 21.6033 113.31 20.9499C113.31 20.2966 113.117 19.7833 112.73 19.4099C112.357 19.0233 111.757 18.8299 110.93 18.8299H108.57V23.1299ZM124.767 30.8099C123.367 30.8099 122.161 30.5099 121.147 29.9099C120.147 29.2966 119.374 28.4499 118.827 27.3699C118.294 26.2766 118.027 25.0166 118.027 23.5899C118.027 22.1633 118.294 20.9033 118.827 19.8099C119.374 18.7166 120.147 17.8633 121.147 17.2499C122.161 16.6366 123.367 16.3299 124.767 16.3299C126.461 16.3299 127.847 16.7499 128.927 17.5899C130.007 18.4299 130.681 19.6166 130.947 21.1499H128.007C127.834 20.4033 127.467 19.8233 126.907 19.4099C126.361 18.9833 125.641 18.7699 124.747 18.7699C123.921 18.7699 123.207 18.9699 122.607 19.3699C122.021 19.7566 121.567 20.3099 121.247 21.0299C120.927 21.7366 120.767 22.5899 120.767 23.5899C120.767 24.5766 120.927 25.4299 121.247 26.1499C121.567 26.8699 122.021 27.4233 122.607 27.8099C123.207 28.1966 123.921 28.3899 124.747 28.3899C125.641 28.3899 126.361 28.1966 126.907 27.8099C127.454 27.4099 127.814 26.8566 127.987 26.1499H130.947C130.681 27.6033 130.007 28.7433 128.927 29.5699C127.847 30.3966 126.461 30.8099 124.767 30.8099ZM142.073 30.5699V16.5699H144.773V30.5699H142.073ZM133.253 30.5699V16.5699H135.953V30.5699H133.253ZM135.573 24.5099V22.3299H142.533V24.5099H135.573ZM147.53 30.5699V16.5699H150.23V30.5699H147.53ZM156.24 30.5699V18.7499H152.14V16.5699H163V18.7499H158.92V30.5699H156.24ZM164.913 30.5699V16.5699H174.113V18.7499H167.613V22.4099H173.513V24.5099H167.613V28.3899H174.113V30.5699H164.913ZM182.853 30.8099C181.453 30.8099 180.247 30.5099 179.233 29.9099C178.233 29.2966 177.46 28.4499 176.913 27.3699C176.38 26.2766 176.113 25.0166 176.113 23.5899C176.113 22.1633 176.38 20.9033 176.913 19.8099C177.46 18.7166 178.233 17.8633 179.233 17.2499C180.247 16.6366 181.453 16.3299 182.853 16.3299C184.547 16.3299 185.933 16.7499 187.013 17.5899C188.093 18.4299 188.767 19.6166 189.033 21.1499H186.093C185.92 20.4033 185.553 19.8233 184.993 19.4099C184.447 18.9833 183.727 18.7699 182.833 18.7699C182.007 18.7699 181.293 18.9699 180.693 19.3699C180.107 19.7566 179.653 20.3099 179.333 21.0299C179.013 21.7366 178.853 22.5899 178.853 23.5899C178.853 24.5766 179.013 25.4299 179.333 26.1499C179.653 26.8699 180.107 27.4233 180.693 27.8099C181.293 28.1966 182.007 28.3899 182.833 28.3899C183.727 28.3899 184.447 28.1966 184.993 27.8099C185.54 27.4099 185.9 26.8566 186.073 26.1499H189.033C188.767 27.6033 188.093 28.7433 187.013 29.5699C185.933 30.3966 184.547 30.8099 182.853 30.8099ZM194.462 30.5699V18.7499H190.362V16.5699H201.222V18.7499H197.142V30.5699H194.462ZM90.8945 50.5699V44.9699H92.6145C93.2652 44.9699 93.8039 45.0846 94.2305 45.3139C94.6572 45.5433 94.9719 45.8686 95.1745 46.2899C95.3825 46.7059 95.4865 47.2019 95.4865 47.7779C95.4865 48.3539 95.3825 48.8499 95.1745 49.2659C94.9719 49.6819 94.6572 50.0046 94.2305 50.2339C93.8092 50.4579 93.2705 50.5699 92.6145 50.5699H90.8945ZM91.6945 49.8979H92.5825C93.0999 49.8979 93.5105 49.8126 93.8145 49.6419C94.1185 49.4713 94.3345 49.2286 94.4625 48.9139C94.5959 48.5939 94.6625 48.2153 94.6625 47.7779C94.6625 47.3353 94.5959 46.9539 94.4625 46.6339C94.3345 46.3139 94.1185 46.0686 93.8145 45.8979C93.5105 45.7273 93.0999 45.6419 92.5825 45.6419H91.6945V49.8979ZM101.649 50.5699V44.9699H105.185V45.6259H102.449V47.4179H104.945V48.0579H102.449V49.9139H105.185V50.5699H101.649ZM113.252 50.6659C112.841 50.6659 112.481 50.5939 112.172 50.4499C111.862 50.3006 111.622 50.0926 111.452 49.8259C111.281 49.5593 111.196 49.2473 111.196 48.8899H112.036C112.041 49.0926 112.089 49.2793 112.18 49.4499C112.276 49.6153 112.412 49.7486 112.588 49.8499C112.769 49.9459 112.99 49.9939 113.252 49.9939C113.476 49.9939 113.668 49.9566 113.828 49.8819C113.993 49.8073 114.118 49.7059 114.204 49.5779C114.289 49.4446 114.332 49.2926 114.332 49.1219C114.332 48.9246 114.286 48.7619 114.196 48.6339C114.105 48.5059 113.982 48.4019 113.828 48.3219C113.678 48.2366 113.502 48.1619 113.3 48.0979C113.102 48.0339 112.894 47.9646 112.676 47.8899C112.233 47.7459 111.902 47.5593 111.684 47.3299C111.47 47.1006 111.364 46.8019 111.364 46.4339C111.364 46.1193 111.438 45.8473 111.588 45.6179C111.737 45.3833 111.945 45.2019 112.212 45.0739C112.484 44.9406 112.804 44.8739 113.172 44.8739C113.534 44.8739 113.852 44.9406 114.124 45.0739C114.396 45.2073 114.609 45.3913 114.764 45.6259C114.918 45.8606 114.996 46.1353 114.996 46.4499H114.148C114.148 46.3059 114.11 46.1646 114.036 46.0259C113.961 45.8873 113.849 45.7753 113.7 45.6899C113.55 45.5993 113.366 45.5539 113.148 45.5539C112.966 45.5486 112.804 45.5779 112.66 45.6419C112.516 45.7059 112.404 45.7993 112.324 45.9219C112.244 46.0446 112.204 46.1913 112.204 46.3619C112.204 46.5326 112.238 46.6713 112.308 46.7779C112.382 46.8793 112.489 46.9673 112.628 47.0419C112.766 47.1166 112.926 47.1859 113.108 47.2499C113.294 47.3086 113.5 47.3753 113.724 47.4499C114.001 47.5406 114.246 47.6526 114.46 47.7859C114.678 47.9139 114.849 48.0819 114.972 48.2899C115.1 48.4926 115.164 48.7539 115.164 49.0739C115.164 49.3513 115.092 49.6099 114.948 49.8499C114.804 50.0899 114.59 50.2873 114.308 50.4419C114.025 50.5913 113.673 50.6659 113.252 50.6659ZM121.315 50.5699V44.9699H122.115V50.5699H121.315ZM130.908 50.6659C130.38 50.6659 129.918 50.5459 129.524 50.3059C129.129 50.0659 128.822 49.7299 128.604 49.2979C128.385 48.8659 128.276 48.3619 128.276 47.7859C128.276 47.2153 128.385 46.7113 128.604 46.2739C128.828 45.8366 129.145 45.4953 129.556 45.2499C129.972 44.9993 130.462 44.8739 131.028 44.8739C131.662 44.8739 132.193 45.0286 132.62 45.3379C133.046 45.6419 133.321 46.0659 133.444 46.6099H132.532C132.452 46.3006 132.284 46.0579 132.028 45.8819C131.772 45.7006 131.436 45.6099 131.02 45.6099C130.625 45.6099 130.281 45.6979 129.988 45.8739C129.7 46.0499 129.478 46.3006 129.324 46.6259C129.169 46.9513 129.092 47.3379 129.092 47.7859C129.092 48.2393 129.169 48.6286 129.324 48.9539C129.478 49.2793 129.697 49.5273 129.98 49.6979C130.262 49.8686 130.588 49.9539 130.956 49.9539C131.521 49.9539 131.945 49.7913 132.228 49.4659C132.516 49.1406 132.684 48.7059 132.732 48.1619H131.188V47.5459H133.54V50.5699H132.812L132.74 49.7139C132.612 49.9219 132.462 50.0979 132.292 50.2419C132.126 50.3806 131.932 50.4873 131.708 50.5619C131.484 50.6313 131.217 50.6659 130.908 50.6659ZM139.793 50.5699V44.9699H140.593L143.449 49.2659V44.9699H144.249V50.5699H143.449L140.593 46.2819V50.5699H139.793ZM157.865 50.5699V44.9699H159.937C160.326 44.9699 160.652 45.0339 160.913 45.1619C161.174 45.2846 161.369 45.4553 161.497 45.6739C161.63 45.8873 161.697 46.1299 161.697 46.4019C161.697 46.6846 161.636 46.9219 161.513 47.1139C161.39 47.3059 161.228 47.4553 161.025 47.5619C160.828 47.6633 160.614 47.7219 160.385 47.7379L160.497 47.6579C160.742 47.6633 160.966 47.7299 161.169 47.8579C161.372 47.9806 161.532 48.1459 161.649 48.3539C161.766 48.5619 161.825 48.7913 161.825 49.0419C161.825 49.3299 161.756 49.5913 161.617 49.8259C161.478 50.0553 161.273 50.2366 161.001 50.3699C160.729 50.5033 160.396 50.5699 160.001 50.5699H157.865ZM158.665 49.9059H159.897C160.249 49.9059 160.521 49.8259 160.713 49.6659C160.91 49.5006 161.009 49.2686 161.009 48.9699C161.009 48.6766 160.908 48.4419 160.705 48.2659C160.508 48.0899 160.233 48.0019 159.881 48.0019H158.665V49.9059ZM158.665 47.3859H159.849C160.185 47.3859 160.441 47.3086 160.617 47.1539C160.793 46.9939 160.881 46.7753 160.881 46.4979C160.881 46.2313 160.793 46.0206 160.617 45.8659C160.441 45.7059 160.177 45.6259 159.825 45.6259H158.665V47.3859ZM170.043 50.6659C169.648 50.6659 169.291 50.5886 168.971 50.4339C168.651 50.2739 168.395 50.0339 168.203 49.7139C168.016 49.3886 167.923 48.9753 167.923 48.4739V44.9699H168.723V48.4819C168.723 48.8179 168.779 49.0953 168.891 49.3139C169.003 49.5273 169.158 49.6873 169.355 49.7939C169.558 49.8953 169.792 49.9459 170.059 49.9459C170.331 49.9459 170.566 49.8953 170.763 49.7939C170.96 49.6873 171.112 49.5273 171.219 49.3139C171.331 49.0953 171.387 48.8179 171.387 48.4819V44.9699H172.187V48.4739C172.187 48.9753 172.091 49.3886 171.899 49.7139C171.707 50.0339 171.448 50.2739 171.123 50.4339C170.798 50.5886 170.438 50.6659 170.043 50.6659ZM178.499 50.5699V44.9699H179.299V50.5699H178.499ZM185.668 50.5699V44.9699H186.468V49.9379H189.028V50.5699H185.668ZM195.165 50.5699V44.9699H196.885C197.536 44.9699 198.074 45.0846 198.501 45.3139C198.928 45.5433 199.242 45.8686 199.445 46.2899C199.653 46.7059 199.757 47.2019 199.757 47.7779C199.757 48.3539 199.653 48.8499 199.445 49.2659C199.242 49.6819 198.928 50.0046 198.501 50.2339C198.08 50.4579 197.541 50.5699 196.885 50.5699H195.165ZM195.965 49.8979H196.853C197.37 49.8979 197.781 49.8126 198.085 49.6419C198.389 49.4713 198.605 49.2286 198.733 48.9139C198.866 48.5939 198.933 48.2153 198.933 47.7779C198.933 47.3353 198.866 46.9539 198.733 46.6339C198.605 46.3139 198.389 46.0686 198.085 45.8979C197.781 45.7273 197.37 45.6419 196.853 45.6419H195.965V49.8979Z" fill="white"/>
</g>
</svg>
