<svg width="150" height="75" viewBox="0 0 150 75" fill="none" xmlns="http://www.w3.org/2000/svg">
<g opacity="0.5">
<path d="M31.8446 73L62.2064 54.3158M31.8446 73L16.6637 63.6579M31.8446 73V20.6842M1.48279 54.3158V19.2829L31.8446 2M1.48279 54.3158L16.6637 63.6579M1.48279 54.3158L16.6637 45.9079M31.8446 2V20.6842M31.8446 2L47.0255 10.6414M62.2064 54.3158V36.7993M62.2064 54.3158L46.792 45.4623M16.6637 63.6579V45.9079M16.6637 45.9079V28.1579L46.792 45.4623M31.8446 20.6842L62.2064 36.7993M62.2064 36.7993V19.2829L47.0255 10.6414M46.792 45.4623L47.0255 10.6414" stroke="black" stroke-width="2"/>
<path d="M78.3505 15.0789V4.03658H74.5203V2H84.6658V4.03658H80.8542V15.0789H78.3505Z" fill="black"/>
<path d="M94.6932 15.0789V2H97.2156V15.0789H94.6932ZM86.4535 15.0789V2H88.9759V15.0789H86.4535ZM88.6209 9.41763V7.38105H95.123V9.41763H88.6209Z" fill="black"/>
<path d="M99.7915 15.0789V2H108.386V4.03658H102.314V7.45579H107.826V9.41763H102.314V13.0424H108.386V15.0789H99.7915Z" fill="black"/>
<path d="M79.8079 43.3295C78.8612 43.3295 78.0142 43.1675 77.2668 42.8437C76.5319 42.5198 75.9465 42.0465 75.5105 41.4237C75.087 40.8009 74.869 40.0473 74.8566 39.1629H77.5284C77.5409 39.549 77.6405 39.8978 77.8274 40.2092C78.0142 40.5206 78.2696 40.7697 78.5934 40.9566C78.9297 41.131 79.3283 41.2182 79.7892 41.2182C80.1878 41.2182 80.5303 41.1559 80.8168 41.0313C81.1158 40.8943 81.3462 40.7075 81.5082 40.4708C81.6701 40.2341 81.7511 39.9539 81.7511 39.63C81.7511 39.2563 81.6576 38.9449 81.4708 38.6958C81.2964 38.4467 81.0473 38.2349 80.7234 38.0605C80.412 37.8861 80.0446 37.7304 79.6211 37.5934C79.21 37.4439 78.774 37.2882 78.3132 37.1263C77.2793 36.79 76.4883 36.3416 75.9403 35.781C75.4046 35.2205 75.1368 34.4794 75.1368 33.5576C75.1368 32.7729 75.3237 32.1003 75.6974 31.5397C76.0835 30.9792 76.6129 30.5495 77.2855 30.2505C77.9582 29.9516 78.7242 29.8021 79.5837 29.8021C80.4681 29.8021 81.2403 29.9578 81.9005 30.2692C82.5732 30.5682 83.1025 31.0041 83.4887 31.5771C83.8873 32.1501 84.0928 32.8227 84.1053 33.595H81.4147C81.4023 33.3085 81.3151 33.0407 81.1532 32.7916C81.0037 32.53 80.7919 32.3245 80.5179 32.175C80.2439 32.0131 79.92 31.9321 79.5463 31.9321C79.2225 31.9196 78.9235 31.9695 78.6495 32.0816C78.3879 32.1937 78.1761 32.3618 78.0142 32.586C77.8647 32.7978 77.79 33.0656 77.79 33.3895C77.79 33.7009 77.8647 33.9625 78.0142 34.1742C78.1761 34.386 78.3941 34.5728 78.6682 34.7347C78.9422 34.8842 79.2661 35.0275 79.6397 35.1645C80.0134 35.289 80.4182 35.4198 80.8542 35.5568C81.5019 35.781 82.0998 36.0489 82.6479 36.3603C83.196 36.6592 83.6319 37.0516 83.9558 37.5374C84.2796 38.0232 84.4416 38.6646 84.4416 39.4618C84.4416 40.1469 84.261 40.7822 83.8997 41.3676C83.5385 41.9531 83.0153 42.4264 82.3303 42.7876C81.6576 43.1489 80.8168 43.3295 79.8079 43.3295Z" fill="black"/>
<path d="M86.5812 43.1053V30.0263H91.4765C92.5352 30.0263 93.4134 30.2069 94.1109 30.5682C94.8085 30.9294 95.3254 31.4152 95.6617 32.0255C95.998 32.6359 96.1662 33.3334 96.1662 34.1182C96.1662 34.8406 96.0043 35.507 95.6804 36.1174C95.3566 36.7277 94.8459 37.226 94.1483 37.6121C93.4508 37.9858 92.5602 38.1726 91.4765 38.1726H89.1036V43.1053H86.5812ZM89.1036 36.136H91.327C92.1366 36.136 92.7159 35.9554 93.0646 35.5942C93.4259 35.2205 93.6065 34.7285 93.6065 34.1182C93.6065 33.4704 93.4259 32.9722 93.0646 32.6234C92.7159 32.2622 92.1366 32.0816 91.327 32.0816H89.1036V36.136Z" fill="black"/>
<path d="M95.8115 43.1053L100.595 30.0263H103.453L108.218 43.1053H105.546L102.015 32.9037L98.4647 43.1053H95.8115ZM97.9228 40.1345L98.5954 38.1726H105.247L105.901 40.1345H97.9228Z" fill="black"/>
<path d="M115.055 43.3295C113.747 43.3295 112.62 43.0492 111.673 42.4887C110.739 41.9157 110.017 41.1247 109.506 40.1158C109.008 39.0944 108.759 37.9173 108.759 36.5845C108.759 35.2517 109.008 34.0746 109.506 33.0532C110.017 32.0318 110.739 31.2346 111.673 30.6616C112.62 30.0886 113.747 29.8021 115.055 29.8021C116.637 29.8021 117.933 30.1945 118.942 30.9792C119.95 31.7639 120.579 32.8725 120.829 34.305H118.082C117.92 33.6075 117.578 33.0656 117.054 32.6795C116.544 32.2809 115.871 32.0816 115.037 32.0816C114.264 32.0816 113.598 32.2684 113.037 32.6421C112.489 33.0033 112.066 33.5203 111.767 34.1929C111.468 34.8531 111.318 35.6503 111.318 36.5845C111.318 37.5062 111.468 38.3034 111.767 38.976C112.066 39.6487 112.489 40.1656 113.037 40.5268C113.598 40.8881 114.264 41.0687 115.037 41.0687C115.871 41.0687 116.544 40.8881 117.054 40.5268C117.565 40.1532 117.901 39.6362 118.063 38.976H120.829C120.579 40.3338 119.95 41.3988 118.942 42.171C117.933 42.9433 116.637 43.3295 115.055 43.3295Z" fill="black"/>
<path d="M122.983 43.1053V30.0263H131.577V32.0629H125.505V35.4821H131.017V37.4439H125.505V41.0687H131.577V43.1053H122.983Z" fill="black"/>
<path d="M81.0411 71.3558C79.7954 71.3558 78.7118 71.0817 77.79 70.5337C76.8682 69.9731 76.152 69.1946 75.6413 68.1981C75.1306 67.1892 74.8753 66.0183 74.8753 64.6855C74.8753 63.3403 75.1368 62.1569 75.66 61.1355C76.1832 60.1017 76.9368 59.292 77.9208 58.7066C78.9048 58.1211 80.0819 57.8284 81.4521 57.8284C82.9842 57.8284 84.2547 58.1959 85.2637 58.9308C86.2851 59.6657 86.9453 60.6871 87.2442 61.995H84.4229C84.236 61.422 83.8873 60.9736 83.3766 60.6497C82.8783 60.3134 82.2306 60.1453 81.4334 60.1453C80.5864 60.1453 79.8639 60.3321 79.2661 60.7058C78.6682 61.0795 78.2135 61.6026 77.9021 62.2752C77.5907 62.9479 77.435 63.7513 77.435 64.6855C77.435 65.6322 77.5907 66.4356 77.9021 67.0958C78.2135 67.756 78.6557 68.2604 79.2287 68.6092C79.8141 68.9455 80.4992 69.1137 81.2839 69.1137C82.4299 69.1137 83.2956 68.8085 83.881 68.1981C84.4789 67.5753 84.8339 66.7719 84.946 65.7879H81.7324V63.9008H87.4871V71.1316H85.1516L84.9647 69.4687C84.6907 69.8797 84.3668 70.2285 83.9932 70.515C83.6319 70.789 83.2084 70.9946 82.7226 71.1316C82.2368 71.281 81.6763 71.3558 81.0411 71.3558Z" fill="black"/>
<path d="M88.9691 71.1316L93.7523 58.0526H96.611L101.375 71.1316H98.7036L95.1723 60.93L91.6223 71.1316H88.9691ZM91.0805 68.1608L91.7531 66.1989H98.4047L99.0586 68.1608H91.0805Z" fill="black"/>
<path d="M108.213 71.3558C106.905 71.3558 105.778 71.0755 104.831 70.515C103.897 69.942 103.174 69.151 102.664 68.1421C102.165 67.1207 101.916 65.9436 101.916 64.6108C101.916 63.278 102.165 62.1009 102.664 61.0795C103.174 60.0581 103.897 59.2609 104.831 58.6879C105.778 58.1149 106.905 57.8284 108.213 57.8284C109.795 57.8284 111.09 58.2208 112.099 59.0055C113.108 59.7903 113.737 60.8988 113.986 62.3313H111.24C111.078 61.6338 110.735 61.0919 110.212 60.7058C109.701 60.3072 109.029 60.1079 108.194 60.1079C107.422 60.1079 106.755 60.2947 106.195 60.6684C105.647 61.0296 105.223 61.5466 104.924 62.2192C104.625 62.8794 104.476 63.6766 104.476 64.6108C104.476 65.5325 104.625 66.3297 104.924 67.0024C105.223 67.675 105.647 68.1919 106.195 68.5531C106.755 68.9144 107.422 69.095 108.194 69.095C109.029 69.095 109.701 68.9144 110.212 68.5531C110.723 68.1795 111.059 67.6625 111.221 67.0024H113.986C113.737 68.3601 113.108 69.4251 112.099 70.1974C111.09 70.9696 109.795 71.3558 108.213 71.3558Z" fill="black"/>
<path d="M119.058 71.1316V60.0892H115.228V58.0526H125.373V60.0892H121.562V71.1316H119.058Z" fill="black"/>
<path d="M132.224 71.3558C131.265 71.3558 130.393 71.1627 129.609 70.7766C128.824 70.3904 128.201 69.8112 127.74 69.0389C127.279 68.2667 127.049 67.2826 127.049 66.0868V58.0526H129.571V66.1055C129.571 66.7532 129.677 67.3013 129.889 67.7497C130.101 68.1857 130.406 68.5095 130.804 68.7213C131.215 68.9331 131.701 69.0389 132.262 69.0389C132.835 69.0389 133.321 68.9331 133.719 68.7213C134.13 68.5095 134.442 68.1857 134.653 67.7497C134.865 67.3013 134.971 66.7532 134.971 66.1055V58.0526H137.493V66.0868C137.493 67.2826 137.257 68.2667 136.783 69.0389C136.31 69.8112 135.669 70.3904 134.859 70.7766C134.062 71.1627 133.184 71.3558 132.224 71.3558Z" fill="black"/>
<path d="M139.952 71.1316V58.0526H144.828C145.887 58.0526 146.759 58.2332 147.444 58.5945C148.129 58.9557 148.64 59.4415 148.976 60.0518C149.312 60.6497 149.481 61.3161 149.481 62.051C149.481 62.7486 149.319 63.4025 148.995 64.0129C148.671 64.6108 148.16 65.0966 147.463 65.4703C146.778 65.8315 145.893 66.0121 144.81 66.0121H142.474V71.1316H139.952ZM146.734 71.1316L144.043 65.3768H146.771L149.611 71.1316H146.734ZM142.474 64.181H144.679C145.439 64.181 145.999 63.9942 146.36 63.6205C146.722 63.2468 146.902 62.7548 146.902 62.1445C146.902 61.5341 146.722 61.0546 146.36 60.7058C146.012 60.3446 145.451 60.1639 144.679 60.1639H142.474V64.181Z" fill="black"/>
</g>
</svg>
