<svg width="226" height="74" viewBox="0 0 226 74" fill="none" xmlns="http://www.w3.org/2000/svg">
<g opacity="0.5">
<path d="M1 27.9727V71.5L7.25698 65.9V32.8091L36 10.9182L64.9385 32.8091V65.9L71 71.5V27.9727L36 1.5L1 27.9727Z" stroke="white" stroke-opacity="0.4" stroke-width="2"/>
<path d="M18.0112 40.7V59.0273L24.4637 56.9909V45.5364L36 36.8818L47.7318 45.5364V56.9909L53.7933 59.0273V40.7L36 27.9727L18.0112 40.7Z" stroke="white" stroke-opacity="0.4" stroke-width="2"/>
<path d="M90.7503 30.5703L95.8703 16.5703H98.9303L104.03 30.5703H101.17L97.3903 19.6503L93.5903 30.5703H90.7503ZM93.0103 27.3903L93.7303 25.2903H100.85L101.55 27.3903H93.0103ZM105.87 30.5703V16.5703H111.09C112.223 16.5703 113.157 16.7636 113.89 17.1503C114.623 17.537 115.17 18.057 115.53 18.7103C115.89 19.3503 116.07 20.0636 116.07 20.8503C116.07 21.597 115.897 22.297 115.55 22.9503C115.203 23.5903 114.657 24.1103 113.91 24.5103C113.177 24.897 112.23 25.0903 111.07 25.0903H108.57V30.5703H105.87ZM113.13 30.5703L110.25 24.4103H113.17L116.21 30.5703H113.13ZM108.57 23.1303H110.93C111.743 23.1303 112.343 22.9303 112.73 22.5303C113.117 22.1303 113.31 21.6036 113.31 20.9503C113.31 20.297 113.117 19.7836 112.73 19.4103C112.357 19.0236 111.757 18.8303 110.93 18.8303H108.57V23.1303ZM124.767 30.8103C123.367 30.8103 122.161 30.5103 121.147 29.9103C120.147 29.297 119.374 28.4503 118.827 27.3703C118.294 26.277 118.027 25.017 118.027 23.5903C118.027 22.1636 118.294 20.9036 118.827 19.8103C119.374 18.717 120.147 17.8636 121.147 17.2503C122.161 16.637 123.367 16.3303 124.767 16.3303C126.461 16.3303 127.847 16.7503 128.927 17.5903C130.007 18.4303 130.681 19.617 130.947 21.1503H128.007C127.834 20.4036 127.467 19.8236 126.907 19.4103C126.361 18.9836 125.641 18.7703 124.747 18.7703C123.921 18.7703 123.207 18.9703 122.607 19.3703C122.021 19.757 121.567 20.3103 121.247 21.0303C120.927 21.737 120.767 22.5903 120.767 23.5903C120.767 24.577 120.927 25.4303 121.247 26.1503C121.567 26.8703 122.021 27.4236 122.607 27.8103C123.207 28.197 123.921 28.3903 124.747 28.3903C125.641 28.3903 126.361 28.197 126.907 27.8103C127.454 27.4103 127.814 26.857 127.987 26.1503H130.947C130.681 27.6036 130.007 28.7436 128.927 29.5703C127.847 30.397 126.461 30.8103 124.767 30.8103ZM142.073 30.5703V16.5703H144.773V30.5703H142.073ZM133.253 30.5703V16.5703H135.953V30.5703H133.253ZM135.573 24.5103V22.3303H142.533V24.5103H135.573ZM147.53 30.5703V16.5703H150.23V30.5703H147.53ZM156.239 30.5703V18.7503H152.139V16.5703H162.999V18.7503H158.919V30.5703H156.239ZM164.913 30.5703V16.5703H174.113V18.7503H167.613V22.4103H173.513V24.5103H167.613V28.3903H174.113V30.5703H164.913ZM182.853 30.8103C181.453 30.8103 180.246 30.5103 179.233 29.9103C178.233 29.297 177.46 28.4503 176.913 27.3703C176.38 26.277 176.113 25.017 176.113 23.5903C176.113 22.1636 176.38 20.9036 176.913 19.8103C177.46 18.717 178.233 17.8636 179.233 17.2503C180.246 16.637 181.453 16.3303 182.853 16.3303C184.546 16.3303 185.933 16.7503 187.013 17.5903C188.093 18.4303 188.766 19.617 189.033 21.1503H186.093C185.92 20.4036 185.553 19.8236 184.993 19.4103C184.446 18.9836 183.726 18.7703 182.833 18.7703C182.006 18.7703 181.293 18.9703 180.693 19.3703C180.106 19.757 179.653 20.3103 179.333 21.0303C179.013 21.737 178.853 22.5903 178.853 23.5903C178.853 24.577 179.013 25.4303 179.333 26.1503C179.653 26.8703 180.106 27.4236 180.693 27.8103C181.293 28.197 182.006 28.3903 182.833 28.3903C183.726 28.3903 184.446 28.197 184.993 27.8103C185.54 27.4103 185.9 26.857 186.073 26.1503H189.033C188.766 27.6036 188.093 28.7436 187.013 29.5703C185.933 30.397 184.546 30.8103 182.853 30.8103ZM194.462 30.5703V18.7503H190.362V16.5703H201.222V18.7503H197.142V30.5703H194.462ZM90.8943 50.5703V44.9703H92.6143C93.265 44.9703 93.8036 45.085 94.2303 45.3143C94.657 45.5436 94.9716 45.869 95.1743 46.2903C95.3823 46.7063 95.4863 47.2023 95.4863 47.7783C95.4863 48.3543 95.3823 48.8503 95.1743 49.2663C94.9716 49.6823 94.657 50.005 94.2303 50.2343C93.809 50.4583 93.2703 50.5703 92.6143 50.5703H90.8943ZM91.6943 49.8983H92.5823C93.0996 49.8983 93.5103 49.813 93.8143 49.6423C94.1183 49.4716 94.3343 49.229 94.4623 48.9143C94.5956 48.5943 94.6623 48.2156 94.6623 47.7783C94.6623 47.3356 94.5956 46.9543 94.4623 46.6343C94.3343 46.3143 94.1183 46.069 93.8143 45.8983C93.5103 45.7276 93.0996 45.6423 92.5823 45.6423H91.6943V49.8983ZM101.649 50.5703V44.9703H105.185V45.6263H102.449V47.4183H104.945V48.0583H102.449V49.9143H105.185V50.5703H101.649ZM113.251 50.6663C112.841 50.6663 112.481 50.5943 112.171 50.4503C111.862 50.301 111.622 50.093 111.451 49.8263C111.281 49.5596 111.195 49.2476 111.195 48.8903H112.035C112.041 49.093 112.089 49.2796 112.179 49.4503C112.275 49.6156 112.411 49.749 112.587 49.8503C112.769 49.9463 112.99 49.9943 113.251 49.9943C113.475 49.9943 113.667 49.957 113.827 49.8823C113.993 49.8076 114.118 49.7063 114.203 49.5783C114.289 49.445 114.331 49.293 114.331 49.1223C114.331 48.925 114.286 48.7623 114.195 48.6343C114.105 48.5063 113.982 48.4023 113.827 48.3223C113.678 48.237 113.502 48.1623 113.299 48.0983C113.102 48.0343 112.894 47.965 112.675 47.8903C112.233 47.7463 111.902 47.5596 111.683 47.3303C111.47 47.101 111.363 46.8023 111.363 46.4343C111.363 46.1196 111.438 45.8476 111.587 45.6183C111.737 45.3836 111.945 45.2023 112.211 45.0743C112.483 44.941 112.803 44.8743 113.171 44.8743C113.534 44.8743 113.851 44.941 114.123 45.0743C114.395 45.2076 114.609 45.3916 114.763 45.6263C114.918 45.861 114.995 46.1356 114.995 46.4503H114.147C114.147 46.3063 114.11 46.165 114.035 46.0263C113.961 45.8876 113.849 45.7756 113.699 45.6903C113.55 45.5996 113.366 45.5543 113.147 45.5543C112.966 45.549 112.803 45.5783 112.659 45.6423C112.515 45.7063 112.403 45.7996 112.323 45.9223C112.243 46.045 112.203 46.1916 112.203 46.3623C112.203 46.533 112.238 46.6716 112.307 46.7783C112.382 46.8796 112.489 46.9676 112.627 47.0423C112.766 47.117 112.926 47.1863 113.107 47.2503C113.294 47.309 113.499 47.3756 113.723 47.4503C114.001 47.541 114.246 47.653 114.459 47.7863C114.678 47.9143 114.849 48.0823 114.971 48.2903C115.099 48.493 115.163 48.7543 115.163 49.0743C115.163 49.3516 115.091 49.6103 114.947 49.8503C114.803 50.0903 114.59 50.2876 114.307 50.4423C114.025 50.5916 113.673 50.6663 113.251 50.6663ZM121.315 50.5703V44.9703H122.115V50.5703H121.315ZM130.907 50.6663C130.379 50.6663 129.918 50.5463 129.523 50.3063C129.129 50.0663 128.822 49.7303 128.603 49.2983C128.385 48.8663 128.275 48.3623 128.275 47.7863C128.275 47.2156 128.385 46.7116 128.603 46.2743C128.827 45.837 129.145 45.4956 129.555 45.2503C129.971 44.9996 130.462 44.8743 131.027 44.8743C131.662 44.8743 132.193 45.029 132.619 45.3383C133.046 45.6423 133.321 46.0663 133.443 46.6103H132.531C132.451 46.301 132.283 46.0583 132.027 45.8823C131.771 45.701 131.435 45.6103 131.019 45.6103C130.625 45.6103 130.281 45.6983 129.987 45.8743C129.699 46.0503 129.478 46.301 129.323 46.6263C129.169 46.9516 129.091 47.3383 129.091 47.7863C129.091 48.2396 129.169 48.629 129.323 48.9543C129.478 49.2796 129.697 49.5276 129.979 49.6983C130.262 49.869 130.587 49.9543 130.955 49.9543C131.521 49.9543 131.945 49.7916 132.227 49.4663C132.515 49.141 132.683 48.7063 132.731 48.1623H131.187V47.5463H133.539V50.5703H132.811L132.739 49.7143C132.611 49.9223 132.462 50.0983 132.291 50.2423C132.126 50.381 131.931 50.4876 131.707 50.5623C131.483 50.6316 131.217 50.6663 130.907 50.6663ZM139.793 50.5703V44.9703H140.593L143.449 49.2663V44.9703H144.249V50.5703H143.449L140.593 46.2823V50.5703H139.793ZM157.865 50.5703V44.9703H159.937C160.326 44.9703 160.651 45.0343 160.913 45.1623C161.174 45.285 161.369 45.4556 161.497 45.6743C161.63 45.8876 161.697 46.1303 161.697 46.4023C161.697 46.685 161.635 46.9223 161.513 47.1143C161.39 47.3063 161.227 47.4556 161.025 47.5623C160.827 47.6636 160.614 47.7223 160.385 47.7383L160.497 47.6583C160.742 47.6636 160.966 47.7303 161.169 47.8583C161.371 47.981 161.531 48.1463 161.649 48.3543C161.766 48.5623 161.825 48.7916 161.825 49.0423C161.825 49.3303 161.755 49.5916 161.617 49.8263C161.478 50.0556 161.273 50.237 161.001 50.3703C160.729 50.5036 160.395 50.5703 160.001 50.5703H157.865ZM158.665 49.9063H159.897C160.249 49.9063 160.521 49.8263 160.713 49.6663C160.91 49.501 161.009 49.269 161.009 48.9703C161.009 48.677 160.907 48.4423 160.705 48.2663C160.507 48.0903 160.233 48.0023 159.881 48.0023H158.665V49.9063ZM158.665 47.3863H159.849C160.185 47.3863 160.441 47.309 160.617 47.1543C160.793 46.9943 160.881 46.7756 160.881 46.4983C160.881 46.2316 160.793 46.021 160.617 45.8663C160.441 45.7063 160.177 45.6263 159.825 45.6263H158.665V47.3863ZM170.043 50.6663C169.648 50.6663 169.291 50.589 168.971 50.4343C168.651 50.2743 168.395 50.0343 168.203 49.7143C168.016 49.389 167.923 48.9756 167.923 48.4743V44.9703H168.723V48.4823C168.723 48.8183 168.779 49.0956 168.891 49.3143C169.003 49.5276 169.157 49.6876 169.355 49.7943C169.557 49.8956 169.792 49.9463 170.059 49.9463C170.331 49.9463 170.565 49.8956 170.763 49.7943C170.96 49.6876 171.112 49.5276 171.219 49.3143C171.331 49.0956 171.387 48.8183 171.387 48.4823V44.9703H172.187V48.4743C172.187 48.9756 172.091 49.389 171.899 49.7143C171.707 50.0343 171.448 50.2743 171.123 50.4343C170.797 50.589 170.437 50.6663 170.043 50.6663ZM178.499 50.5703V44.9703H179.299V50.5703H178.499ZM185.668 50.5703V44.9703H186.468V49.9383H189.028V50.5703H185.668ZM195.165 50.5703V44.9703H196.885C197.535 44.9703 198.074 45.085 198.501 45.3143C198.927 45.5436 199.242 45.869 199.445 46.2903C199.653 46.7063 199.757 47.2023 199.757 47.7783C199.757 48.3543 199.653 48.8503 199.445 49.2663C199.242 49.6823 198.927 50.005 198.501 50.2343C198.079 50.4583 197.541 50.5703 196.885 50.5703H195.165ZM195.965 49.8983H196.853C197.37 49.8983 197.781 49.813 198.085 49.6423C198.389 49.4716 198.605 49.229 198.733 48.9143C198.866 48.5943 198.933 48.2156 198.933 47.7783C198.933 47.3356 198.866 46.9543 198.733 46.6343C198.605 46.3143 198.389 46.069 198.085 45.8983C197.781 45.7276 197.37 45.6423 196.853 45.6423H195.965V49.8983Z" fill="white" fill-opacity="0.4"/>
</g>
</svg>
