<svg width="458" height="151" viewBox="0 0 458 151" fill="none" xmlns="http://www.w3.org/2000/svg">
<path d="M165.674 28.6255C166.686 28.6255 167.554 28.9869 168.277 29.7098C169.072 30.4326 169.469 31.5531 169.469 33.0711C169.469 34.2999 168.963 35.2397 167.951 35.8903C167.012 36.5408 165.891 36.8661 164.59 36.8661C163.217 36.8661 162.096 36.3963 161.229 35.4565C160.361 34.4445 159.928 33.1072 159.928 31.4446C159.928 27.6857 161.482 24.7581 164.59 22.6618C167.698 20.5655 172.108 19.5174 177.819 19.5174C184.541 19.5174 189.457 21.1799 192.565 24.5051C195.746 27.8303 197.336 32.2398 197.336 37.7336V59.2026C197.336 61.5158 197.697 63.2146 198.42 64.2988C199.215 65.3831 200.155 65.9253 201.239 65.9253C202.179 65.9253 203.01 65.6723 203.733 65.1663C204.528 64.6603 204.926 64.0458 204.926 63.323H206.878C206.878 65.347 206.119 66.8289 204.601 67.7686C203.155 68.7083 200.589 69.1782 196.902 69.1782C193.288 69.1782 190.722 67.6963 189.204 64.7326C184.939 67.8409 179.626 69.395 173.264 69.395C162.421 69.395 157 64.9856 157 56.1666C157 54.2872 157.651 52.5884 158.952 51.0704C160.325 49.5524 162.277 48.2874 164.807 47.2754C167.337 46.2634 169.722 45.4682 171.963 44.8899C174.204 44.2393 176.987 43.5526 180.312 42.8298C183.71 42.0346 186.131 41.4202 187.577 40.9865C187.577 34.9144 186.782 30.4688 185.192 27.6496C183.601 24.8304 180.782 23.4208 176.734 23.4208C170.228 23.4208 166.542 25.1557 165.674 28.6255ZM188.228 62.0218C187.794 60.4315 187.577 58.4798 187.577 56.1666V43.3719C186.782 43.661 185.409 44.0586 183.457 44.5646C181.577 45.0706 180.023 45.5044 178.794 45.8658C177.638 46.2272 176.228 46.7694 174.566 47.4922C172.903 48.2151 171.602 48.938 170.662 49.6608C169.722 50.3837 168.891 51.3596 168.168 52.5884C167.445 53.745 167.084 55.01 167.084 56.3835C167.084 59.8532 167.735 62.2748 169.036 63.6483C170.409 65.0217 172.433 65.7084 175.108 65.7084C179.879 65.7084 184.252 64.4796 188.228 62.0218Z" fill="white"/>
<path d="M228.39 66.1422C230.414 66.1422 232.619 65.4916 235.004 64.1904C237.462 62.8893 238.691 60.9375 238.691 58.3352C238.691 54.1426 234.39 50.5283 225.788 47.4922C223.691 46.7694 221.956 46.0826 220.583 45.4321C219.282 44.7815 217.836 43.8779 216.246 42.7213C214.656 41.5647 213.463 40.1552 212.668 38.4926C211.873 36.83 211.475 34.8782 211.475 32.6374C211.475 28.5893 212.957 25.4087 215.921 23.0955C218.884 20.7101 222.462 19.5174 226.655 19.5174C229.113 19.5174 231.607 20.0595 234.137 21.1438C236.739 22.2281 238.221 22.7703 238.582 22.7703C239.45 22.7703 239.884 22.0474 239.884 20.6017H242.377V33.6132H239.992C239.558 30.5772 238.076 28.011 235.546 25.9147C233.089 23.8184 230.233 22.7703 226.98 22.7703C224.667 22.7703 222.715 23.3124 221.125 24.3967C219.607 25.481 218.848 26.9629 218.848 28.8423C218.848 29.9266 219.065 30.9386 219.499 31.8783C219.932 32.7458 220.366 33.4687 220.8 34.0469C221.234 34.553 222.029 35.1312 223.185 35.7818C224.414 36.4324 225.318 36.9023 225.896 37.1914C226.547 37.4083 227.667 37.8058 229.257 38.3841C230.92 38.9624 232.04 39.36 232.619 39.5769C236.378 41.0226 239.594 43.0828 242.269 45.7574C244.944 48.3597 246.281 51.3957 246.281 54.8655C246.281 59.2749 244.51 62.817 240.968 65.4916C237.426 68.0939 232.944 69.395 227.523 69.395C224.92 69.395 222.39 68.7806 219.932 67.5517C217.475 66.3229 216.101 65.7084 215.812 65.7084C215.378 65.7084 214.872 65.9976 214.294 66.5759C213.716 67.1542 213.427 67.7325 213.427 68.3107H210.824V53.0222H213.21C213.716 56.7088 215.415 59.8171 218.306 62.3471C221.27 64.8771 224.631 66.1422 228.39 66.1422Z" fill="white"/>
<path d="M253.25 68.3107V66.0337C257.154 66.0337 259.431 65.3109 260.081 63.8651V27.2159C255.599 26.8544 253.322 26.6737 253.25 26.6737V24.1798C254.623 24.1798 257.298 23.4208 261.274 21.9028C265.322 20.3125 268.177 19.5174 269.84 19.5174V63.8651C270.49 65.3109 272.767 66.0337 276.671 66.0337V68.3107H253.25ZM264.635 12.5779C263.045 12.5779 261.635 11.9996 260.406 10.843C259.25 9.61411 258.672 8.05995 258.672 6.1805C258.672 4.51791 259.178 3.07218 260.19 1.84331C261.274 0.614436 262.647 0 264.31 0C265.9 0 267.31 0.614436 268.539 1.84331C269.768 3.07218 270.382 4.62634 270.382 6.50578C270.382 8.16838 269.84 9.61411 268.755 10.843C267.671 11.9996 266.298 12.5779 264.635 12.5779Z" fill="white"/>
<path d="M314.901 6.39736C314.901 7.62623 314.467 8.6021 313.6 9.32496C312.805 10.0478 311.756 10.4093 310.455 10.4093C309.226 10.4093 308.287 10.0478 307.636 9.32496C307.058 8.52981 306.696 7.69852 306.552 6.83108C306.479 5.96364 306.154 5.16848 305.576 4.44562C305.07 3.65047 304.239 3.2529 303.082 3.2529C301.709 3.2529 300.552 4.30105 299.612 6.39736C298.745 8.49366 298.311 11.4936 298.311 15.397V20.6017H305.034V23.8545H298.311V63.8651C298.962 65.3109 301.239 66.0337 305.142 66.0337V68.3107H281.721V66.0337C285.625 66.0337 287.902 65.3109 288.552 63.8651V23.8545H283.131V20.6017H288.552V16.915C288.552 10.9875 289.781 6.6865 292.239 4.0119C294.697 1.3373 297.95 0 301.998 0C306.263 0 309.479 0.650579 311.648 1.95174C313.817 3.25289 314.901 4.73477 314.901 6.39736Z" fill="white"/>
<path d="M175.975 147.464C177.999 147.464 180.204 146.814 182.589 145.513C185.047 144.212 186.276 142.26 186.276 139.658C186.276 135.465 181.975 131.851 173.373 128.815C171.277 128.092 169.542 127.405 168.168 126.754C166.867 126.104 165.421 125.2 163.831 124.044C162.241 122.887 161.048 121.477 160.253 119.815C159.458 118.152 159.06 116.201 159.06 113.96C159.06 109.912 160.542 106.731 163.506 104.418C166.47 102.032 170.048 100.84 174.24 100.84C176.698 100.84 179.192 101.382 181.722 102.466C184.324 103.55 185.806 104.093 186.168 104.093C187.035 104.093 187.469 103.37 187.469 101.924H189.963V114.936H187.577C187.143 111.9 185.662 109.333 183.132 107.237C180.674 105.141 177.819 104.093 174.566 104.093C172.252 104.093 170.301 104.635 168.71 105.719C167.192 106.803 166.433 108.285 166.433 110.165C166.433 111.249 166.65 112.261 167.084 113.201C167.518 114.068 167.951 114.791 168.385 115.369C168.819 115.875 169.614 116.454 170.771 117.104C171.999 117.755 172.903 118.225 173.481 118.514C174.132 118.731 175.252 119.128 176.843 119.706C178.505 120.285 179.626 120.682 180.204 120.899C183.963 122.345 187.18 124.405 189.854 127.08C192.529 129.682 193.866 132.718 193.866 136.188C193.866 140.597 192.095 144.139 188.553 146.814C185.011 149.416 180.529 150.717 175.108 150.717C172.505 150.717 169.975 150.103 167.518 148.874C165.06 147.645 163.687 147.031 163.397 147.031C162.964 147.031 162.458 147.32 161.879 147.898C161.301 148.476 161.012 149.055 161.012 149.633H158.41V134.344H160.795C161.301 138.031 163 141.139 165.891 143.669C168.855 146.199 172.216 147.464 175.975 147.464Z" fill="white"/>
<path d="M216.991 86.2017V101.924H226.316V105.177H216.991V139.658C216.991 141.898 217.389 143.633 218.184 144.862C218.979 146.019 220.461 146.597 222.63 146.597C223.931 146.597 225.232 145.983 226.533 144.754C227.907 143.453 228.846 141.682 229.352 139.441L231.955 140.742C230.437 147.392 226.099 150.717 218.943 150.717C210.702 150.717 206.582 146.742 206.582 138.79V105.177H198.992V101.924C202.389 101.924 205.462 100.514 208.208 97.6952C210.955 94.876 212.329 91.0449 212.329 86.2017H216.991Z" fill="white"/>
<path d="M284.002 143.019C284.002 143.019 286.279 143.2 290.833 143.561V146.055C289.459 146.055 286.749 146.85 282.701 148.44C278.725 149.958 275.906 150.717 274.243 150.717V145.73C270.34 149.055 266.039 150.717 261.34 150.717C254.617 150.717 249.738 149.488 246.702 147.031C243.738 144.501 242.256 140.597 242.256 135.32V106.37C241.606 104.924 239.329 104.201 235.425 104.201V101.924H252.015V136.079C252.015 143.38 255.34 147.031 261.99 147.031C266.545 147.031 270.629 145.44 274.243 142.26V106.37C273.592 104.924 271.315 104.201 267.412 104.201V101.924H284.002V143.019Z" fill="white"/>
<path d="M332.557 103.008V89.0208C332.557 89.0208 330.28 88.8401 325.726 88.4787V85.9848C327.099 85.9848 329.774 85.2258 333.75 83.7078C337.798 82.1175 340.653 81.3223 342.316 81.3223V143.019L349.147 143.561V146.055C347.773 146.055 345.063 146.85 341.015 148.44C337.039 149.958 334.22 150.717 332.557 150.717V147.139C329.087 149.525 324.75 150.717 319.546 150.717C317.16 150.717 314.775 150.32 312.389 149.525C310.076 148.657 307.727 147.356 305.341 145.621C303.028 143.814 301.112 141.176 299.594 137.706C298.149 134.236 297.426 130.188 297.426 125.562C297.426 117.466 299.667 111.249 304.148 106.912C308.703 102.575 314.63 100.406 321.931 100.406C326.051 100.406 329.593 101.273 332.557 103.008ZM332.557 106.37C329.955 104.852 326.63 104.093 322.582 104.093C318.606 104.093 315.136 106.008 312.172 109.839C309.209 113.671 307.727 118.911 307.727 125.562C307.727 129.971 308.992 134.67 311.522 139.658C314.124 144.573 317.16 147.031 320.63 147.031C325.401 147.031 329.376 145.874 332.557 143.561V106.37Z" fill="white"/>
<path d="M354.797 149.633V147.356C358.701 147.356 360.978 146.633 361.628 145.187V108.538C357.146 108.177 354.869 107.996 354.797 107.996V105.502C356.17 105.502 358.845 104.743 362.821 103.225C366.869 101.635 369.724 100.84 371.387 100.84V145.187C372.037 146.633 374.314 147.356 378.218 147.356V149.633H354.797ZM366.182 93.9002C364.592 93.9002 363.182 93.3219 361.953 92.1653C360.797 90.9364 360.219 89.3823 360.219 87.5028C360.219 85.8402 360.725 84.3945 361.737 83.1656C362.821 81.9367 364.194 81.3223 365.857 81.3223C367.447 81.3223 368.857 81.9367 370.086 83.1656C371.314 84.3945 371.929 85.9486 371.929 87.8281C371.929 89.4907 371.387 90.9364 370.302 92.1653C369.218 93.3219 367.845 93.9002 366.182 93.9002Z" fill="white"/>
<path d="M394.558 122.742C394.558 130.983 396.112 137.164 399.22 141.284C402.401 145.404 406.449 147.464 411.364 147.464C415.268 147.464 418.412 145.73 420.798 142.26C423.183 138.718 424.376 134.2 424.376 128.706C424.376 112.369 418.701 104.201 407.352 104.201C403.521 104.201 400.413 106.044 398.027 109.731C395.714 113.345 394.558 117.682 394.558 122.742ZM409.955 150.717C401.859 150.717 395.534 148.368 390.98 143.669C386.425 138.899 384.148 132.646 384.148 124.911C384.148 117.899 386.209 112.153 390.329 107.671C394.449 103.117 400.738 100.84 409.196 100.84C417.726 100.84 424.123 103.117 428.388 107.671C432.653 112.153 434.785 118.333 434.785 126.212C434.785 133.224 432.725 139.079 428.605 143.778C424.557 148.404 418.34 150.717 409.955 150.717Z" fill="white"/>
<path d="M446.379 148.766C445.078 147.392 444.427 145.838 444.427 144.103C444.427 142.368 445.005 140.814 446.162 139.441C447.391 137.995 448.945 137.272 450.824 137.272C452.487 137.272 454.005 137.923 455.378 139.224C456.752 140.525 457.439 142.043 457.439 143.778C457.439 145.513 456.824 147.103 455.595 148.549C454.366 149.994 452.812 150.717 450.933 150.717C449.27 150.717 447.752 150.067 446.379 148.766Z" fill="white"/>
<path fill-rule="evenodd" clip-rule="evenodd" d="M91.3669 0.050293L127 150.806H92.7374C102.026 135.882 107.356 99.1834 65.7842 82.2805C58.0176 79.9963 21.9281 75.8845 26.4964 37.0539C29.7856 23.8971 33.958 6.90285 35.6331 0.050293H91.3669ZM40.2014 5.53231C38.8667 11.0559 35.0562 27.3624 32.4353 37.9676C26.9533 71.773 66.241 74.9712 72.6367 78.6258C108.727 95.0719 108.727 132.075 102.788 144.41H119.234L86.3417 5.53231H40.2014Z" fill="#CAA05C"/>
<path fill-rule="evenodd" clip-rule="evenodd" d="M16.446 81.8237C17.9688 88.2194 26.9532 102.381 50.7086 107.863C56.1907 109.234 76.7482 115.173 69.4389 138.014C68.0683 142.297 63.9568 150.806 52.536 150.806H0L16.446 81.8237ZM7.30935 145.324H51.1655C58.6618 145.324 63.0573 139.48 63.9568 136.644C68.7545 121.517 57.5612 116.086 53.9065 114.716C38.3741 110.604 19.7297 101.135 18.7302 96.8993L7.30935 145.324Z" fill="#CAA05C"/>
</svg>
