<svg width="132" height="40" viewBox="0 0 132 40" fill="none" xmlns="http://www.w3.org/2000/svg">
<path d="M43.9092 40H4.06055V23.4355L1.6543 25.5635L0 23.7598L4.06055 20.1582V0H43.9092V40ZM6.31543 21.4414V37.7441H24.0596V20L16.0898 12.9326H15.9395L6.31543 21.4414ZM6.31543 18.1582L15.9395 9.62402H16.0898L32.0303 23.7598L30.2256 25.5635L26.3154 22.1055V37.7441H41.6533V2.25586H6.31543V18.1582ZM27.2178 10.9775V16.8418L23.1572 13.2334V10.9775H27.2178Z" fill="#A9997A"/>
<path d="M57.3027 20H54.4902L59.611 5.45455H62.8638L67.9917 20H65.1792L61.2942 8.4375H61.1806L57.3027 20ZM57.3951 14.2969H65.0655V16.4134H57.3951V14.2969Z" fill="black"/>
<path d="M69.3075 20V5.45455H74.762C75.8795 5.45455 76.817 5.64868 77.5745 6.03693C78.3368 6.42519 78.9121 6.9697 79.3004 7.67046C79.6934 8.36648 79.8899 9.17851 79.8899 10.1065C79.8899 11.0393 79.691 11.849 79.2933 12.5355C78.9003 13.2173 78.3203 13.7453 77.5532 14.1193C76.7862 14.4886 75.844 14.6733 74.7265 14.6733H70.8416V12.4858H74.3714C75.0248 12.4858 75.5599 12.3958 75.9765 12.2159C76.3932 12.0313 76.701 11.7637 76.8998 11.4134C77.1034 11.0582 77.2052 10.6226 77.2052 10.1065C77.2052 9.59044 77.1034 9.1501 76.8998 8.78551C76.6962 8.4162 76.3861 8.13684 75.9694 7.94745C75.5528 7.75332 75.0154 7.65625 74.3572 7.65625H71.9424V20H69.3075ZM76.8217 13.4091L80.4226 20H77.4822L73.9453 13.4091H76.8217Z" fill="black"/>
<path d="M81.0761 7.66336V5.45455H92.6812V7.66336H88.1855V20H85.5718V7.66336H81.0761Z" fill="black"/>
<path d="M94.3184 20V5.45455H103.779V7.66336H96.9534V11.6122H103.289V13.821H96.9534V17.7912H103.835V20H94.3184Z" fill="black"/>
<path d="M107.813 5.45455L111.598 16.9034H111.748L115.526 5.45455H118.424L113.296 20H110.043L104.922 5.45455H107.813Z" fill="black"/>
<path d="M131.955 12.7273C131.955 14.2945 131.662 15.6368 131.075 16.7543C130.492 17.867 129.697 18.7192 128.688 19.3111C127.685 19.9029 126.546 20.1989 125.272 20.1989C123.999 20.1989 122.857 19.9029 121.849 19.3111C120.845 18.7145 120.05 17.8599 119.463 16.7472C118.88 15.6297 118.589 14.2898 118.589 12.7273C118.589 11.16 118.88 9.82008 119.463 8.70739C120.05 7.58996 120.845 6.73532 121.849 6.14347C122.857 5.55161 123.999 5.25568 125.272 5.25568C126.546 5.25568 127.685 5.55161 128.688 6.14347C129.697 6.73532 130.492 7.58996 131.075 8.70739C131.662 9.82008 131.955 11.16 131.955 12.7273ZM129.306 12.7273C129.306 11.6241 129.133 10.6937 128.788 9.93608C128.447 9.17377 127.973 8.59849 127.367 8.21023C126.761 7.81724 126.063 7.62074 125.272 7.62074C124.481 7.62074 123.783 7.81724 123.177 8.21023C122.571 8.59849 122.095 9.17377 121.749 9.93608C121.409 10.6937 121.238 11.6241 121.238 12.7273C121.238 13.8305 121.409 14.7633 121.749 15.5256C122.095 16.2831 122.571 16.8584 123.177 17.2514C123.783 17.6397 124.481 17.8338 125.272 17.8338C126.063 17.8338 126.761 17.6397 127.367 17.2514C127.973 16.8584 128.447 16.2831 128.788 15.5256C129.133 14.7633 129.306 13.8305 129.306 12.7273Z" fill="black"/>
<path d="M59.8297 28.4545C59.7786 28.0227 59.5712 27.6875 59.2076 27.4489C58.8439 27.2102 58.3979 27.0909 57.8695 27.0909C57.4831 27.0909 57.1451 27.1534 56.8553 27.2784C56.5684 27.4034 56.3439 27.5753 56.182 27.794C56.0229 28.0128 55.9434 28.2614 55.9434 28.5398C55.9434 28.7727 55.9988 28.973 56.1096 29.1406C56.2232 29.3054 56.3681 29.4432 56.5442 29.554C56.7203 29.6619 56.905 29.7514 57.0982 29.8224C57.2914 29.8906 57.4689 29.946 57.6309 29.9886L58.5172 30.2273C58.7445 30.2869 58.9973 30.3693 59.2757 30.4744C59.557 30.5795 59.8255 30.723 60.0811 30.9048C60.3397 31.0838 60.5527 31.3139 60.7203 31.5952C60.888 31.8764 60.9718 32.2216 60.9718 32.6307C60.9718 33.1023 60.8482 33.5284 60.601 33.9091C60.3567 34.2898 59.9988 34.5923 59.5272 34.8168C59.0584 35.0412 58.4888 35.1534 57.8184 35.1534C57.1934 35.1534 56.6522 35.0526 56.1948 34.8509C55.7402 34.6492 55.3823 34.3679 55.1209 34.0071C54.8624 33.6463 54.7161 33.2273 54.682 32.75H55.7729C55.8013 33.0795 55.9121 33.3523 56.1053 33.5682C56.3013 33.7813 56.5485 33.9403 56.8468 34.0455C57.1479 34.1477 57.4718 34.1989 57.8184 34.1989C58.2218 34.1989 58.584 34.1335 58.905 34.0028C59.226 33.8693 59.4803 33.6847 59.6678 33.4489C59.8553 33.2102 59.949 32.9318 59.949 32.6136C59.949 32.3239 59.8681 32.0881 59.7061 31.9063C59.5442 31.7244 59.3311 31.5767 59.0669 31.4631C58.8027 31.3494 58.5172 31.25 58.2104 31.1648L57.1365 30.858C56.4547 30.6619 55.915 30.3821 55.5172 30.0185C55.1195 29.6548 54.9206 29.179 54.9206 28.5909C54.9206 28.1023 55.0527 27.6761 55.3169 27.3125C55.584 26.946 55.9419 26.6619 56.3908 26.4602C56.8425 26.2557 57.3468 26.1534 57.9036 26.1534C58.4661 26.1534 58.9661 26.2543 59.4036 26.456C59.8411 26.6548 60.1877 26.9276 60.4434 27.2742C60.7019 27.6207 60.8382 28.0142 60.8525 28.4545H59.8297Z" fill="black" fill-opacity="0.6"/>
<path d="M61.8721 27.2102V26.2727H68.4175V27.2102H65.6732V35H64.6164V27.2102H61.8721Z" fill="black" fill-opacity="0.6"/>
<path d="M75.4158 26.2727H76.4726V32.0511C76.4726 32.6477 76.332 33.1804 76.0508 33.6492C75.7724 34.1151 75.3789 34.483 74.8704 34.7528C74.3619 35.0199 73.7653 35.1534 73.0806 35.1534C72.3959 35.1534 71.7994 35.0199 71.2908 34.7528C70.7823 34.483 70.3874 34.1151 70.1062 33.6492C69.8278 33.1804 69.6886 32.6477 69.6886 32.0511V26.2727H70.7454V31.9659C70.7454 32.392 70.8391 32.7713 71.0266 33.1037C71.2141 33.4332 71.4812 33.6932 71.8278 33.8835C72.1772 34.071 72.5948 34.1648 73.0806 34.1648C73.5664 34.1648 73.984 34.071 74.3334 33.8835C74.6829 33.6932 74.9499 33.4332 75.1346 33.1037C75.3221 32.7713 75.4158 32.392 75.4158 31.9659V26.2727Z" fill="black" fill-opacity="0.6"/>
<path d="M80.9163 35H78.2231V26.2727H81.0356C81.8822 26.2727 82.6066 26.4474 83.2089 26.7969C83.8112 27.1435 84.2728 27.642 84.5938 28.2926C84.9149 28.9403 85.0754 29.7159 85.0754 30.6193C85.0754 31.5284 84.9134 32.3111 84.5896 32.9673C84.2657 33.6207 83.7941 34.1236 83.1748 34.4759C82.5555 34.8253 81.8026 35 80.9163 35ZM79.2799 34.0625H80.8481C81.5697 34.0625 82.1677 33.9233 82.6421 33.6449C83.1166 33.3665 83.4702 32.9702 83.7032 32.456C83.9362 31.9418 84.0526 31.3295 84.0526 30.6193C84.0526 29.9148 83.9376 29.3082 83.7075 28.7997C83.4774 28.2884 83.1336 27.8963 82.6762 27.6236C82.2188 27.348 81.6492 27.2102 80.9674 27.2102H79.2799V34.0625Z" fill="black" fill-opacity="0.6"/>
<path d="M87.5449 26.2727V35H86.4881V26.2727H87.5449Z" fill="black" fill-opacity="0.6"/>
<path d="M96.6675 30.6364C96.6675 31.5568 96.5013 32.3523 96.1689 33.0227C95.8365 33.6932 95.3806 34.2102 94.801 34.5739C94.2215 34.9375 93.5596 35.1193 92.8152 35.1193C92.0709 35.1193 91.409 34.9375 90.8294 34.5739C90.2499 34.2102 89.7939 33.6932 89.4615 33.0227C89.1292 32.3523 88.963 31.5568 88.963 30.6364C88.963 29.7159 89.1292 28.9205 89.4615 28.25C89.7939 27.5795 90.2499 27.0625 90.8294 26.6989C91.409 26.3352 92.0709 26.1534 92.8152 26.1534C93.5596 26.1534 94.2215 26.3352 94.801 26.6989C95.3806 27.0625 95.8365 27.5795 96.1689 28.25C96.5013 28.9205 96.6675 29.7159 96.6675 30.6364ZM95.6448 30.6364C95.6448 29.8807 95.5184 29.2429 95.2655 28.723C95.0155 28.2031 94.676 27.8097 94.2471 27.5426C93.8209 27.2756 93.3436 27.142 92.8152 27.142C92.2868 27.142 91.8081 27.2756 91.3792 27.5426C90.953 27.8097 90.6135 28.2031 90.3607 28.723C90.1107 29.2429 89.9857 29.8807 89.9857 30.6364C89.9857 31.392 90.1107 32.0298 90.3607 32.5497C90.6135 33.0696 90.953 33.4631 91.3792 33.7301C91.8081 33.9972 92.2868 34.1307 92.8152 34.1307C93.3436 34.1307 93.8209 33.9972 94.2471 33.7301C94.676 33.4631 95.0155 33.0696 95.2655 32.5497C95.5184 32.0298 95.6448 31.392 95.6448 30.6364Z" fill="black" fill-opacity="0.6"/>
</svg>
