<svg width="88" height="134" viewBox="0 0 88 134" fill="none" xmlns="http://www.w3.org/2000/svg">
<path d="M83.3076 0H87.8193V79.999H8.12012V46.873L3.30859 51.1279L0 47.5186L8.12012 40.3174V0H12.6318V-0.000976562H83.3076V0ZM12.6318 42.8838V75.4883H48.1201V40L32.1807 25.8652H31.8799L12.6318 42.8838ZM12.6318 36.3164L31.8799 19.249H32.1807L64.0596 47.5186L60.4512 51.1279L52.6309 44.2109V75.4883H83.3076V4.50977H12.6318V36.3164ZM54.4355 21.9541V33.6836L46.3154 26.4648V21.9541H54.4355Z" fill="#FB471E"/>
<path d="M3.30256 115H0.490057L5.6108 100.455H8.86364L13.9915 115H11.179L7.29403 103.438H7.1804L3.30256 115ZM3.39489 109.297H11.0653V111.413H3.39489V109.297ZM15.3073 115V100.455H20.7619C21.8793 100.455 22.8168 100.649 23.5744 101.037C24.3367 101.425 24.912 101.97 25.3002 102.67C25.6932 103.366 25.8897 104.179 25.8897 105.107C25.8897 106.039 25.6908 106.849 25.2931 107.536C24.9001 108.217 24.3201 108.745 23.5531 109.119C22.786 109.489 21.8438 109.673 20.7263 109.673H16.8414V107.486H20.3712C21.0246 107.486 21.5597 107.396 21.9763 107.216C22.393 107.031 22.7008 106.764 22.8996 106.413C23.1032 106.058 23.205 105.623 23.205 105.107C23.205 104.59 23.1032 104.15 22.8996 103.786C22.696 103.416 22.3859 103.137 21.9692 102.947C21.5526 102.753 21.0152 102.656 20.357 102.656H17.9423V115H15.3073ZM22.8215 108.409L26.4224 115H23.482L19.9451 108.409H22.8215ZM27.0759 102.663V100.455H38.681V102.663H34.1853V115H31.5717V102.663H27.0759ZM40.3183 115V100.455H49.7785V102.663H42.9532V106.612H49.2884V108.821H42.9532V112.791H49.8353V115H40.3183ZM53.8127 100.455L57.5982 111.903H57.7474L61.5258 100.455H64.4235L59.2957 115H56.0428L50.9221 100.455H53.8127ZM77.9553 107.727C77.9553 109.295 77.6617 110.637 77.0746 111.754C76.4922 112.867 75.6967 113.719 74.6882 114.311C73.6844 114.903 72.5457 115.199 71.272 115.199C69.9983 115.199 68.8572 114.903 67.8487 114.311C66.8449 113.714 66.0495 112.86 65.4624 111.747C64.88 110.63 64.5888 109.29 64.5888 107.727C64.5888 106.16 64.88 104.82 65.4624 103.707C66.0495 102.59 66.8449 101.735 67.8487 101.143C68.8572 100.552 69.9983 100.256 71.272 100.256C72.5457 100.256 73.6844 100.552 74.6882 101.143C75.6967 101.735 76.4922 102.59 77.0746 103.707C77.6617 104.82 77.9553 106.16 77.9553 107.727ZM75.3061 107.727C75.3061 106.624 75.1333 105.694 74.7876 104.936C74.4467 104.174 73.9732 103.598 73.3672 103.21C72.7611 102.817 72.0627 102.621 71.272 102.621C70.4813 102.621 69.7829 102.817 69.1768 103.21C68.5708 103.598 68.0949 104.174 67.7493 104.936C67.4084 105.694 67.2379 106.624 67.2379 107.727C67.2379 108.83 67.4084 109.763 67.7493 110.526C68.0949 111.283 68.5708 111.858 69.1768 112.251C69.7829 112.64 70.4813 112.834 71.272 112.834C72.0627 112.834 72.7611 112.64 73.3672 112.251C73.9732 111.858 74.4467 111.283 74.7876 110.526C75.1333 109.763 75.3061 108.83 75.3061 107.727Z" fill="white"/>
<path d="M5.82955 123.455C5.77841 123.023 5.57102 122.688 5.20739 122.449C4.84375 122.21 4.39773 122.091 3.86932 122.091C3.48295 122.091 3.14489 122.153 2.85511 122.278C2.56818 122.403 2.34375 122.575 2.18182 122.794C2.02273 123.013 1.94318 123.261 1.94318 123.54C1.94318 123.773 1.99858 123.973 2.10938 124.141C2.22301 124.305 2.3679 124.443 2.54403 124.554C2.72017 124.662 2.90483 124.751 3.09801 124.822C3.29119 124.891 3.46875 124.946 3.63068 124.989L4.51705 125.227C4.74432 125.287 4.99716 125.369 5.27557 125.474C5.55682 125.58 5.82528 125.723 6.08097 125.905C6.33949 126.084 6.55256 126.314 6.72017 126.595C6.88778 126.876 6.97159 127.222 6.97159 127.631C6.97159 128.102 6.84801 128.528 6.60085 128.909C6.35653 129.29 5.99858 129.592 5.52699 129.817C5.05824 130.041 4.48864 130.153 3.81818 130.153C3.19318 130.153 2.65199 130.053 2.1946 129.851C1.74006 129.649 1.3821 129.368 1.12074 129.007C0.862216 128.646 0.715909 128.227 0.681818 127.75H1.77273C1.80114 128.08 1.91193 128.352 2.10511 128.568C2.30114 128.781 2.5483 128.94 2.84659 129.045C3.14773 129.148 3.47159 129.199 3.81818 129.199C4.22159 129.199 4.58381 129.134 4.90483 129.003C5.22585 128.869 5.48011 128.685 5.66761 128.449C5.85511 128.21 5.94886 127.932 5.94886 127.614C5.94886 127.324 5.8679 127.088 5.70597 126.906C5.54403 126.724 5.33097 126.577 5.06676 126.463C4.80256 126.349 4.51705 126.25 4.21023 126.165L3.13636 125.858C2.45455 125.662 1.91477 125.382 1.51705 125.018C1.11932 124.655 0.920455 124.179 0.920455 123.591C0.920455 123.102 1.05256 122.676 1.31676 122.312C1.58381 121.946 1.94176 121.662 2.39062 121.46C2.84233 121.256 3.34659 121.153 3.90341 121.153C4.46591 121.153 4.96591 121.254 5.40341 121.456C5.84091 121.655 6.1875 121.928 6.44318 122.274C6.7017 122.621 6.83807 123.014 6.85227 123.455H5.82955ZM7.87189 122.21V121.273H14.4173V122.21H11.673V130H10.6162V122.21H7.87189ZM21.4157 121.273H22.4725V127.051C22.4725 127.648 22.3318 128.18 22.0506 128.649C21.7722 129.115 21.3787 129.483 20.8702 129.753C20.3617 130.02 19.7651 130.153 19.0804 130.153C18.3958 130.153 17.7992 130.02 17.2907 129.753C16.7821 129.483 16.3872 129.115 16.106 128.649C15.8276 128.18 15.6884 127.648 15.6884 127.051V121.273H16.7452V126.966C16.7452 127.392 16.8389 127.771 17.0264 128.104C17.2139 128.433 17.481 128.693 17.8276 128.884C18.177 129.071 18.5946 129.165 19.0804 129.165C19.5662 129.165 19.9838 129.071 20.3333 128.884C20.6827 128.693 20.9497 128.433 21.1344 128.104C21.3219 127.771 21.4157 127.392 21.4157 126.966V121.273ZM26.9161 130H24.2229V121.273H27.0354C27.882 121.273 28.6064 121.447 29.2087 121.797C29.811 122.143 30.2726 122.642 30.5937 123.293C30.9147 123.94 31.0752 124.716 31.0752 125.619C31.0752 126.528 30.9133 127.311 30.5894 127.967C30.2655 128.621 29.7939 129.124 29.1746 129.476C28.5553 129.825 27.8025 130 26.9161 130ZM25.2797 129.062H26.8479C27.5695 129.062 28.1675 128.923 28.6419 128.645C29.1164 128.366 29.4701 127.97 29.703 127.456C29.936 126.942 30.0525 126.33 30.0525 125.619C30.0525 124.915 29.9374 124.308 29.7073 123.8C29.4772 123.288 29.1334 122.896 28.676 122.624C28.2187 122.348 27.649 122.21 26.9672 122.21H25.2797V129.062ZM33.5447 121.273V130H32.4879V121.273H33.5447ZM42.6673 125.636C42.6673 126.557 42.5011 127.352 42.1688 128.023C41.8364 128.693 41.3804 129.21 40.8009 129.574C40.2213 129.938 39.5594 130.119 38.8151 130.119C38.0707 130.119 37.4088 129.938 36.8293 129.574C36.2497 129.21 35.7938 128.693 35.4614 128.023C35.129 127.352 34.9628 126.557 34.9628 125.636C34.9628 124.716 35.129 123.92 35.4614 123.25C35.7938 122.58 36.2497 122.062 36.8293 121.699C37.4088 121.335 38.0707 121.153 38.8151 121.153C39.5594 121.153 40.2213 121.335 40.8009 121.699C41.3804 122.062 41.8364 122.58 42.1688 123.25C42.5011 123.92 42.6673 124.716 42.6673 125.636ZM41.6446 125.636C41.6446 124.881 41.5182 124.243 41.2653 123.723C41.0153 123.203 40.6759 122.81 40.2469 122.543C39.8207 122.276 39.3435 122.142 38.8151 122.142C38.2866 122.142 37.808 122.276 37.379 122.543C36.9528 122.81 36.6134 123.203 36.3605 123.723C36.1105 124.243 35.9855 124.881 35.9855 125.636C35.9855 126.392 36.1105 127.03 36.3605 127.55C36.6134 128.07 36.9528 128.463 37.379 128.73C37.808 128.997 38.2866 129.131 38.8151 129.131C39.3435 129.131 39.8207 128.997 40.2469 128.73C40.6759 128.463 41.0153 128.07 41.2653 127.55C41.5182 127.03 41.6446 126.392 41.6446 125.636Z" fill="white" fill-opacity="0.6"/>
</svg>
