<svg width="139" height="40" viewBox="0 0 139 40" fill="none" xmlns="http://www.w3.org/2000/svg">
<path d="M43.9092 40H4.06055V23.4355L1.6543 25.5635L0 23.7598L4.06055 20.1582V0H43.9092V40ZM6.31543 21.4414V37.7441H24.0596V20L16.0898 12.9326H15.9395L6.31543 21.4414ZM6.31543 18.1582L15.9395 9.62402H16.0898L32.0303 23.7598L30.2256 25.5635L26.3154 22.1055V37.7441H41.6533V2.25586H6.31543V18.1582ZM27.2178 10.9775V16.8418L23.1572 13.2334V10.9775H27.2178Z" fill="#6D9912"/>
<path d="M57.3026 20H54.4901L59.6108 5.45455H62.8636L67.9915 20H65.179L61.294 8.4375H61.1804L57.3026 20ZM57.3949 14.2969H65.0653V16.4134H57.3949V14.2969ZM69.3073 20V5.45455H74.7619C75.8793 5.45455 76.8168 5.64867 77.5744 6.03693C78.3367 6.42519 78.912 6.9697 79.3002 7.67045C79.6932 8.36648 79.8897 9.1785 79.8897 10.1065C79.8897 11.0393 79.6908 11.849 79.2931 12.5355C78.9001 13.2173 78.3201 13.7453 77.5531 14.1193C76.786 14.4886 75.8438 14.6733 74.7263 14.6733H70.8414V12.4858H74.3712C75.0246 12.4858 75.5597 12.3958 75.9763 12.2159C76.393 12.0312 76.7008 11.7637 76.8996 11.4134C77.1032 11.0582 77.205 10.6226 77.205 10.1065C77.205 9.59044 77.1032 9.15009 76.8996 8.78551C76.696 8.41619 76.3859 8.13684 75.9692 7.94744C75.5526 7.75331 75.0152 7.65625 74.357 7.65625H71.9423V20H69.3073ZM76.8215 13.4091L80.4224 20H77.482L73.9451 13.4091H76.8215ZM81.0759 7.66335V5.45455H92.681V7.66335H88.1853V20H85.5717V7.66335H81.0759ZM94.3183 20V5.45455H103.778V7.66335H96.9532V11.6122H103.288V13.821H96.9532V17.7912H103.835V20H94.3183ZM107.813 5.45455L111.598 16.9034H111.747L115.526 5.45455H118.424L113.296 20H110.043L104.922 5.45455H107.813ZM131.955 12.7273C131.955 14.2945 131.662 15.6368 131.075 16.7543C130.492 17.867 129.697 18.7192 128.688 19.3111C127.684 19.9029 126.546 20.1989 125.272 20.1989C123.998 20.1989 122.857 19.9029 121.849 19.3111C120.845 18.7145 120.049 17.8598 119.462 16.7472C118.88 15.6297 118.589 14.2898 118.589 12.7273C118.589 11.16 118.88 9.82008 119.462 8.70739C120.049 7.58996 120.845 6.73532 121.849 6.14347C122.857 5.55161 123.998 5.25568 125.272 5.25568C126.546 5.25568 127.684 5.55161 128.688 6.14347C129.697 6.73532 130.492 7.58996 131.075 8.70739C131.662 9.82008 131.955 11.16 131.955 12.7273ZM129.306 12.7273C129.306 11.6241 129.133 10.6937 128.788 9.93608C128.447 9.17377 127.973 8.59848 127.367 8.21023C126.761 7.81723 126.063 7.62074 125.272 7.62074C124.481 7.62074 123.783 7.81723 123.177 8.21023C122.571 8.59848 122.095 9.17377 121.749 9.93608C121.408 10.6937 121.238 11.6241 121.238 12.7273C121.238 13.8305 121.408 14.7633 121.749 15.5256C122.095 16.2831 122.571 16.8584 123.177 17.2514C123.783 17.6397 124.481 17.8338 125.272 17.8338C126.063 17.8338 126.761 17.6397 127.367 17.2514C127.973 16.8584 128.447 16.2831 128.788 15.5256C129.133 14.7633 129.306 13.8305 129.306 12.7273Z" fill="white"/>
<path d="M59.8295 28.4545C59.7784 28.0227 59.571 27.6875 59.2074 27.4489C58.8438 27.2102 58.3977 27.0909 57.8693 27.0909C57.483 27.0909 57.1449 27.1534 56.8551 27.2784C56.5682 27.4034 56.3438 27.5753 56.1818 27.794C56.0227 28.0128 55.9432 28.2614 55.9432 28.5398C55.9432 28.7727 55.9986 28.973 56.1094 29.1406C56.223 29.3054 56.3679 29.4432 56.544 29.554C56.7202 29.6619 56.9048 29.7514 57.098 29.8224C57.2912 29.8906 57.4688 29.946 57.6307 29.9886L58.517 30.2273C58.7443 30.2869 58.9972 30.3693 59.2756 30.4744C59.5568 30.5795 59.8253 30.723 60.081 30.9048C60.3395 31.0838 60.5526 31.3139 60.7202 31.5952C60.8878 31.8764 60.9716 32.2216 60.9716 32.6307C60.9716 33.1023 60.848 33.5284 60.6009 33.9091C60.3565 34.2898 59.9986 34.5923 59.527 34.8168C59.0582 35.0412 58.4886 35.1534 57.8182 35.1534C57.1932 35.1534 56.652 35.0526 56.1946 34.8509C55.7401 34.6491 55.3821 34.3679 55.1207 34.0071C54.8622 33.6463 54.7159 33.2273 54.6818 32.75H55.7727C55.8011 33.0795 55.9119 33.3523 56.1051 33.5682C56.3011 33.7812 56.5483 33.9403 56.8466 34.0455C57.1477 34.1477 57.4716 34.1989 57.8182 34.1989C58.2216 34.1989 58.5838 34.1335 58.9048 34.0028C59.2259 33.8693 59.4801 33.6847 59.6676 33.4489C59.8551 33.2102 59.9489 32.9318 59.9489 32.6136C59.9489 32.3239 59.8679 32.0881 59.706 31.9062C59.544 31.7244 59.331 31.5767 59.0668 31.4631C58.8026 31.3494 58.517 31.25 58.2102 31.1648L57.1364 30.858C56.4545 30.6619 55.9148 30.3821 55.517 30.0185C55.1193 29.6548 54.9205 29.179 54.9205 28.5909C54.9205 28.1023 55.0526 27.6761 55.3168 27.3125C55.5838 26.946 55.9418 26.6619 56.3906 26.4602C56.8423 26.2557 57.3466 26.1534 57.9034 26.1534C58.4659 26.1534 58.9659 26.2543 59.4034 26.456C59.8409 26.6548 60.1875 26.9276 60.4432 27.2741C60.7017 27.6207 60.8381 28.0142 60.8523 28.4545H59.8295ZM61.8719 27.2102V26.2727H68.4173V27.2102H65.673V35H64.6162V27.2102H61.8719ZM75.4157 26.2727H76.4725V32.0511C76.4725 32.6477 76.3318 33.1804 76.0506 33.6491C75.7722 34.1151 75.3787 34.483 74.8702 34.7528C74.3617 35.0199 73.7651 35.1534 73.0804 35.1534C72.3958 35.1534 71.7992 35.0199 71.2907 34.7528C70.7821 34.483 70.3872 34.1151 70.106 33.6491C69.8276 33.1804 69.6884 32.6477 69.6884 32.0511V26.2727H70.7452V31.9659C70.7452 32.392 70.8389 32.7713 71.0264 33.1037C71.2139 33.4332 71.481 33.6932 71.8276 33.8835C72.177 34.071 72.5946 34.1648 73.0804 34.1648C73.5662 34.1648 73.9838 34.071 74.3333 33.8835C74.6827 33.6932 74.9497 33.4332 75.1344 33.1037C75.3219 32.7713 75.4157 32.392 75.4157 31.9659V26.2727ZM80.9161 35H78.2229V26.2727H81.0354C81.882 26.2727 82.6064 26.4474 83.2087 26.7969C83.811 27.1435 84.2726 27.642 84.5937 28.2926C84.9147 28.9403 85.0752 29.7159 85.0752 30.6193C85.0752 31.5284 84.9133 32.3111 84.5894 32.9673C84.2655 33.6207 83.7939 34.1236 83.1746 34.4759C82.5553 34.8253 81.8025 35 80.9161 35ZM79.2797 34.0625H80.8479C81.5695 34.0625 82.1675 33.9233 82.6419 33.6449C83.1164 33.3665 83.4701 32.9702 83.703 32.456C83.936 31.9418 84.0525 31.3295 84.0525 30.6193C84.0525 29.9148 83.9374 29.3082 83.7073 28.7997C83.4772 28.2884 83.1334 27.8963 82.676 27.6236C82.2187 27.348 81.649 27.2102 80.9672 27.2102H79.2797V34.0625ZM87.5447 26.2727V35H86.4879V26.2727H87.5447ZM96.6673 30.6364C96.6673 31.5568 96.5011 32.3523 96.1688 33.0227C95.8364 33.6932 95.3804 34.2102 94.8009 34.5739C94.2213 34.9375 93.5594 35.1193 92.8151 35.1193C92.0707 35.1193 91.4088 34.9375 90.8293 34.5739C90.2497 34.2102 89.7938 33.6932 89.4614 33.0227C89.129 32.3523 88.9628 31.5568 88.9628 30.6364C88.9628 29.7159 89.129 28.9205 89.4614 28.25C89.7938 27.5795 90.2497 27.0625 90.8293 26.6989C91.4088 26.3352 92.0707 26.1534 92.8151 26.1534C93.5594 26.1534 94.2213 26.3352 94.8009 26.6989C95.3804 27.0625 95.8364 27.5795 96.1688 28.25C96.5011 28.9205 96.6673 29.7159 96.6673 30.6364ZM95.6446 30.6364C95.6446 29.8807 95.5182 29.2429 95.2653 28.723C95.0153 28.2031 94.6759 27.8097 94.2469 27.5426C93.8207 27.2756 93.3435 27.142 92.8151 27.142C92.2866 27.142 91.808 27.2756 91.379 27.5426C90.9528 27.8097 90.6134 28.2031 90.3605 28.723C90.1105 29.2429 89.9855 29.8807 89.9855 30.6364C89.9855 31.392 90.1105 32.0298 90.3605 32.5497C90.6134 33.0696 90.9528 33.4631 91.379 33.7301C91.808 33.9972 92.2866 34.1307 92.8151 34.1307C93.3435 34.1307 93.8207 33.9972 94.2469 33.7301C94.6759 33.4631 95.0153 33.0696 95.2653 32.5497C95.5182 32.0298 95.6446 31.392 95.6446 30.6364Z" fill="white" fill-opacity="0.6"/>
</svg>
