<svg width="231" height="70" viewBox="0 0 231 70" fill="none" xmlns="http://www.w3.org/2000/svg">
<path d="M11.0527 31.7783L27.8945 16.8428H28.1572L56.0518 41.5801L52.8945 44.7373L46.0518 38.6846V66.0527H72.8945V3.94922H11.0537V0.00195312H72.8945V0H76.8418V70H11.0537V66.0527H42.1045V35.001L28.1572 22.6328H27.8945L11.0527 37.5234V70H7.10547V41.0137L2.89453 44.7373L0 41.5801L7.10547 35.2783V0H11.0527V31.7783ZM47.6318 19.21V29.4727L40.5264 23.1572V19.21H47.6318Z" fill="#A9997A"/>
<path d="M100.279 35.0018H95.3574L104.319 9.54723H110.011L118.985 35.0018H114.063L107.264 14.7674H107.066L100.279 35.0018ZM100.441 25.0213H113.864V28.7251H100.441V25.0213Z" fill="white"/>
<path d="M121.288 35.0018V9.54723H130.833C132.789 9.54723 134.429 9.88696 135.755 10.5664C137.089 11.2459 138.096 12.1987 138.775 13.4251C139.463 14.6431 139.807 16.0642 139.807 17.6882C139.807 19.3206 139.459 20.7375 138.763 21.9389C138.075 23.1321 137.06 24.056 135.718 24.7106C134.375 25.3569 132.726 25.68 130.771 25.68H123.972V21.8519H130.149C131.293 21.8519 132.229 21.6945 132.958 21.3796C133.688 21.0565 134.226 20.5883 134.574 19.9751C134.931 19.3537 135.109 18.5914 135.109 17.6882C135.109 16.785 134.931 16.0144 134.574 15.3764C134.218 14.7301 133.675 14.2412 132.946 13.9098C132.217 13.5701 131.276 13.4002 130.125 13.4002H125.899V35.0018H121.288ZM134.437 23.4677L140.739 35.0018H135.593L129.404 23.4677H134.437Z" fill="white"/>
<path d="M141.883 13.4126V9.54723H162.192V13.4126H154.324V35.0018H149.75V13.4126H141.883Z" fill="white"/>
<path d="M165.057 35.0018V9.54723H181.612V13.4126H169.668V20.3232H180.755V24.1886H169.668V31.1364H181.712V35.0018H165.057Z" fill="white"/>
<path d="M188.672 9.54723L195.297 29.5827H195.558L202.17 9.54723H207.241L198.267 35.0018H192.575L183.613 9.54723H188.672Z" fill="white"/>
<path d="M230.922 22.2745C230.922 25.0172 230.408 27.3662 229.38 29.3217C228.361 31.2689 226.969 32.7604 225.204 33.7962C223.448 34.8319 221.455 35.3498 219.226 35.3498C216.997 35.3498 215 34.8319 213.235 33.7962C211.478 32.7521 210.086 31.2565 209.059 29.3093C208.04 27.3538 207.53 25.0089 207.53 22.2745C207.53 19.5318 208.04 17.1869 209.059 15.2397C210.086 13.2842 211.478 11.7886 213.235 10.7528C215 9.71709 216.997 9.19922 219.226 9.19922C221.455 9.19922 223.448 9.71709 225.204 10.7528C226.969 11.7886 228.361 13.2842 229.38 15.2397C230.408 17.1869 230.922 19.5318 230.922 22.2745ZM226.286 22.2745C226.286 20.3439 225.983 18.7157 225.378 17.3899C224.782 16.0559 223.953 15.0491 222.892 14.3697C221.832 13.6819 220.61 13.3381 219.226 13.3381C217.842 13.3381 216.62 13.6819 215.559 14.3697C214.499 15.0491 213.666 16.0559 213.061 17.3899C212.464 18.7157 212.166 20.3439 212.166 22.2745C212.166 24.2051 212.464 25.8375 213.061 27.1715C213.666 28.4973 214.499 29.504 215.559 30.1918C216.62 30.8712 217.842 31.2109 219.226 31.2109C220.61 31.2109 221.832 30.8712 222.892 30.1918C223.953 29.504 224.782 28.4973 225.378 27.1715C225.983 25.8375 226.286 24.2051 226.286 22.2745Z" fill="white"/>
<path d="M104.702 49.7972C104.612 49.0416 104.249 48.4549 103.613 48.0373C102.976 47.6197 102.196 47.4109 101.271 47.4109C100.595 47.4109 100.003 47.5202 99.4963 47.739C98.9941 47.9577 98.6014 48.2585 98.318 48.6413C98.0396 49.0242 97.9004 49.4592 97.9004 49.9464C97.9004 50.3541 97.9973 50.7046 98.1912 50.9979C98.3901 51.2862 98.6436 51.5274 98.9519 51.7212C99.2601 51.9102 99.5833 52.0668 99.9213 52.1911C100.259 52.3104 100.57 52.4073 100.854 52.4819L102.405 52.8995C102.802 53.0039 103.245 53.1481 103.732 53.332C104.224 53.516 104.694 53.7671 105.142 54.0852C105.594 54.3984 105.967 54.8011 106.26 55.2933C106.553 55.7855 106.7 56.3896 106.7 57.1055C106.7 57.9308 106.484 58.6765 106.051 59.3427C105.624 60.0089 104.997 60.5384 104.172 60.9311C103.352 61.3239 102.355 61.5202 101.182 61.5202C100.088 61.5202 99.1408 61.3438 98.3404 60.9908C97.5449 60.6378 96.9185 60.1456 96.4611 59.5142C96.0087 58.8828 95.7527 58.1495 95.693 57.3143H97.6021C97.6518 57.891 97.8457 58.3683 98.1838 58.7461C98.5268 59.119 98.9593 59.3974 99.4814 59.5813C100.008 59.7603 100.575 59.8498 101.182 59.8498C101.888 59.8498 102.521 59.7354 103.083 59.5068C103.645 59.2731 104.09 58.9499 104.418 58.5373C104.746 58.1197 104.91 57.6325 104.91 57.0756C104.91 56.5685 104.769 56.1559 104.485 55.8377C104.202 55.5195 103.829 55.261 103.367 55.0621C102.904 54.8633 102.405 54.6893 101.868 54.5401L99.9885 54.0032C98.7953 53.6602 97.8507 53.1705 97.1547 52.5341C96.4586 51.8977 96.1106 51.065 96.1106 50.0359C96.1106 49.1808 96.3418 48.435 96.8042 47.7987C97.2715 47.1573 97.8979 46.6602 98.6834 46.3072C99.4739 45.9492 100.356 45.7702 101.331 45.7702C102.315 45.7702 103.19 45.9467 103.956 46.2997C104.721 46.6477 105.328 47.125 105.775 47.7315C106.228 48.3381 106.466 49.0266 106.491 49.7972H104.702Z" fill="white" fill-opacity="0.6"/>
<path d="M108.276 47.6197V45.9791H119.73V47.6197H114.928V61.2518H113.078V47.6197H108.276Z" fill="white" fill-opacity="0.6"/>
<path d="M131.977 45.9791H133.827V56.0913C133.827 57.1353 133.581 58.0675 133.088 58.8878C132.601 59.7031 131.913 60.347 131.023 60.8193C130.133 61.2866 129.089 61.5202 127.891 61.5202C126.692 61.5202 125.648 61.2866 124.758 60.8193C123.869 60.347 123.178 59.7031 122.685 58.8878C122.198 58.0675 121.954 57.1353 121.954 56.0913V45.9791H123.804V55.9421C123.804 56.6879 123.968 57.3516 124.296 57.9332C124.624 58.5099 125.092 58.9649 125.698 59.298C126.31 59.6261 127.04 59.7901 127.891 59.7901C128.741 59.7901 129.472 59.6261 130.083 59.298C130.695 58.9649 131.162 58.5099 131.485 57.9332C131.813 57.3516 131.977 56.6879 131.977 55.9421V45.9791Z" fill="white" fill-opacity="0.6"/>
<path d="M141.603 61.2518H136.89V45.9791H141.812C143.293 45.9791 144.561 46.2848 145.615 46.8963C146.669 47.5028 147.477 48.3754 148.039 49.5139C148.601 50.6474 148.881 52.0046 148.881 53.5856C148.881 55.1765 148.598 56.5462 148.031 57.6946C147.464 58.8381 146.639 59.718 145.555 60.3345C144.472 60.946 143.154 61.2518 141.603 61.2518ZM138.739 59.6112H141.484C142.746 59.6112 143.793 59.3676 144.623 58.8803C145.453 58.3931 146.072 57.6996 146.48 56.7997C146.888 55.8999 147.092 54.8285 147.092 53.5856C147.092 52.3526 146.89 51.2912 146.488 50.4013C146.085 49.5064 145.483 48.8203 144.683 48.343C143.882 47.8608 142.886 47.6197 141.692 47.6197H138.739V59.6112Z" fill="white" fill-opacity="0.6"/>
<path d="M153.203 45.9791V61.2518H151.354V45.9791H153.203Z" fill="white" fill-opacity="0.6"/>
<path d="M169.168 53.6154C169.168 55.2262 168.877 56.6183 168.295 57.7916C167.713 58.9649 166.916 59.8697 165.901 60.506C164.887 61.1424 163.729 61.4606 162.426 61.4606C161.124 61.4606 159.965 61.1424 158.951 60.506C157.937 59.8697 157.139 58.9649 156.557 57.7916C155.976 56.6183 155.685 55.2262 155.685 53.6154C155.685 52.0046 155.976 50.6126 156.557 49.4393C157.139 48.266 157.937 47.3612 158.951 46.7248C159.965 46.0884 161.124 45.7702 162.426 45.7702C163.729 45.7702 164.887 46.0884 165.901 46.7248C166.916 47.3612 167.713 48.266 168.295 49.4393C168.877 50.6126 169.168 52.0046 169.168 53.6154ZM167.378 53.6154C167.378 52.293 167.157 51.1769 166.714 50.2671C166.277 49.3573 165.683 48.6687 164.932 48.2014C164.186 47.734 163.351 47.5004 162.426 47.5004C161.501 47.5004 160.664 47.734 159.913 48.2014C159.167 48.6687 158.573 49.3573 158.131 50.2671C157.693 51.1769 157.474 52.293 157.474 53.6154C157.474 54.9379 157.693 56.054 158.131 56.9638C158.573 57.8736 159.167 58.5622 159.913 59.0295C160.664 59.4968 161.501 59.7305 162.426 59.7305C163.351 59.7305 164.186 59.4968 164.932 59.0295C165.683 58.5622 166.277 57.8736 166.714 56.9638C167.157 56.054 167.378 54.9379 167.378 53.6154Z" fill="white" fill-opacity="0.6"/>
</svg>
