<svg width="231" height="70" viewBox="0 0 231 70" fill="none" xmlns="http://www.w3.org/2000/svg">
<path d="M11.0527 31.7783L27.8945 16.8428H28.1572L56.0518 41.5801L52.8945 44.7373L46.0518 38.6846V66.0527H72.8945V3.94922H11.0537V0.00195312H72.8945V0H76.8418V70H11.0537V66.0527H42.1045V35.001L28.1572 22.6328H27.8945L11.0527 37.5234V70H7.10547V41.0137L2.89453 44.7373L0 41.5801L7.10547 35.2783V0H11.0527V31.7783ZM47.6318 19.21V29.4727L40.5264 23.1572V19.21H47.6318Z" fill="white"/>
<path d="M100.28 35.0018H95.3579L104.319 9.54723H110.012L118.985 35.0018H114.064L107.265 14.7674H107.066L100.28 35.0018ZM100.441 25.0213H113.865V28.7251H100.441V25.0213Z" fill="white"/>
<path d="M121.288 35.0018V9.54723H130.834C132.789 9.54723 134.43 9.88696 135.755 10.5664C137.089 11.2459 138.096 12.1987 138.776 13.4251C139.463 14.6431 139.807 16.0642 139.807 17.6882C139.807 19.3206 139.459 20.7375 138.763 21.9389C138.076 23.1321 137.06 24.056 135.718 24.7106C134.376 25.3569 132.727 25.68 130.771 25.68H123.973V21.8519H130.15C131.293 21.8519 132.23 21.6945 132.959 21.3796C133.688 21.0565 134.227 20.5883 134.575 19.9751C134.931 19.3537 135.109 18.5914 135.109 17.6882C135.109 16.785 134.931 16.0144 134.575 15.3764C134.218 14.7301 133.676 14.2412 132.946 13.9098C132.217 13.5701 131.277 13.4002 130.125 13.4002H125.899V35.0018H121.288ZM134.438 23.4677L140.739 35.0018H135.594L129.404 23.4677H134.438Z" fill="white"/>
<path d="M141.883 13.4126V9.54723H162.192V13.4126H154.325V35.0018H149.751V13.4126H141.883Z" fill="white"/>
<path d="M165.057 35.0018V9.54723H181.613V13.4126H169.668V20.3232H180.755V24.1886H169.668V31.1364H181.712V35.0018H165.057Z" fill="white"/>
<path d="M188.673 9.54723L195.297 29.5827H195.558L202.17 9.54723H207.241L198.268 35.0018H192.575L183.614 9.54723H188.673Z" fill="white"/>
<path d="M230.922 22.2745C230.922 25.0172 230.408 27.3662 229.381 29.3217C228.362 31.2689 226.97 32.7604 225.205 33.7962C223.448 34.8319 221.455 35.3498 219.226 35.3498C216.997 35.3498 215 34.8319 213.236 33.7962C211.479 32.7521 210.087 31.2565 209.059 29.3093C208.04 27.3538 207.531 25.0089 207.531 22.2745C207.531 19.5318 208.04 17.1869 209.059 15.2397C210.087 13.2842 211.479 11.7886 213.236 10.7528C215 9.71709 216.997 9.19922 219.226 9.19922C221.455 9.19922 223.448 9.71709 225.205 10.7528C226.97 11.7886 228.362 13.2842 229.381 15.2397C230.408 17.1869 230.922 19.5318 230.922 22.2745ZM226.286 22.2745C226.286 20.3439 225.984 18.7157 225.379 17.3899C224.782 16.0559 223.954 15.0491 222.893 14.3697C221.832 13.6819 220.61 13.3381 219.226 13.3381C217.843 13.3381 216.62 13.6819 215.56 14.3697C214.499 15.0491 213.666 16.0559 213.062 17.3899C212.465 18.7157 212.167 20.3439 212.167 22.2745C212.167 24.2051 212.465 25.8375 213.062 27.1715C213.666 28.4973 214.499 29.504 215.56 30.1918C216.62 30.8712 217.843 31.2109 219.226 31.2109C220.61 31.2109 221.832 30.8712 222.893 30.1918C223.954 29.504 224.782 28.4973 225.379 27.1715C225.984 25.8375 226.286 24.2051 226.286 22.2745Z" fill="white"/>
<path d="M104.702 49.7972C104.613 49.0416 104.25 48.4549 103.613 48.0373C102.977 47.6197 102.196 47.4109 101.272 47.4109C100.595 47.4109 100.004 47.5202 99.4968 47.739C98.9946 47.9577 98.6019 48.2585 98.3185 48.6413C98.0401 49.0242 97.9009 49.4592 97.9009 49.9464C97.9009 50.3541 97.9978 50.7046 98.1917 50.9979C98.3906 51.2862 98.6441 51.5274 98.9524 51.7212C99.2606 51.9102 99.5838 52.0668 99.9218 52.1911C100.26 52.3104 100.571 52.4073 100.854 52.4819L102.405 52.8995C102.803 53.0039 103.245 53.1481 103.733 53.332C104.225 53.516 104.695 53.7671 105.142 54.0852C105.594 54.3984 105.967 54.8011 106.261 55.2933C106.554 55.7855 106.701 56.3896 106.701 57.1055C106.701 57.9308 106.484 58.6765 106.052 59.3427C105.624 60.0089 104.998 60.5384 104.173 60.9311C103.352 61.3239 102.355 61.5202 101.182 61.5202C100.088 61.5202 99.1413 61.3438 98.3409 60.9908C97.5454 60.6378 96.919 60.1456 96.4616 59.5142C96.0092 58.8828 95.7532 58.1495 95.6935 57.3143H97.6026C97.6523 57.891 97.8462 58.3683 98.1843 58.7461C98.5273 59.119 98.9598 59.3974 99.4818 59.5813C100.009 59.7603 100.576 59.8498 101.182 59.8498C101.888 59.8498 102.522 59.7354 103.084 59.5068C103.646 59.2731 104.091 58.9499 104.419 58.5373C104.747 58.1197 104.911 57.6325 104.911 57.0756C104.911 56.5685 104.769 56.1559 104.486 55.8377C104.202 55.5195 103.83 55.261 103.367 55.0621C102.905 54.8633 102.405 54.6893 101.868 54.5401L99.9889 54.0032C98.7958 53.6602 97.8512 53.1705 97.1551 52.5341C96.4591 51.8977 96.1111 51.065 96.1111 50.0359C96.1111 49.1808 96.3423 48.435 96.8046 47.7987C97.272 47.1573 97.8984 46.6602 98.6839 46.3072C99.4744 45.9492 100.357 45.7702 101.331 45.7702C102.316 45.7702 103.191 45.9467 103.956 46.2997C104.722 46.6477 105.328 47.125 105.776 47.7315C106.228 48.3381 106.467 49.0266 106.492 49.7972H104.702Z" fill="white" fill-opacity="0.6"/>
<path d="M108.276 47.6197V45.9791H119.731V47.6197H114.928V61.2518H113.079V47.6197H108.276Z" fill="white" fill-opacity="0.6"/>
<path d="M131.978 45.9791H133.827V56.0913C133.827 57.1353 133.581 58.0675 133.089 58.8878C132.602 59.7031 131.913 60.347 131.023 60.8193C130.133 61.2866 129.089 61.5202 127.891 61.5202C126.693 61.5202 125.649 61.2866 124.759 60.8193C123.869 60.347 123.178 59.7031 122.686 58.8878C122.199 58.0675 121.955 57.1353 121.955 56.0913V45.9791H123.804V55.9421C123.804 56.6879 123.968 57.3516 124.297 57.9332C124.625 58.5099 125.092 58.9649 125.699 59.298C126.31 59.6261 127.041 59.7901 127.891 59.7901C128.741 59.7901 129.472 59.6261 130.084 59.298C130.695 58.9649 131.162 58.5099 131.486 57.9332C131.814 57.3516 131.978 56.6879 131.978 55.9421V45.9791Z" fill="white" fill-opacity="0.6"/>
<path d="M141.603 61.2518H136.89V45.9791H141.812C143.294 45.9791 144.562 46.2848 145.616 46.8963C146.67 47.5028 147.477 48.3754 148.039 49.5139C148.601 50.6474 148.882 52.0046 148.882 53.5856C148.882 55.1765 148.599 56.5462 148.032 57.6946C147.465 58.8381 146.64 59.718 145.556 60.3345C144.472 60.946 143.155 61.2518 141.603 61.2518ZM138.74 59.6112H141.484C142.747 59.6112 143.793 59.3676 144.624 58.8803C145.454 58.3931 146.073 57.6996 146.481 56.7997C146.888 55.8999 147.092 54.8285 147.092 53.5856C147.092 52.3526 146.891 51.2912 146.488 50.4013C146.085 49.5064 145.484 48.8203 144.683 48.343C143.883 47.8608 142.886 47.6197 141.693 47.6197H138.74V59.6112Z" fill="white" fill-opacity="0.6"/>
<path d="M153.204 45.9791V61.2518H151.354V45.9791H153.204Z" fill="white" fill-opacity="0.6"/>
<path d="M169.168 53.6154C169.168 55.2262 168.877 56.6183 168.296 57.7916C167.714 58.9649 166.916 59.8697 165.902 60.506C164.888 61.1424 163.729 61.4606 162.427 61.4606C161.124 61.4606 159.966 61.1424 158.952 60.506C157.937 59.8697 157.139 58.9649 156.558 57.7916C155.976 56.6183 155.685 55.2262 155.685 53.6154C155.685 52.0046 155.976 50.6126 156.558 49.4393C157.139 48.266 157.937 47.3612 158.952 46.7248C159.966 46.0884 161.124 45.7702 162.427 45.7702C163.729 45.7702 164.888 46.0884 165.902 46.7248C166.916 47.3612 167.714 48.266 168.296 49.4393C168.877 50.6126 169.168 52.0046 169.168 53.6154ZM167.378 53.6154C167.378 52.293 167.157 51.1769 166.715 50.2671C166.277 49.3573 165.683 48.6687 164.932 48.2014C164.187 47.734 163.351 47.5004 162.427 47.5004C161.502 47.5004 160.664 47.734 159.914 48.2014C159.168 48.6687 158.574 49.3573 158.131 50.2671C157.694 51.1769 157.475 52.293 157.475 53.6154C157.475 54.9379 157.694 56.054 158.131 56.9638C158.574 57.8736 159.168 58.5622 159.914 59.0295C160.664 59.4968 161.502 59.7305 162.427 59.7305C163.351 59.7305 164.187 59.4968 164.932 59.0295C165.683 58.5622 166.277 57.8736 166.715 56.9638C167.157 56.054 167.378 54.9379 167.378 53.6154Z" fill="white" fill-opacity="0.6"/>
</svg>
